<?xml version="1.0" encoding="utf-8" standalone="no"?>
<!DOCTYPE svg PUBLIC "-//W3C//DTD SVG 1.1//EN"
  "http://www.w3.org/Graphics/SVG/1.1/DTD/svg11.dtd">
<svg xmlns:xlink="http://www.w3.org/1999/xlink" width="460.8pt" height="345.6pt" viewBox="0 0 460.8 345.6" xmlns="http://www.w3.org/2000/svg" version="1.1">
 <metadata>
  <rdf:RDF xmlns:dc="http://purl.org/dc/elements/1.1/" xmlns:cc="http://creativecommons.org/ns#" xmlns:rdf="http://www.w3.org/1999/02/22-rdf-syntax-ns#">
   <cc:Work>
    <dc:type rdf:resource="http://purl.org/dc/dcmitype/StillImage"/>
    <dc:date>2024-06-26T10:48:45.616152</dc:date>
    <dc:format>image/svg+xml</dc:format>
    <dc:creator>
     <cc:Agent>
      <dc:title>Matplotlib v3.9.0, https://matplotlib.org/</dc:title>
     </cc:Agent>
    </dc:creator>
   </cc:Work>
  </rdf:RDF>
 </metadata>
 <defs>
  <style type="text/css">*{stroke-linejoin: round; stroke-linecap: butt}</style>
 </defs>
 <g id="figure_1">
  <g id="patch_1">
   <path d="M 0 345.6 
L 460.8 345.6 
L 460.8 0 
L 0 0 
L 0 345.6 
z
" style="fill: none"/>
  </g>
  <g id="axes_1">
   <g id="patch_2">
    <path d="M 57.6 307.584 
L 414.72 307.584 
L 414.72 41.472 
L 57.6 41.472 
L 57.6 307.584 
z
" style="fill: none"/>
   </g>
   <g id="PolyCollection_1"/>
   <g id="PolyCollection_2"/>
   <g id="PolyCollection_3"/>
   <g id="PolyCollection_4"/>
   <g id="matplotlib.axis_1">
    <g id="xtick_1">
     <g id="line2d_1">
      <defs>
       <path id="m757e814a6b" d="M 0 0 
L 0 4.8 
" style="stroke: #000000"/>
      </defs>
      <g>
       <use xlink:href="#m757e814a6b" x="71.653838" y="307.584" style="stroke: #000000"/>
      </g>
     </g>
     <g id="text_1">
      <!-- 0 -->
      <g transform="translate(68.854338 322.570625) scale(0.088 -0.088)">
       <defs>
        <path id="DejaVuSans-30" d="M 2034 4250 
Q 1547 4250 1301 3770 
Q 1056 3291 1056 2328 
Q 1056 1369 1301 889 
Q 1547 409 2034 409 
Q 2525 409 2770 889 
Q 3016 1369 3016 2328 
Q 3016 3291 2770 3770 
Q 2525 4250 2034 4250 
z
M 2034 4750 
Q 2819 4750 3233 4129 
Q 3647 3509 3647 2328 
Q 3647 1150 3233 529 
Q 2819 -91 2034 -91 
Q 1250 -91 836 529 
Q 422 1150 422 2328 
Q 422 3509 836 4129 
Q 1250 4750 2034 4750 
z
" transform="scale(0.015625)"/>
       </defs>
       <use xlink:href="#DejaVuSans-30"/>
      </g>
     </g>
    </g>
    <g id="xtick_2">
     <g id="line2d_2">
      <g>
       <use xlink:href="#m757e814a6b" x="115.231629" y="307.584" style="stroke: #000000"/>
      </g>
     </g>
     <g id="text_2">
      <!-- 20 -->
      <g transform="translate(109.632629 322.570625) scale(0.088 -0.088)">
       <defs>
        <path id="DejaVuSans-32" d="M 1228 531 
L 3431 531 
L 3431 0 
L 469 0 
L 469 531 
Q 828 903 1448 1529 
Q 2069 2156 2228 2338 
Q 2531 2678 2651 2914 
Q 2772 3150 2772 3378 
Q 2772 3750 2511 3984 
Q 2250 4219 1831 4219 
Q 1534 4219 1204 4116 
Q 875 4013 500 3803 
L 500 4441 
Q 881 4594 1212 4672 
Q 1544 4750 1819 4750 
Q 2544 4750 2975 4387 
Q 3406 4025 3406 3419 
Q 3406 3131 3298 2873 
Q 3191 2616 2906 2266 
Q 2828 2175 2409 1742 
Q 1991 1309 1228 531 
z
" transform="scale(0.015625)"/>
       </defs>
       <use xlink:href="#DejaVuSans-32"/>
       <use xlink:href="#DejaVuSans-30" x="63.623047"/>
      </g>
     </g>
    </g>
    <g id="xtick_3">
     <g id="line2d_3">
      <g>
       <use xlink:href="#m757e814a6b" x="158.80942" y="307.584" style="stroke: #000000"/>
      </g>
     </g>
     <g id="text_3">
      <!-- 40 -->
      <g transform="translate(153.21042 322.570625) scale(0.088 -0.088)">
       <defs>
        <path id="DejaVuSans-34" d="M 2419 4116 
L 825 1625 
L 2419 1625 
L 2419 4116 
z
M 2253 4666 
L 3047 4666 
L 3047 1625 
L 3713 1625 
L 3713 1100 
L 3047 1100 
L 3047 0 
L 2419 0 
L 2419 1100 
L 313 1100 
L 313 1709 
L 2253 4666 
z
" transform="scale(0.015625)"/>
       </defs>
       <use xlink:href="#DejaVuSans-34"/>
       <use xlink:href="#DejaVuSans-30" x="63.623047"/>
      </g>
     </g>
    </g>
    <g id="xtick_4">
     <g id="line2d_4">
      <g>
       <use xlink:href="#m757e814a6b" x="202.387212" y="307.584" style="stroke: #000000"/>
      </g>
     </g>
     <g id="text_4">
      <!-- 60 -->
      <g transform="translate(196.788212 322.570625) scale(0.088 -0.088)">
       <defs>
        <path id="DejaVuSans-36" d="M 2113 2584 
Q 1688 2584 1439 2293 
Q 1191 2003 1191 1497 
Q 1191 994 1439 701 
Q 1688 409 2113 409 
Q 2538 409 2786 701 
Q 3034 994 3034 1497 
Q 3034 2003 2786 2293 
Q 2538 2584 2113 2584 
z
M 3366 4563 
L 3366 3988 
Q 3128 4100 2886 4159 
Q 2644 4219 2406 4219 
Q 1781 4219 1451 3797 
Q 1122 3375 1075 2522 
Q 1259 2794 1537 2939 
Q 1816 3084 2150 3084 
Q 2853 3084 3261 2657 
Q 3669 2231 3669 1497 
Q 3669 778 3244 343 
Q 2819 -91 2113 -91 
Q 1303 -91 875 529 
Q 447 1150 447 2328 
Q 447 3434 972 4092 
Q 1497 4750 2381 4750 
Q 2619 4750 2861 4703 
Q 3103 4656 3366 4563 
z
" transform="scale(0.015625)"/>
       </defs>
       <use xlink:href="#DejaVuSans-36"/>
       <use xlink:href="#DejaVuSans-30" x="63.623047"/>
      </g>
     </g>
    </g>
    <g id="xtick_5">
     <g id="line2d_5">
      <g>
       <use xlink:href="#m757e814a6b" x="245.965003" y="307.584" style="stroke: #000000"/>
      </g>
     </g>
     <g id="text_5">
      <!-- 80 -->
      <g transform="translate(240.366003 322.570625) scale(0.088 -0.088)">
       <defs>
        <path id="DejaVuSans-38" d="M 2034 2216 
Q 1584 2216 1326 1975 
Q 1069 1734 1069 1313 
Q 1069 891 1326 650 
Q 1584 409 2034 409 
Q 2484 409 2743 651 
Q 3003 894 3003 1313 
Q 3003 1734 2745 1975 
Q 2488 2216 2034 2216 
z
M 1403 2484 
Q 997 2584 770 2862 
Q 544 3141 544 3541 
Q 544 4100 942 4425 
Q 1341 4750 2034 4750 
Q 2731 4750 3128 4425 
Q 3525 4100 3525 3541 
Q 3525 3141 3298 2862 
Q 3072 2584 2669 2484 
Q 3125 2378 3379 2068 
Q 3634 1759 3634 1313 
Q 3634 634 3220 271 
Q 2806 -91 2034 -91 
Q 1263 -91 848 271 
Q 434 634 434 1313 
Q 434 1759 690 2068 
Q 947 2378 1403 2484 
z
M 1172 3481 
Q 1172 3119 1398 2916 
Q 1625 2713 2034 2713 
Q 2441 2713 2670 2916 
Q 2900 3119 2900 3481 
Q 2900 3844 2670 4047 
Q 2441 4250 2034 4250 
Q 1625 4250 1398 4047 
Q 1172 3844 1172 3481 
z
" transform="scale(0.015625)"/>
       </defs>
       <use xlink:href="#DejaVuSans-38"/>
       <use xlink:href="#DejaVuSans-30" x="63.623047"/>
      </g>
     </g>
    </g>
    <g id="xtick_6">
     <g id="line2d_6">
      <g>
       <use xlink:href="#m757e814a6b" x="289.542794" y="307.584" style="stroke: #000000"/>
      </g>
     </g>
     <g id="text_6">
      <!-- 100 -->
      <g transform="translate(281.144294 322.570625) scale(0.088 -0.088)">
       <defs>
        <path id="DejaVuSans-31" d="M 794 531 
L 1825 531 
L 1825 4091 
L 703 3866 
L 703 4441 
L 1819 4666 
L 2450 4666 
L 2450 531 
L 3481 531 
L 3481 0 
L 794 0 
L 794 531 
z
" transform="scale(0.015625)"/>
       </defs>
       <use xlink:href="#DejaVuSans-31"/>
       <use xlink:href="#DejaVuSans-30" x="63.623047"/>
       <use xlink:href="#DejaVuSans-30" x="127.246094"/>
      </g>
     </g>
    </g>
    <g id="xtick_7">
     <g id="line2d_7">
      <g>
       <use xlink:href="#m757e814a6b" x="333.120586" y="307.584" style="stroke: #000000"/>
      </g>
     </g>
     <g id="text_7">
      <!-- 120 -->
      <g transform="translate(324.722086 322.570625) scale(0.088 -0.088)">
       <use xlink:href="#DejaVuSans-31"/>
       <use xlink:href="#DejaVuSans-32" x="63.623047"/>
       <use xlink:href="#DejaVuSans-30" x="127.246094"/>
      </g>
     </g>
    </g>
    <g id="xtick_8">
     <g id="line2d_8">
      <g>
       <use xlink:href="#m757e814a6b" x="376.698377" y="307.584" style="stroke: #000000"/>
      </g>
     </g>
     <g id="text_8">
      <!-- 140 -->
      <g transform="translate(368.299877 322.570625) scale(0.088 -0.088)">
       <use xlink:href="#DejaVuSans-31"/>
       <use xlink:href="#DejaVuSans-34" x="63.623047"/>
       <use xlink:href="#DejaVuSans-30" x="127.246094"/>
      </g>
     </g>
    </g>
    <g id="text_9">
     <!-- Frequency -->
     <g transform="translate(211.3635 335.69525) scale(0.096 -0.096)">
      <defs>
       <path id="DejaVuSans-46" d="M 628 4666 
L 3309 4666 
L 3309 4134 
L 1259 4134 
L 1259 2759 
L 3109 2759 
L 3109 2228 
L 1259 2228 
L 1259 0 
L 628 0 
L 628 4666 
z
" transform="scale(0.015625)"/>
       <path id="DejaVuSans-72" d="M 2631 2963 
Q 2534 3019 2420 3045 
Q 2306 3072 2169 3072 
Q 1681 3072 1420 2755 
Q 1159 2438 1159 1844 
L 1159 0 
L 581 0 
L 581 3500 
L 1159 3500 
L 1159 2956 
Q 1341 3275 1631 3429 
Q 1922 3584 2338 3584 
Q 2397 3584 2469 3576 
Q 2541 3569 2628 3553 
L 2631 2963 
z
" transform="scale(0.015625)"/>
       <path id="DejaVuSans-65" d="M 3597 1894 
L 3597 1613 
L 953 1613 
Q 991 1019 1311 708 
Q 1631 397 2203 397 
Q 2534 397 2845 478 
Q 3156 559 3463 722 
L 3463 178 
Q 3153 47 2828 -22 
Q 2503 -91 2169 -91 
Q 1331 -91 842 396 
Q 353 884 353 1716 
Q 353 2575 817 3079 
Q 1281 3584 2069 3584 
Q 2775 3584 3186 3129 
Q 3597 2675 3597 1894 
z
M 3022 2063 
Q 3016 2534 2758 2815 
Q 2500 3097 2075 3097 
Q 1594 3097 1305 2825 
Q 1016 2553 972 2059 
L 3022 2063 
z
" transform="scale(0.015625)"/>
       <path id="DejaVuSans-71" d="M 947 1747 
Q 947 1113 1208 752 
Q 1469 391 1925 391 
Q 2381 391 2643 752 
Q 2906 1113 2906 1747 
Q 2906 2381 2643 2742 
Q 2381 3103 1925 3103 
Q 1469 3103 1208 2742 
Q 947 2381 947 1747 
z
M 2906 525 
Q 2725 213 2448 61 
Q 2172 -91 1784 -91 
Q 1150 -91 751 415 
Q 353 922 353 1747 
Q 353 2572 751 3078 
Q 1150 3584 1784 3584 
Q 2172 3584 2448 3432 
Q 2725 3281 2906 2969 
L 2906 3500 
L 3481 3500 
L 3481 -1331 
L 2906 -1331 
L 2906 525 
z
" transform="scale(0.015625)"/>
       <path id="DejaVuSans-75" d="M 544 1381 
L 544 3500 
L 1119 3500 
L 1119 1403 
Q 1119 906 1312 657 
Q 1506 409 1894 409 
Q 2359 409 2629 706 
Q 2900 1003 2900 1516 
L 2900 3500 
L 3475 3500 
L 3475 0 
L 2900 0 
L 2900 538 
Q 2691 219 2414 64 
Q 2138 -91 1772 -91 
Q 1169 -91 856 284 
Q 544 659 544 1381 
z
M 1991 3584 
L 1991 3584 
z
" transform="scale(0.015625)"/>
       <path id="DejaVuSans-6e" d="M 3513 2113 
L 3513 0 
L 2938 0 
L 2938 2094 
Q 2938 2591 2744 2837 
Q 2550 3084 2163 3084 
Q 1697 3084 1428 2787 
Q 1159 2491 1159 1978 
L 1159 0 
L 581 0 
L 581 3500 
L 1159 3500 
L 1159 2956 
Q 1366 3272 1645 3428 
Q 1925 3584 2291 3584 
Q 2894 3584 3203 3211 
Q 3513 2838 3513 2113 
z
" transform="scale(0.015625)"/>
       <path id="DejaVuSans-63" d="M 3122 3366 
L 3122 2828 
Q 2878 2963 2633 3030 
Q 2388 3097 2138 3097 
Q 1578 3097 1268 2742 
Q 959 2388 959 1747 
Q 959 1106 1268 751 
Q 1578 397 2138 397 
Q 2388 397 2633 464 
Q 2878 531 3122 666 
L 3122 134 
Q 2881 22 2623 -34 
Q 2366 -91 2075 -91 
Q 1284 -91 818 406 
Q 353 903 353 1747 
Q 353 2603 823 3093 
Q 1294 3584 2113 3584 
Q 2378 3584 2631 3529 
Q 2884 3475 3122 3366 
z
" transform="scale(0.015625)"/>
       <path id="DejaVuSans-79" d="M 2059 -325 
Q 1816 -950 1584 -1140 
Q 1353 -1331 966 -1331 
L 506 -1331 
L 506 -850 
L 844 -850 
Q 1081 -850 1212 -737 
Q 1344 -625 1503 -206 
L 1606 56 
L 191 3500 
L 800 3500 
L 1894 763 
L 2988 3500 
L 3597 3500 
L 2059 -325 
z
" transform="scale(0.015625)"/>
      </defs>
      <use xlink:href="#DejaVuSans-46"/>
      <use xlink:href="#DejaVuSans-72" x="50.269531"/>
      <use xlink:href="#DejaVuSans-65" x="89.132812"/>
      <use xlink:href="#DejaVuSans-71" x="150.65625"/>
      <use xlink:href="#DejaVuSans-75" x="214.132812"/>
      <use xlink:href="#DejaVuSans-65" x="277.511719"/>
      <use xlink:href="#DejaVuSans-6e" x="339.035156"/>
      <use xlink:href="#DejaVuSans-63" x="402.414062"/>
      <use xlink:href="#DejaVuSans-79" x="457.394531"/>
     </g>
    </g>
   </g>
   <g id="matplotlib.axis_2">
    <g id="ytick_1">
     <g id="line2d_9">
      <defs>
       <path id="m20b2f24c4c" d="M 0 0 
L -4.8 0 
" style="stroke: #000000"/>
      </defs>
      <g>
       <use xlink:href="#m20b2f24c4c" x="57.6" y="289.107705" style="stroke: #000000"/>
      </g>
     </g>
     <g id="text_10">
      <!-- −40 -->
      <g transform="translate(30.727875 292.451017) scale(0.088 -0.088)">
       <defs>
        <path id="DejaVuSans-2212" d="M 678 2272 
L 4684 2272 
L 4684 1741 
L 678 1741 
L 678 2272 
z
" transform="scale(0.015625)"/>
       </defs>
       <use xlink:href="#DejaVuSans-2212"/>
       <use xlink:href="#DejaVuSans-34" x="83.789062"/>
       <use xlink:href="#DejaVuSans-30" x="147.412109"/>
      </g>
     </g>
    </g>
    <g id="ytick_2">
     <g id="line2d_10">
      <g>
       <use xlink:href="#m20b2f24c4c" x="57.6" y="237.893703" style="stroke: #000000"/>
      </g>
     </g>
     <g id="text_11">
      <!-- −35 -->
      <g transform="translate(30.727875 241.237015) scale(0.088 -0.088)">
       <defs>
        <path id="DejaVuSans-33" d="M 2597 2516 
Q 3050 2419 3304 2112 
Q 3559 1806 3559 1356 
Q 3559 666 3084 287 
Q 2609 -91 1734 -91 
Q 1441 -91 1130 -33 
Q 819 25 488 141 
L 488 750 
Q 750 597 1062 519 
Q 1375 441 1716 441 
Q 2309 441 2620 675 
Q 2931 909 2931 1356 
Q 2931 1769 2642 2001 
Q 2353 2234 1838 2234 
L 1294 2234 
L 1294 2753 
L 1863 2753 
Q 2328 2753 2575 2939 
Q 2822 3125 2822 3475 
Q 2822 3834 2567 4026 
Q 2313 4219 1838 4219 
Q 1578 4219 1281 4162 
Q 984 4106 628 3988 
L 628 4550 
Q 988 4650 1302 4700 
Q 1616 4750 1894 4750 
Q 2613 4750 3031 4423 
Q 3450 4097 3450 3541 
Q 3450 3153 3228 2886 
Q 3006 2619 2597 2516 
z
" transform="scale(0.015625)"/>
        <path id="DejaVuSans-35" d="M 691 4666 
L 3169 4666 
L 3169 4134 
L 1269 4134 
L 1269 2991 
Q 1406 3038 1543 3061 
Q 1681 3084 1819 3084 
Q 2600 3084 3056 2656 
Q 3513 2228 3513 1497 
Q 3513 744 3044 326 
Q 2575 -91 1722 -91 
Q 1428 -91 1123 -41 
Q 819 9 494 109 
L 494 744 
Q 775 591 1075 516 
Q 1375 441 1709 441 
Q 2250 441 2565 725 
Q 2881 1009 2881 1497 
Q 2881 1984 2565 2268 
Q 2250 2553 1709 2553 
Q 1456 2553 1204 2497 
Q 953 2441 691 2322 
L 691 4666 
z
" transform="scale(0.015625)"/>
       </defs>
       <use xlink:href="#DejaVuSans-2212"/>
       <use xlink:href="#DejaVuSans-33" x="83.789062"/>
       <use xlink:href="#DejaVuSans-35" x="147.412109"/>
      </g>
     </g>
    </g>
    <g id="ytick_3">
     <g id="line2d_11">
      <g>
       <use xlink:href="#m20b2f24c4c" x="57.6" y="186.679701" style="stroke: #000000"/>
      </g>
     </g>
     <g id="text_12">
      <!-- −30 -->
      <g transform="translate(30.727875 190.023014) scale(0.088 -0.088)">
       <use xlink:href="#DejaVuSans-2212"/>
       <use xlink:href="#DejaVuSans-33" x="83.789062"/>
       <use xlink:href="#DejaVuSans-30" x="147.412109"/>
      </g>
     </g>
    </g>
    <g id="ytick_4">
     <g id="line2d_12">
      <g>
       <use xlink:href="#m20b2f24c4c" x="57.6" y="135.465699" style="stroke: #000000"/>
      </g>
     </g>
     <g id="text_13">
      <!-- −25 -->
      <g transform="translate(30.727875 138.809012) scale(0.088 -0.088)">
       <use xlink:href="#DejaVuSans-2212"/>
       <use xlink:href="#DejaVuSans-32" x="83.789062"/>
       <use xlink:href="#DejaVuSans-35" x="147.412109"/>
      </g>
     </g>
    </g>
    <g id="ytick_5">
     <g id="line2d_13">
      <g>
       <use xlink:href="#m20b2f24c4c" x="57.6" y="84.251698" style="stroke: #000000"/>
      </g>
     </g>
     <g id="text_14">
      <!-- −20 -->
      <g transform="translate(30.727875 87.59501) scale(0.088 -0.088)">
       <use xlink:href="#DejaVuSans-2212"/>
       <use xlink:href="#DejaVuSans-32" x="83.789062"/>
       <use xlink:href="#DejaVuSans-30" x="147.412109"/>
      </g>
     </g>
    </g>
    <g id="text_15">
     <!-- log(Power) -->
     <g transform="translate(24.731375 200.10075) rotate(-90) scale(0.096 -0.096)">
      <defs>
       <path id="DejaVuSans-6c" d="M 603 4863 
L 1178 4863 
L 1178 0 
L 603 0 
L 603 4863 
z
" transform="scale(0.015625)"/>
       <path id="DejaVuSans-6f" d="M 1959 3097 
Q 1497 3097 1228 2736 
Q 959 2375 959 1747 
Q 959 1119 1226 758 
Q 1494 397 1959 397 
Q 2419 397 2687 759 
Q 2956 1122 2956 1747 
Q 2956 2369 2687 2733 
Q 2419 3097 1959 3097 
z
M 1959 3584 
Q 2709 3584 3137 3096 
Q 3566 2609 3566 1747 
Q 3566 888 3137 398 
Q 2709 -91 1959 -91 
Q 1206 -91 779 398 
Q 353 888 353 1747 
Q 353 2609 779 3096 
Q 1206 3584 1959 3584 
z
" transform="scale(0.015625)"/>
       <path id="DejaVuSans-67" d="M 2906 1791 
Q 2906 2416 2648 2759 
Q 2391 3103 1925 3103 
Q 1463 3103 1205 2759 
Q 947 2416 947 1791 
Q 947 1169 1205 825 
Q 1463 481 1925 481 
Q 2391 481 2648 825 
Q 2906 1169 2906 1791 
z
M 3481 434 
Q 3481 -459 3084 -895 
Q 2688 -1331 1869 -1331 
Q 1566 -1331 1297 -1286 
Q 1028 -1241 775 -1147 
L 775 -588 
Q 1028 -725 1275 -790 
Q 1522 -856 1778 -856 
Q 2344 -856 2625 -561 
Q 2906 -266 2906 331 
L 2906 616 
Q 2728 306 2450 153 
Q 2172 0 1784 0 
Q 1141 0 747 490 
Q 353 981 353 1791 
Q 353 2603 747 3093 
Q 1141 3584 1784 3584 
Q 2172 3584 2450 3431 
Q 2728 3278 2906 2969 
L 2906 3500 
L 3481 3500 
L 3481 434 
z
" transform="scale(0.015625)"/>
       <path id="DejaVuSans-28" d="M 1984 4856 
Q 1566 4138 1362 3434 
Q 1159 2731 1159 2009 
Q 1159 1288 1364 580 
Q 1569 -128 1984 -844 
L 1484 -844 
Q 1016 -109 783 600 
Q 550 1309 550 2009 
Q 550 2706 781 3412 
Q 1013 4119 1484 4856 
L 1984 4856 
z
" transform="scale(0.015625)"/>
       <path id="DejaVuSans-50" d="M 1259 4147 
L 1259 2394 
L 2053 2394 
Q 2494 2394 2734 2622 
Q 2975 2850 2975 3272 
Q 2975 3691 2734 3919 
Q 2494 4147 2053 4147 
L 1259 4147 
z
M 628 4666 
L 2053 4666 
Q 2838 4666 3239 4311 
Q 3641 3956 3641 3272 
Q 3641 2581 3239 2228 
Q 2838 1875 2053 1875 
L 1259 1875 
L 1259 0 
L 628 0 
L 628 4666 
z
" transform="scale(0.015625)"/>
       <path id="DejaVuSans-77" d="M 269 3500 
L 844 3500 
L 1563 769 
L 2278 3500 
L 2956 3500 
L 3675 769 
L 4391 3500 
L 4966 3500 
L 4050 0 
L 3372 0 
L 2619 2869 
L 1863 0 
L 1184 0 
L 269 3500 
z
" transform="scale(0.015625)"/>
       <path id="DejaVuSans-29" d="M 513 4856 
L 1013 4856 
Q 1481 4119 1714 3412 
Q 1947 2706 1947 2009 
Q 1947 1309 1714 600 
Q 1481 -109 1013 -844 
L 513 -844 
Q 928 -128 1133 580 
Q 1338 1288 1338 2009 
Q 1338 2731 1133 3434 
Q 928 4138 513 4856 
z
" transform="scale(0.015625)"/>
      </defs>
      <use xlink:href="#DejaVuSans-6c"/>
      <use xlink:href="#DejaVuSans-6f" x="27.783203"/>
      <use xlink:href="#DejaVuSans-67" x="88.964844"/>
      <use xlink:href="#DejaVuSans-28" x="152.441406"/>
      <use xlink:href="#DejaVuSans-50" x="191.455078"/>
      <use xlink:href="#DejaVuSans-6f" x="248.132812"/>
      <use xlink:href="#DejaVuSans-77" x="309.314453"/>
      <use xlink:href="#DejaVuSans-65" x="391.101562"/>
      <use xlink:href="#DejaVuSans-72" x="452.625"/>
      <use xlink:href="#DejaVuSans-29" x="493.738281"/>
     </g>
    </g>
   </g>
   <g id="line2d_14">
    <path d="M 73.832727 93.316494 
L 76.011617 84.446249 
L 78.190506 81.272416 
L 80.369396 85.757897 
L 82.548286 64.792427 
L 84.727175 53.568 
L 86.906065 72.313314 
L 89.084954 83.102217 
L 91.263844 87.514761 
L 93.442733 84.614046 
L 95.621623 82.843591 
L 97.800513 70.374983 
L 99.979402 90.279711 
L 102.158292 83.539738 
L 104.337181 89.023866 
L 106.516071 87.88488 
L 110.87385 93.101547 
L 113.052739 96.683866 
L 117.410519 101.37123 
L 119.589408 104.148801 
L 121.768298 102.259113 
L 123.947187 106.498459 
L 126.126077 109.032113 
L 130.483856 110.484003 
L 132.662746 106.236317 
L 134.841635 111.150877 
L 137.020525 111.212773 
L 139.199414 115.477975 
L 141.378304 116.247764 
L 143.557193 116.131148 
L 145.736083 116.551729 
L 147.914973 118.075732 
L 150.093862 123.14537 
L 152.272752 124.998429 
L 154.451641 129.300947 
L 156.630531 128.522791 
L 158.80942 129.8129 
L 160.98831 128.096881 
L 163.1672 131.00612 
L 167.524979 131.81066 
L 169.703868 133.184381 
L 171.882758 136.013434 
L 174.061647 133.473639 
L 176.240537 137.599429 
L 178.419426 136.115971 
L 180.598316 135.835969 
L 182.777206 139.106975 
L 184.956095 139.257215 
L 187.134985 139.287564 
L 189.313874 142.234379 
L 191.492764 140.752748 
L 193.671653 142.225618 
L 195.850543 143.380267 
L 198.029433 143.510659 
L 200.208322 158.545984 
L 202.387212 229.516058 
L 204.566101 159.725057 
L 206.744991 145.215818 
L 208.92388 146.65431 
L 211.10277 147.430767 
L 213.28166 150.629855 
L 215.460549 149.671769 
L 217.639439 147.709758 
L 219.818328 151.608095 
L 221.997218 150.802503 
L 224.176107 154.090354 
L 226.354997 152.017999 
L 228.533887 153.211023 
L 230.712776 154.115792 
L 232.891666 152.972648 
L 235.070555 153.456763 
L 237.249445 153.472132 
L 239.428334 154.67146 
L 241.607224 155.044656 
L 243.786113 154.311229 
L 245.965003 155.985668 
L 248.143893 156.598489 
L 250.322782 156.307648 
L 252.501672 157.984606 
L 256.859451 158.350396 
L 259.03834 159.025334 
L 261.21723 154.08451 
L 263.39612 161.67224 
L 265.575009 160.550684 
L 267.753899 160.894851 
L 272.111678 158.111422 
L 274.290567 162.306381 
L 276.469457 162.898774 
L 278.648347 159.334185 
L 280.827236 162.240522 
L 283.006126 163.339501 
L 285.185015 161.984459 
L 287.363905 162.843458 
L 289.542794 164.632364 
L 291.721684 163.325893 
L 293.900574 159.626209 
L 296.079463 160.796893 
L 298.258353 168.848359 
L 300.437242 164.68798 
L 302.616132 165.376247 
L 304.795021 162.114623 
L 306.973911 163.93075 
L 309.1528 167.135665 
L 311.33169 165.86976 
L 313.51058 161.740192 
L 315.689469 166.365504 
L 317.868359 169.708104 
L 320.047248 166.796243 
L 322.226138 161.106569 
L 324.405027 164.787625 
L 326.583917 161.89009 
L 328.762807 164.304325 
L 330.941696 178.598619 
L 333.120586 246.606461 
L 335.299475 186.057448 
L 337.478365 166.087832 
L 339.657254 161.143948 
L 341.836144 171.646046 
L 344.015034 167.058441 
L 346.193923 171.889961 
L 348.372813 170.126941 
L 350.551702 165.687253 
L 352.730592 171.39687 
L 354.909481 165.625181 
L 357.088371 163.357325 
L 359.267261 172.206879 
L 361.44615 169.178915 
L 363.62504 177.51569 
L 365.803929 170.079905 
L 367.982819 170.478722 
L 370.161708 172.091731 
L 372.340598 164.25445 
L 374.519487 169.492545 
L 376.698377 170.811595 
L 378.877267 174.182126 
L 381.056156 171.512683 
L 383.235046 168.160336 
L 385.413935 173.776601 
L 387.592825 173.488083 
L 389.771714 176.784794 
L 391.950604 183.787075 
L 394.129494 176.287759 
L 396.308383 181.723606 
L 398.487273 178.075266 
L 398.487273 178.075266 
" clip-path="url(#paef43a7bd4)" style="fill: none; stroke: #1f77b4; stroke-width: 1.2; stroke-linecap: square"/>
   </g>
   <g id="line2d_15">
    <path d="M 73.832727 117.410446 
L 76.011617 106.717074 
L 78.190506 115.578328 
L 80.369396 115.114721 
L 82.548286 106.904083 
L 84.727175 117.013551 
L 86.906065 124.587775 
L 89.084954 128.824322 
L 91.263844 130.80181 
L 93.442733 132.066279 
L 95.621623 132.497978 
L 97.800513 133.175112 
L 99.979402 130.819786 
L 102.158292 132.697349 
L 104.337181 132.056569 
L 106.516071 133.895667 
L 108.69496 136.119359 
L 110.87385 134.522964 
L 113.052739 135.768907 
L 115.231629 140.102042 
L 117.410519 138.788193 
L 119.589408 141.258145 
L 121.768298 141.382716 
L 123.947187 147.353015 
L 126.126077 142.77319 
L 128.304966 148.008831 
L 130.483856 150.502686 
L 132.662746 151.253431 
L 134.841635 151.641788 
L 137.020525 149.450719 
L 139.199414 156.781135 
L 141.378304 154.163247 
L 143.557193 159.409208 
L 145.736083 156.906931 
L 147.914973 158.390563 
L 150.093862 158.484555 
L 152.272752 158.837109 
L 154.451641 160.34726 
L 156.630531 162.207303 
L 158.80942 161.021452 
L 160.98831 164.444866 
L 163.1672 165.081937 
L 165.346089 165.060988 
L 167.524979 165.491618 
L 169.703868 169.160814 
L 171.882758 168.387116 
L 174.061647 172.105208 
L 176.240537 168.384341 
L 178.419426 170.283162 
L 180.598316 169.3264 
L 182.777206 170.747245 
L 184.956095 170.144489 
L 187.134985 171.133401 
L 189.313874 173.375387 
L 191.492764 171.951268 
L 193.671653 173.194146 
L 195.850543 175.474003 
L 198.029433 175.81466 
L 200.208322 188.754089 
L 202.387212 274.790432 
L 204.566101 189.493483 
L 206.744991 176.164632 
L 208.92388 181.011271 
L 211.10277 178.194046 
L 213.28166 181.272518 
L 215.460549 180.361516 
L 217.639439 180.747632 
L 219.818328 182.097011 
L 221.997218 182.52028 
L 224.176107 184.517836 
L 226.354997 183.431979 
L 228.533887 183.829425 
L 230.712776 185.034258 
L 232.891666 183.901798 
L 235.070555 186.251972 
L 237.249445 187.880473 
L 239.428334 185.318603 
L 241.607224 186.320623 
L 243.786113 186.106188 
L 245.965003 187.523161 
L 248.143893 187.720901 
L 250.322782 187.523989 
L 252.501672 188.52758 
L 254.680561 187.92387 
L 256.859451 189.819591 
L 259.03834 190.114474 
L 261.21723 192.031769 
L 263.39612 191.400571 
L 265.575009 192.908835 
L 267.753899 191.291494 
L 269.932788 191.596202 
L 272.111678 196.002687 
L 274.290567 194.327859 
L 276.469457 195.952793 
L 278.648347 194.360985 
L 280.827236 194.985787 
L 283.006126 194.860781 
L 287.363905 197.44051 
L 289.542794 196.605611 
L 291.721684 195.573547 
L 293.900574 198.916021 
L 296.079463 197.804673 
L 298.258353 198.76976 
L 300.437242 198.785363 
L 302.616132 198.547132 
L 304.795021 199.3979 
L 306.973911 199.597965 
L 309.1528 199.577561 
L 311.33169 199.959398 
L 313.51058 200.84368 
L 315.689469 200.394327 
L 317.868359 201.381673 
L 320.047248 202.858202 
L 322.226138 203.106506 
L 324.405027 201.670512 
L 326.583917 202.180812 
L 328.762807 201.980205 
L 330.941696 217.510909 
L 333.120586 289.555615 
L 335.299475 218.515948 
L 337.478365 204.66749 
L 339.657254 202.756435 
L 344.015034 203.501523 
L 346.193923 204.902299 
L 348.372813 205.360899 
L 350.551702 205.569333 
L 354.909481 206.609443 
L 357.088371 206.81591 
L 359.267261 206.842439 
L 361.44615 207.372698 
L 363.62504 207.14618 
L 365.803929 207.889975 
L 367.982819 207.613586 
L 370.161708 209.160672 
L 372.340598 209.263398 
L 374.519487 208.727808 
L 376.698377 209.667076 
L 378.877267 209.362016 
L 381.056156 212.486113 
L 383.235046 211.641871 
L 385.413935 214.310265 
L 387.592825 215.328283 
L 389.771714 217.870196 
L 391.950604 218.85485 
L 394.129494 220.472432 
L 396.308383 221.009833 
L 398.487273 223.633015 
L 398.487273 223.633015 
" clip-path="url(#paef43a7bd4)" style="fill: none; stroke: #ff7f0e; stroke-width: 1.2; stroke-linecap: square"/>
   </g>
   <g id="line2d_16">
    <path d="M 73.832727 85.52517 
L 76.011617 85.935438 
L 78.190506 94.073652 
L 80.369396 96.923179 
L 82.548286 109.777719 
L 84.727175 110.545108 
L 86.906065 110.543893 
L 89.084954 111.739333 
L 91.263844 116.507332 
L 93.442733 118.593484 
L 95.621623 114.485893 
L 97.800513 120.86573 
L 99.979402 122.60226 
L 102.158292 123.822549 
L 104.337181 124.143696 
L 106.516071 121.394796 
L 108.69496 126.557896 
L 110.87385 129.688641 
L 113.052739 130.715476 
L 115.231629 133.223619 
L 117.410519 132.530791 
L 119.589408 134.158252 
L 121.768298 131.878267 
L 123.947187 138.30699 
L 126.126077 132.624939 
L 128.304966 128.720877 
L 130.483856 137.106901 
L 132.662746 141.097993 
L 134.841635 138.576416 
L 137.020525 140.182118 
L 139.199414 138.05597 
L 141.378304 147.383046 
L 143.557193 147.782623 
L 145.736083 139.508976 
L 147.914973 145.353276 
L 150.093862 143.62234 
L 152.272752 150.382162 
L 154.451641 146.685022 
L 156.630531 151.37315 
L 158.80942 148.637757 
L 160.98831 144.397072 
L 163.1672 147.035204 
L 165.346089 145.693002 
L 167.524979 146.117276 
L 169.703868 152.115211 
L 171.882758 145.212237 
L 174.061647 155.699677 
L 176.240537 160.090885 
L 178.419426 145.93991 
L 180.598316 154.568373 
L 182.777206 154.02414 
L 184.956095 153.642103 
L 187.134985 156.39069 
L 189.313874 153.260445 
L 191.492764 157.273069 
L 193.671653 152.076381 
L 195.850543 159.176735 
L 198.029433 153.047673 
L 200.208322 165.691782 
L 202.387212 274.603599 
L 204.566101 165.091293 
L 206.744991 167.665953 
L 208.92388 160.703642 
L 211.10277 151.669245 
L 213.28166 160.071153 
L 215.460549 150.249244 
L 217.639439 154.933944 
L 219.818328 162.276861 
L 221.997218 156.599087 
L 224.176107 161.170536 
L 226.354997 160.931915 
L 228.533887 165.715619 
L 230.712776 160.524419 
L 232.891666 160.510337 
L 235.070555 155.410862 
L 237.249445 155.247738 
L 239.428334 162.349533 
L 241.607224 153.004527 
L 243.786113 155.150036 
L 245.965003 163.713946 
L 248.143893 158.367485 
L 250.322782 158.866999 
L 252.501672 153.967193 
L 254.680561 159.547142 
L 256.859451 166.63186 
L 259.03834 164.734174 
L 261.21723 163.088128 
L 263.39612 170.967104 
L 265.575009 161.273502 
L 267.753899 158.936895 
L 269.932788 162.653697 
L 272.111678 165.160807 
L 274.290567 160.999577 
L 276.469457 157.931557 
L 278.648347 158.32494 
L 280.827236 168.313198 
L 283.006126 161.52128 
L 285.185015 161.053849 
L 287.363905 159.594684 
L 289.542794 161.893523 
L 291.721684 168.310238 
L 293.900574 162.044659 
L 296.079463 167.315131 
L 298.258353 165.485569 
L 300.437242 169.628809 
L 302.616132 163.577839 
L 304.795021 159.720579 
L 306.973911 168.613128 
L 309.1528 160.316695 
L 311.33169 168.810167 
L 313.51058 169.335722 
L 315.689469 159.52641 
L 317.868359 165.862542 
L 320.047248 163.483218 
L 322.226138 169.604603 
L 324.405027 163.835654 
L 326.583917 159.610094 
L 328.762807 165.530849 
L 330.941696 176.575653 
L 333.120586 284.566446 
L 335.299475 177.209018 
L 337.478365 160.365263 
L 339.657254 167.7937 
L 341.836144 164.054701 
L 344.015034 165.91556 
L 346.193923 171.701043 
L 348.372813 162.647941 
L 350.551702 168.001213 
L 352.730592 164.45447 
L 354.909481 161.207049 
L 357.088371 164.30961 
L 359.267261 161.897363 
L 361.44615 161.578586 
L 363.62504 167.471911 
L 365.803929 160.829135 
L 367.982819 162.671273 
L 370.161708 167.001959 
L 372.340598 166.096458 
L 374.519487 166.84015 
L 376.698377 170.702092 
L 378.877267 168.706979 
L 381.056156 163.846248 
L 383.235046 173.237978 
L 385.413935 172.665042 
L 387.592825 167.018594 
L 389.771714 171.621939 
L 391.950604 166.353844 
L 394.129494 172.610858 
L 396.308383 184.130894 
L 398.487273 175.157194 
L 398.487273 175.157194 
" clip-path="url(#paef43a7bd4)" style="fill: none; stroke: #2ca02c; stroke-width: 1.2; stroke-linecap: square"/>
   </g>
   <g id="line2d_17">
    <path d="M 73.832727 99.666971 
L 76.011617 99.703755 
L 78.190506 106.957997 
L 80.369396 104.779688 
L 82.548286 105.16881 
L 84.727175 114.640677 
L 86.906065 118.548638 
L 89.084954 120.233326 
L 91.263844 121.722787 
L 93.442733 125.138414 
L 95.621623 127.392288 
L 97.800513 126.982538 
L 99.979402 129.687485 
L 102.158292 129.633899 
L 104.337181 127.745476 
L 106.516071 128.970144 
L 108.69496 132.131845 
L 110.87385 130.248851 
L 113.052739 132.785516 
L 115.231629 131.5145 
L 117.410519 136.886399 
L 119.589408 137.406236 
L 121.768298 143.617013 
L 123.947187 146.684933 
L 126.126077 143.404604 
L 128.304966 147.155489 
L 130.483856 141.961329 
L 132.662746 144.264245 
L 137.020525 147.439954 
L 139.199414 148.401038 
L 141.378304 147.398296 
L 143.557193 147.371871 
L 145.736083 146.848502 
L 147.914973 148.158789 
L 150.093862 149.687079 
L 152.272752 152.804945 
L 154.451641 156.145027 
L 156.630531 155.590112 
L 160.98831 146.281039 
L 163.1672 150.736976 
L 165.346089 148.792998 
L 167.524979 153.823169 
L 169.703868 154.264617 
L 171.882758 161.191966 
L 174.061647 163.060168 
L 176.240537 160.827416 
L 180.598316 158.921151 
L 184.956095 162.449412 
L 187.134985 165.111416 
L 189.313874 166.032733 
L 191.492764 170.98425 
L 193.671653 166.562525 
L 195.850543 168.857884 
L 198.029433 170.328831 
L 200.208322 182.443877 
L 202.387212 283.177846 
L 204.566101 178.751463 
L 206.744991 164.984136 
L 208.92388 165.785613 
L 211.10277 173.451812 
L 213.28166 172.203615 
L 215.460549 166.913742 
L 217.639439 162.481402 
L 219.818328 160.751826 
L 221.997218 157.918903 
L 224.176107 161.293276 
L 226.354997 165.896181 
L 228.533887 169.69638 
L 230.712776 170.18799 
L 232.891666 167.776778 
L 235.070555 164.297724 
L 237.249445 163.395188 
L 239.428334 161.352997 
L 241.607224 165.125498 
L 245.965003 164.815991 
L 248.143893 167.051608 
L 250.322782 162.639872 
L 252.501672 166.482246 
L 254.680561 163.951181 
L 256.859451 167.316853 
L 259.03834 165.533397 
L 261.21723 160.641218 
L 263.39612 160.484244 
L 265.575009 159.022571 
L 267.753899 161.93709 
L 269.932788 163.244608 
L 272.111678 166.605878 
L 274.290567 163.813156 
L 276.469457 160.680016 
L 278.648347 157.865922 
L 280.827236 156.472232 
L 283.006126 158.28632 
L 285.185015 157.752988 
L 287.363905 162.576603 
L 289.542794 164.612287 
L 291.721684 166.124143 
L 293.900574 164.924899 
L 296.079463 160.2906 
L 298.258353 162.660459 
L 300.437242 159.419313 
L 302.616132 160.556031 
L 304.795021 165.008357 
L 306.973911 165.500281 
L 309.1528 169.941274 
L 311.33169 168.171811 
L 313.51058 171.13466 
L 315.689469 172.725658 
L 317.868359 168.675611 
L 320.047248 173.443732 
L 322.226138 169.330262 
L 324.405027 169.649575 
L 326.583917 170.798942 
L 328.762807 168.015286 
L 330.941696 178.799398 
L 333.120586 295.488 
L 335.299475 176.344362 
L 337.478365 160.049368 
L 339.657254 160.968261 
L 341.836144 163.859571 
L 344.015034 174.496802 
L 346.193923 173.967461 
L 348.372813 164.492856 
L 350.551702 162.985971 
L 352.730592 156.620994 
L 354.909481 153.733773 
L 357.088371 152.927278 
L 359.267261 157.712238 
L 361.44615 165.418497 
L 363.62504 164.341097 
L 365.803929 165.569912 
L 367.982819 168.971655 
L 370.161708 161.840719 
L 372.340598 158.513798 
L 374.519487 159.260287 
L 376.698377 162.914218 
L 378.877267 164.910293 
L 381.056156 161.649906 
L 383.235046 164.37269 
L 385.413935 168.729703 
L 387.592825 175.417649 
L 389.771714 174.398895 
L 391.950604 176.824224 
L 394.129494 178.92732 
L 396.308383 176.213221 
L 398.487273 174.611773 
L 398.487273 174.611773 
" clip-path="url(#paef43a7bd4)" style="fill: none; stroke: #d62728; stroke-width: 1.2; stroke-linecap: square"/>
   </g>
   <g id="line2d_18"/>
   <g id="line2d_19"/>
   <g id="line2d_20"/>
   <g id="line2d_21"/>
   <g id="patch_3">
    <path d="M 57.6 307.584 
L 57.6 41.472 
" style="fill: none; stroke: #000000; stroke-linejoin: miter; stroke-linecap: square"/>
   </g>
   <g id="patch_4">
    <path d="M 414.72 307.584 
L 414.72 41.472 
" style="fill: none; stroke: #000000; stroke-linejoin: miter; stroke-linecap: square"/>
   </g>
   <g id="patch_5">
    <path d="M 57.6 307.584 
L 414.72 307.584 
" style="fill: none; stroke: #000000; stroke-linejoin: miter; stroke-linecap: square"/>
   </g>
   <g id="patch_6">
    <path d="M 57.6 41.472 
L 414.72 41.472 
" style="fill: none; stroke: #000000; stroke-linejoin: miter; stroke-linecap: square"/>
   </g>
   <g id="text_16">
    <!-- Global PSD per Recording Period for Epat 31 peri-ictal Data FIAS -->
    <g transform="translate(82.26 35.472) scale(0.096 -0.096)">
     <defs>
      <path id="DejaVuSans-47" d="M 3809 666 
L 3809 1919 
L 2778 1919 
L 2778 2438 
L 4434 2438 
L 4434 434 
Q 4069 175 3628 42 
Q 3188 -91 2688 -91 
Q 1594 -91 976 548 
Q 359 1188 359 2328 
Q 359 3472 976 4111 
Q 1594 4750 2688 4750 
Q 3144 4750 3555 4637 
Q 3966 4525 4313 4306 
L 4313 3634 
Q 3963 3931 3569 4081 
Q 3175 4231 2741 4231 
Q 1884 4231 1454 3753 
Q 1025 3275 1025 2328 
Q 1025 1384 1454 906 
Q 1884 428 2741 428 
Q 3075 428 3337 486 
Q 3600 544 3809 666 
z
" transform="scale(0.015625)"/>
      <path id="DejaVuSans-62" d="M 3116 1747 
Q 3116 2381 2855 2742 
Q 2594 3103 2138 3103 
Q 1681 3103 1420 2742 
Q 1159 2381 1159 1747 
Q 1159 1113 1420 752 
Q 1681 391 2138 391 
Q 2594 391 2855 752 
Q 3116 1113 3116 1747 
z
M 1159 2969 
Q 1341 3281 1617 3432 
Q 1894 3584 2278 3584 
Q 2916 3584 3314 3078 
Q 3713 2572 3713 1747 
Q 3713 922 3314 415 
Q 2916 -91 2278 -91 
Q 1894 -91 1617 61 
Q 1341 213 1159 525 
L 1159 0 
L 581 0 
L 581 4863 
L 1159 4863 
L 1159 2969 
z
" transform="scale(0.015625)"/>
      <path id="DejaVuSans-61" d="M 2194 1759 
Q 1497 1759 1228 1600 
Q 959 1441 959 1056 
Q 959 750 1161 570 
Q 1363 391 1709 391 
Q 2188 391 2477 730 
Q 2766 1069 2766 1631 
L 2766 1759 
L 2194 1759 
z
M 3341 1997 
L 3341 0 
L 2766 0 
L 2766 531 
Q 2569 213 2275 61 
Q 1981 -91 1556 -91 
Q 1019 -91 701 211 
Q 384 513 384 1019 
Q 384 1609 779 1909 
Q 1175 2209 1959 2209 
L 2766 2209 
L 2766 2266 
Q 2766 2663 2505 2880 
Q 2244 3097 1772 3097 
Q 1472 3097 1187 3025 
Q 903 2953 641 2809 
L 641 3341 
Q 956 3463 1253 3523 
Q 1550 3584 1831 3584 
Q 2591 3584 2966 3190 
Q 3341 2797 3341 1997 
z
" transform="scale(0.015625)"/>
      <path id="DejaVuSans-20" transform="scale(0.015625)"/>
      <path id="DejaVuSans-53" d="M 3425 4513 
L 3425 3897 
Q 3066 4069 2747 4153 
Q 2428 4238 2131 4238 
Q 1616 4238 1336 4038 
Q 1056 3838 1056 3469 
Q 1056 3159 1242 3001 
Q 1428 2844 1947 2747 
L 2328 2669 
Q 3034 2534 3370 2195 
Q 3706 1856 3706 1288 
Q 3706 609 3251 259 
Q 2797 -91 1919 -91 
Q 1588 -91 1214 -16 
Q 841 59 441 206 
L 441 856 
Q 825 641 1194 531 
Q 1563 422 1919 422 
Q 2459 422 2753 634 
Q 3047 847 3047 1241 
Q 3047 1584 2836 1778 
Q 2625 1972 2144 2069 
L 1759 2144 
Q 1053 2284 737 2584 
Q 422 2884 422 3419 
Q 422 4038 858 4394 
Q 1294 4750 2059 4750 
Q 2388 4750 2728 4690 
Q 3069 4631 3425 4513 
z
" transform="scale(0.015625)"/>
      <path id="DejaVuSans-44" d="M 1259 4147 
L 1259 519 
L 2022 519 
Q 2988 519 3436 956 
Q 3884 1394 3884 2338 
Q 3884 3275 3436 3711 
Q 2988 4147 2022 4147 
L 1259 4147 
z
M 628 4666 
L 1925 4666 
Q 3281 4666 3915 4102 
Q 4550 3538 4550 2338 
Q 4550 1131 3912 565 
Q 3275 0 1925 0 
L 628 0 
L 628 4666 
z
" transform="scale(0.015625)"/>
      <path id="DejaVuSans-70" d="M 1159 525 
L 1159 -1331 
L 581 -1331 
L 581 3500 
L 1159 3500 
L 1159 2969 
Q 1341 3281 1617 3432 
Q 1894 3584 2278 3584 
Q 2916 3584 3314 3078 
Q 3713 2572 3713 1747 
Q 3713 922 3314 415 
Q 2916 -91 2278 -91 
Q 1894 -91 1617 61 
Q 1341 213 1159 525 
z
M 3116 1747 
Q 3116 2381 2855 2742 
Q 2594 3103 2138 3103 
Q 1681 3103 1420 2742 
Q 1159 2381 1159 1747 
Q 1159 1113 1420 752 
Q 1681 391 2138 391 
Q 2594 391 2855 752 
Q 3116 1113 3116 1747 
z
" transform="scale(0.015625)"/>
      <path id="DejaVuSans-52" d="M 2841 2188 
Q 3044 2119 3236 1894 
Q 3428 1669 3622 1275 
L 4263 0 
L 3584 0 
L 2988 1197 
Q 2756 1666 2539 1819 
Q 2322 1972 1947 1972 
L 1259 1972 
L 1259 0 
L 628 0 
L 628 4666 
L 2053 4666 
Q 2853 4666 3247 4331 
Q 3641 3997 3641 3322 
Q 3641 2881 3436 2590 
Q 3231 2300 2841 2188 
z
M 1259 4147 
L 1259 2491 
L 2053 2491 
Q 2509 2491 2742 2702 
Q 2975 2913 2975 3322 
Q 2975 3731 2742 3939 
Q 2509 4147 2053 4147 
L 1259 4147 
z
" transform="scale(0.015625)"/>
      <path id="DejaVuSans-64" d="M 2906 2969 
L 2906 4863 
L 3481 4863 
L 3481 0 
L 2906 0 
L 2906 525 
Q 2725 213 2448 61 
Q 2172 -91 1784 -91 
Q 1150 -91 751 415 
Q 353 922 353 1747 
Q 353 2572 751 3078 
Q 1150 3584 1784 3584 
Q 2172 3584 2448 3432 
Q 2725 3281 2906 2969 
z
M 947 1747 
Q 947 1113 1208 752 
Q 1469 391 1925 391 
Q 2381 391 2643 752 
Q 2906 1113 2906 1747 
Q 2906 2381 2643 2742 
Q 2381 3103 1925 3103 
Q 1469 3103 1208 2742 
Q 947 2381 947 1747 
z
" transform="scale(0.015625)"/>
      <path id="DejaVuSans-69" d="M 603 3500 
L 1178 3500 
L 1178 0 
L 603 0 
L 603 3500 
z
M 603 4863 
L 1178 4863 
L 1178 4134 
L 603 4134 
L 603 4863 
z
" transform="scale(0.015625)"/>
      <path id="DejaVuSans-66" d="M 2375 4863 
L 2375 4384 
L 1825 4384 
Q 1516 4384 1395 4259 
Q 1275 4134 1275 3809 
L 1275 3500 
L 2222 3500 
L 2222 3053 
L 1275 3053 
L 1275 0 
L 697 0 
L 697 3053 
L 147 3053 
L 147 3500 
L 697 3500 
L 697 3744 
Q 697 4328 969 4595 
Q 1241 4863 1831 4863 
L 2375 4863 
z
" transform="scale(0.015625)"/>
      <path id="DejaVuSans-45" d="M 628 4666 
L 3578 4666 
L 3578 4134 
L 1259 4134 
L 1259 2753 
L 3481 2753 
L 3481 2222 
L 1259 2222 
L 1259 531 
L 3634 531 
L 3634 0 
L 628 0 
L 628 4666 
z
" transform="scale(0.015625)"/>
      <path id="DejaVuSans-74" d="M 1172 4494 
L 1172 3500 
L 2356 3500 
L 2356 3053 
L 1172 3053 
L 1172 1153 
Q 1172 725 1289 603 
Q 1406 481 1766 481 
L 2356 481 
L 2356 0 
L 1766 0 
Q 1100 0 847 248 
Q 594 497 594 1153 
L 594 3053 
L 172 3053 
L 172 3500 
L 594 3500 
L 594 4494 
L 1172 4494 
z
" transform="scale(0.015625)"/>
      <path id="DejaVuSans-2d" d="M 313 2009 
L 1997 2009 
L 1997 1497 
L 313 1497 
L 313 2009 
z
" transform="scale(0.015625)"/>
      <path id="DejaVuSans-49" d="M 628 4666 
L 1259 4666 
L 1259 0 
L 628 0 
L 628 4666 
z
" transform="scale(0.015625)"/>
      <path id="DejaVuSans-41" d="M 2188 4044 
L 1331 1722 
L 3047 1722 
L 2188 4044 
z
M 1831 4666 
L 2547 4666 
L 4325 0 
L 3669 0 
L 3244 1197 
L 1141 1197 
L 716 0 
L 50 0 
L 1831 4666 
z
" transform="scale(0.015625)"/>
     </defs>
     <use xlink:href="#DejaVuSans-47"/>
     <use xlink:href="#DejaVuSans-6c" x="77.490234"/>
     <use xlink:href="#DejaVuSans-6f" x="105.273438"/>
     <use xlink:href="#DejaVuSans-62" x="166.455078"/>
     <use xlink:href="#DejaVuSans-61" x="229.931641"/>
     <use xlink:href="#DejaVuSans-6c" x="291.210938"/>
     <use xlink:href="#DejaVuSans-20" x="318.994141"/>
     <use xlink:href="#DejaVuSans-50" x="350.78125"/>
     <use xlink:href="#DejaVuSans-53" x="411.083984"/>
     <use xlink:href="#DejaVuSans-44" x="474.560547"/>
     <use xlink:href="#DejaVuSans-20" x="551.5625"/>
     <use xlink:href="#DejaVuSans-70" x="583.349609"/>
     <use xlink:href="#DejaVuSans-65" x="646.826172"/>
     <use xlink:href="#DejaVuSans-72" x="708.349609"/>
     <use xlink:href="#DejaVuSans-20" x="749.462891"/>
     <use xlink:href="#DejaVuSans-52" x="781.25"/>
     <use xlink:href="#DejaVuSans-65" x="846.232422"/>
     <use xlink:href="#DejaVuSans-63" x="907.755859"/>
     <use xlink:href="#DejaVuSans-6f" x="962.736328"/>
     <use xlink:href="#DejaVuSans-72" x="1023.917969"/>
     <use xlink:href="#DejaVuSans-64" x="1063.28125"/>
     <use xlink:href="#DejaVuSans-69" x="1126.757812"/>
     <use xlink:href="#DejaVuSans-6e" x="1154.541016"/>
     <use xlink:href="#DejaVuSans-67" x="1217.919922"/>
     <use xlink:href="#DejaVuSans-20" x="1281.396484"/>
     <use xlink:href="#DejaVuSans-50" x="1313.183594"/>
     <use xlink:href="#DejaVuSans-65" x="1369.861328"/>
     <use xlink:href="#DejaVuSans-72" x="1431.384766"/>
     <use xlink:href="#DejaVuSans-69" x="1472.498047"/>
     <use xlink:href="#DejaVuSans-6f" x="1500.28125"/>
     <use xlink:href="#DejaVuSans-64" x="1561.462891"/>
     <use xlink:href="#DejaVuSans-20" x="1624.939453"/>
     <use xlink:href="#DejaVuSans-66" x="1656.726562"/>
     <use xlink:href="#DejaVuSans-6f" x="1691.931641"/>
     <use xlink:href="#DejaVuSans-72" x="1753.113281"/>
     <use xlink:href="#DejaVuSans-20" x="1794.226562"/>
     <use xlink:href="#DejaVuSans-45" x="1826.013672"/>
     <use xlink:href="#DejaVuSans-70" x="1889.197266"/>
     <use xlink:href="#DejaVuSans-61" x="1952.673828"/>
     <use xlink:href="#DejaVuSans-74" x="2013.953125"/>
     <use xlink:href="#DejaVuSans-20" x="2053.162109"/>
     <use xlink:href="#DejaVuSans-33" x="2084.949219"/>
     <use xlink:href="#DejaVuSans-31" x="2148.572266"/>
     <use xlink:href="#DejaVuSans-20" x="2212.195312"/>
     <use xlink:href="#DejaVuSans-70" x="2243.982422"/>
     <use xlink:href="#DejaVuSans-65" x="2307.458984"/>
     <use xlink:href="#DejaVuSans-72" x="2368.982422"/>
     <use xlink:href="#DejaVuSans-69" x="2410.095703"/>
     <use xlink:href="#DejaVuSans-2d" x="2437.878906"/>
     <use xlink:href="#DejaVuSans-69" x="2473.962891"/>
     <use xlink:href="#DejaVuSans-63" x="2501.746094"/>
     <use xlink:href="#DejaVuSans-74" x="2556.726562"/>
     <use xlink:href="#DejaVuSans-61" x="2595.935547"/>
     <use xlink:href="#DejaVuSans-6c" x="2657.214844"/>
     <use xlink:href="#DejaVuSans-20" x="2684.998047"/>
     <use xlink:href="#DejaVuSans-44" x="2716.785156"/>
     <use xlink:href="#DejaVuSans-61" x="2793.787109"/>
     <use xlink:href="#DejaVuSans-74" x="2855.066406"/>
     <use xlink:href="#DejaVuSans-61" x="2894.275391"/>
     <use xlink:href="#DejaVuSans-20" x="2955.554688"/>
     <use xlink:href="#DejaVuSans-46" x="2987.341797"/>
     <use xlink:href="#DejaVuSans-49" x="3044.861328"/>
     <use xlink:href="#DejaVuSans-41" x="3074.353516"/>
     <use xlink:href="#DejaVuSans-53" x="3142.761719"/>
    </g>
   </g>
   <g id="legend_1">
    <g id="patch_7">
     <path d="M 305.86675 114.849 
L 408.56 114.849 
Q 410.32 114.849 410.32 113.089 
L 410.32 47.632 
Q 410.32 45.872 408.56 45.872 
L 305.86675 45.872 
Q 304.10675 45.872 304.10675 47.632 
L 304.10675 113.089 
Q 304.10675 114.849 305.86675 114.849 
z
" style="fill: #ffffff; opacity: 0.8; stroke: #cccccc; stroke-width: 0.8; stroke-linejoin: miter"/>
    </g>
    <g id="text_17">
     <!-- period -->
     <g transform="translate(341.921625 56.6865) scale(0.096 -0.096)">
      <use xlink:href="#DejaVuSans-70"/>
      <use xlink:href="#DejaVuSans-65" x="63.476562"/>
      <use xlink:href="#DejaVuSans-72" x="125"/>
      <use xlink:href="#DejaVuSans-69" x="166.113281"/>
      <use xlink:href="#DejaVuSans-6f" x="193.896484"/>
      <use xlink:href="#DejaVuSans-64" x="255.078125"/>
     </g>
    </g>
    <g id="line2d_22">
     <path d="M 307.62675 66.689625 
L 316.42675 66.689625 
L 325.22675 66.689625 
" style="fill: none; stroke: #1f77b4; stroke-width: 1.2; stroke-linecap: square"/>
    </g>
    <g id="text_18">
     <!-- pwelch_ictal -->
     <g transform="translate(332.26675 69.769625) scale(0.088 -0.088)">
      <defs>
       <path id="DejaVuSans-68" d="M 3513 2113 
L 3513 0 
L 2938 0 
L 2938 2094 
Q 2938 2591 2744 2837 
Q 2550 3084 2163 3084 
Q 1697 3084 1428 2787 
Q 1159 2491 1159 1978 
L 1159 0 
L 581 0 
L 581 4863 
L 1159 4863 
L 1159 2956 
Q 1366 3272 1645 3428 
Q 1925 3584 2291 3584 
Q 2894 3584 3203 3211 
Q 3513 2838 3513 2113 
z
" transform="scale(0.015625)"/>
       <path id="DejaVuSans-5f" d="M 3263 -1063 
L 3263 -1509 
L -63 -1509 
L -63 -1063 
L 3263 -1063 
z
" transform="scale(0.015625)"/>
      </defs>
      <use xlink:href="#DejaVuSans-70"/>
      <use xlink:href="#DejaVuSans-77" x="63.476562"/>
      <use xlink:href="#DejaVuSans-65" x="145.263672"/>
      <use xlink:href="#DejaVuSans-6c" x="206.787109"/>
      <use xlink:href="#DejaVuSans-63" x="234.570312"/>
      <use xlink:href="#DejaVuSans-68" x="289.550781"/>
      <use xlink:href="#DejaVuSans-5f" x="352.929688"/>
      <use xlink:href="#DejaVuSans-69" x="402.929688"/>
      <use xlink:href="#DejaVuSans-63" x="430.712891"/>
      <use xlink:href="#DejaVuSans-74" x="485.693359"/>
      <use xlink:href="#DejaVuSans-61" x="524.902344"/>
      <use xlink:href="#DejaVuSans-6c" x="586.181641"/>
     </g>
    </g>
    <g id="line2d_23">
     <path d="M 307.62675 79.851125 
L 316.42675 79.851125 
L 325.22675 79.851125 
" style="fill: none; stroke: #ff7f0e; stroke-width: 1.2; stroke-linecap: square"/>
    </g>
    <g id="text_19">
     <!-- pwelch_interictal -->
     <g transform="translate(332.26675 82.931125) scale(0.088 -0.088)">
      <use xlink:href="#DejaVuSans-70"/>
      <use xlink:href="#DejaVuSans-77" x="63.476562"/>
      <use xlink:href="#DejaVuSans-65" x="145.263672"/>
      <use xlink:href="#DejaVuSans-6c" x="206.787109"/>
      <use xlink:href="#DejaVuSans-63" x="234.570312"/>
      <use xlink:href="#DejaVuSans-68" x="289.550781"/>
      <use xlink:href="#DejaVuSans-5f" x="352.929688"/>
      <use xlink:href="#DejaVuSans-69" x="402.929688"/>
      <use xlink:href="#DejaVuSans-6e" x="430.712891"/>
      <use xlink:href="#DejaVuSans-74" x="494.091797"/>
      <use xlink:href="#DejaVuSans-65" x="533.300781"/>
      <use xlink:href="#DejaVuSans-72" x="594.824219"/>
      <use xlink:href="#DejaVuSans-69" x="635.9375"/>
      <use xlink:href="#DejaVuSans-63" x="663.720703"/>
      <use xlink:href="#DejaVuSans-74" x="718.701172"/>
      <use xlink:href="#DejaVuSans-61" x="757.910156"/>
      <use xlink:href="#DejaVuSans-6c" x="819.189453"/>
     </g>
    </g>
    <g id="line2d_24">
     <path d="M 307.62675 93.012625 
L 316.42675 93.012625 
L 325.22675 93.012625 
" style="fill: none; stroke: #2ca02c; stroke-width: 1.2; stroke-linecap: square"/>
    </g>
    <g id="text_20">
     <!-- pwelch_post -->
     <g transform="translate(332.26675 96.092625) scale(0.088 -0.088)">
      <defs>
       <path id="DejaVuSans-73" d="M 2834 3397 
L 2834 2853 
Q 2591 2978 2328 3040 
Q 2066 3103 1784 3103 
Q 1356 3103 1142 2972 
Q 928 2841 928 2578 
Q 928 2378 1081 2264 
Q 1234 2150 1697 2047 
L 1894 2003 
Q 2506 1872 2764 1633 
Q 3022 1394 3022 966 
Q 3022 478 2636 193 
Q 2250 -91 1575 -91 
Q 1294 -91 989 -36 
Q 684 19 347 128 
L 347 722 
Q 666 556 975 473 
Q 1284 391 1588 391 
Q 1994 391 2212 530 
Q 2431 669 2431 922 
Q 2431 1156 2273 1281 
Q 2116 1406 1581 1522 
L 1381 1569 
Q 847 1681 609 1914 
Q 372 2147 372 2553 
Q 372 3047 722 3315 
Q 1072 3584 1716 3584 
Q 2034 3584 2315 3537 
Q 2597 3491 2834 3397 
z
" transform="scale(0.015625)"/>
      </defs>
      <use xlink:href="#DejaVuSans-70"/>
      <use xlink:href="#DejaVuSans-77" x="63.476562"/>
      <use xlink:href="#DejaVuSans-65" x="145.263672"/>
      <use xlink:href="#DejaVuSans-6c" x="206.787109"/>
      <use xlink:href="#DejaVuSans-63" x="234.570312"/>
      <use xlink:href="#DejaVuSans-68" x="289.550781"/>
      <use xlink:href="#DejaVuSans-5f" x="352.929688"/>
      <use xlink:href="#DejaVuSans-70" x="402.929688"/>
      <use xlink:href="#DejaVuSans-6f" x="466.40625"/>
      <use xlink:href="#DejaVuSans-73" x="527.587891"/>
      <use xlink:href="#DejaVuSans-74" x="579.6875"/>
     </g>
    </g>
    <g id="line2d_25">
     <path d="M 307.62675 106.174125 
L 316.42675 106.174125 
L 325.22675 106.174125 
" style="fill: none; stroke: #d62728; stroke-width: 1.2; stroke-linecap: square"/>
    </g>
    <g id="text_21">
     <!-- pwelch_pre -->
     <g transform="translate(332.26675 109.254125) scale(0.088 -0.088)">
      <use xlink:href="#DejaVuSans-70"/>
      <use xlink:href="#DejaVuSans-77" x="63.476562"/>
      <use xlink:href="#DejaVuSans-65" x="145.263672"/>
      <use xlink:href="#DejaVuSans-6c" x="206.787109"/>
      <use xlink:href="#DejaVuSans-63" x="234.570312"/>
      <use xlink:href="#DejaVuSans-68" x="289.550781"/>
      <use xlink:href="#DejaVuSans-5f" x="352.929688"/>
      <use xlink:href="#DejaVuSans-70" x="402.929688"/>
      <use xlink:href="#DejaVuSans-72" x="466.40625"/>
      <use xlink:href="#DejaVuSans-65" x="505.269531"/>
     </g>
    </g>
   </g>
  </g>
 </g>
 <defs>
  <clipPath id="paef43a7bd4">
   <rect x="57.6" y="41.472" width="357.12" height="266.112"/>
  </clipPath>
 </defs>
</svg>
