<?xml version="1.0" encoding="utf-8" standalone="no"?>
<!DOCTYPE svg PUBLIC "-//W3C//DTD SVG 1.1//EN"
  "http://www.w3.org/Graphics/SVG/1.1/DTD/svg11.dtd">
<svg xmlns:xlink="http://www.w3.org/1999/xlink" width="914.04pt" height="216pt" viewBox="0 0 914.04 216" xmlns="http://www.w3.org/2000/svg" version="1.1">
 <metadata>
  <rdf:RDF xmlns:dc="http://purl.org/dc/elements/1.1/" xmlns:cc="http://creativecommons.org/ns#" xmlns:rdf="http://www.w3.org/1999/02/22-rdf-syntax-ns#">
   <cc:Work>
    <dc:type rdf:resource="http://purl.org/dc/dcmitype/StillImage"/>
    <dc:date>2024-06-26T11:07:50.377661</dc:date>
    <dc:format>image/svg+xml</dc:format>
    <dc:creator>
     <cc:Agent>
      <dc:title>Matplotlib v3.9.0, https://matplotlib.org/</dc:title>
     </cc:Agent>
    </dc:creator>
   </cc:Work>
  </rdf:RDF>
 </metadata>
 <defs>
  <style type="text/css">*{stroke-linejoin: round; stroke-linecap: butt}</style>
 </defs>
 <g id="figure_1">
  <g id="patch_1">
   <path d="M 0 216 
L 914.04 216 
L 914.04 0 
L 0 0 
L 0 216 
z
" style="fill: none"/>
  </g>
  <g id="axes_1">
   <g id="patch_2">
    <path d="M 53.591943 174.612 
L 242.557031 174.612 
L 242.557031 23.568 
L 53.591943 23.568 
L 53.591943 174.612 
z
" style="fill: none"/>
   </g>
   <g id="PolyCollection_1"/>
   <g id="PolyCollection_2"/>
   <g id="matplotlib.axis_1">
    <g id="xtick_1">
     <g id="line2d_1">
      <defs>
       <path id="m66ebd1b91f" d="M 0 0 
L 0 4.8 
" style="stroke: #000000"/>
      </defs>
      <g>
       <use xlink:href="#m66ebd1b91f" x="61.028336" y="174.612" style="stroke: #000000"/>
      </g>
     </g>
     <g id="text_1">
      <!-- 0 -->
      <g transform="translate(58.228836 189.598625) scale(0.088 -0.088)">
       <defs>
        <path id="DejaVuSans-30" d="M 2034 4250 
Q 1547 4250 1301 3770 
Q 1056 3291 1056 2328 
Q 1056 1369 1301 889 
Q 1547 409 2034 409 
Q 2525 409 2770 889 
Q 3016 1369 3016 2328 
Q 3016 3291 2770 3770 
Q 2525 4250 2034 4250 
z
M 2034 4750 
Q 2819 4750 3233 4129 
Q 3647 3509 3647 2328 
Q 3647 1150 3233 529 
Q 2819 -91 2034 -91 
Q 1250 -91 836 529 
Q 422 1150 422 2328 
Q 422 3509 836 4129 
Q 1250 4750 2034 4750 
z
" transform="scale(0.015625)"/>
       </defs>
       <use xlink:href="#DejaVuSans-30"/>
      </g>
     </g>
    </g>
    <g id="xtick_2">
     <g id="line2d_2">
      <g>
       <use xlink:href="#m66ebd1b91f" x="89.851564" y="174.612" style="stroke: #000000"/>
      </g>
     </g>
     <g id="text_2">
      <!-- 25 -->
      <g transform="translate(84.252564 189.598625) scale(0.088 -0.088)">
       <defs>
        <path id="DejaVuSans-32" d="M 1228 531 
L 3431 531 
L 3431 0 
L 469 0 
L 469 531 
Q 828 903 1448 1529 
Q 2069 2156 2228 2338 
Q 2531 2678 2651 2914 
Q 2772 3150 2772 3378 
Q 2772 3750 2511 3984 
Q 2250 4219 1831 4219 
Q 1534 4219 1204 4116 
Q 875 4013 500 3803 
L 500 4441 
Q 881 4594 1212 4672 
Q 1544 4750 1819 4750 
Q 2544 4750 2975 4387 
Q 3406 4025 3406 3419 
Q 3406 3131 3298 2873 
Q 3191 2616 2906 2266 
Q 2828 2175 2409 1742 
Q 1991 1309 1228 531 
z
" transform="scale(0.015625)"/>
        <path id="DejaVuSans-35" d="M 691 4666 
L 3169 4666 
L 3169 4134 
L 1269 4134 
L 1269 2991 
Q 1406 3038 1543 3061 
Q 1681 3084 1819 3084 
Q 2600 3084 3056 2656 
Q 3513 2228 3513 1497 
Q 3513 744 3044 326 
Q 2575 -91 1722 -91 
Q 1428 -91 1123 -41 
Q 819 9 494 109 
L 494 744 
Q 775 591 1075 516 
Q 1375 441 1709 441 
Q 2250 441 2565 725 
Q 2881 1009 2881 1497 
Q 2881 1984 2565 2268 
Q 2250 2553 1709 2553 
Q 1456 2553 1204 2497 
Q 953 2441 691 2322 
L 691 4666 
z
" transform="scale(0.015625)"/>
       </defs>
       <use xlink:href="#DejaVuSans-32"/>
       <use xlink:href="#DejaVuSans-35" x="63.623047"/>
      </g>
     </g>
    </g>
    <g id="xtick_3">
     <g id="line2d_3">
      <g>
       <use xlink:href="#m66ebd1b91f" x="118.674793" y="174.612" style="stroke: #000000"/>
      </g>
     </g>
     <g id="text_3">
      <!-- 50 -->
      <g transform="translate(113.075793 189.598625) scale(0.088 -0.088)">
       <use xlink:href="#DejaVuSans-35"/>
       <use xlink:href="#DejaVuSans-30" x="63.623047"/>
      </g>
     </g>
    </g>
    <g id="xtick_4">
     <g id="line2d_4">
      <g>
       <use xlink:href="#m66ebd1b91f" x="147.498022" y="174.612" style="stroke: #000000"/>
      </g>
     </g>
     <g id="text_4">
      <!-- 75 -->
      <g transform="translate(141.899022 189.598625) scale(0.088 -0.088)">
       <defs>
        <path id="DejaVuSans-37" d="M 525 4666 
L 3525 4666 
L 3525 4397 
L 1831 0 
L 1172 0 
L 2766 4134 
L 525 4134 
L 525 4666 
z
" transform="scale(0.015625)"/>
       </defs>
       <use xlink:href="#DejaVuSans-37"/>
       <use xlink:href="#DejaVuSans-35" x="63.623047"/>
      </g>
     </g>
    </g>
    <g id="xtick_5">
     <g id="line2d_5">
      <g>
       <use xlink:href="#m66ebd1b91f" x="176.321251" y="174.612" style="stroke: #000000"/>
      </g>
     </g>
     <g id="text_5">
      <!-- 100 -->
      <g transform="translate(167.922751 189.598625) scale(0.088 -0.088)">
       <defs>
        <path id="DejaVuSans-31" d="M 794 531 
L 1825 531 
L 1825 4091 
L 703 3866 
L 703 4441 
L 1819 4666 
L 2450 4666 
L 2450 531 
L 3481 531 
L 3481 0 
L 794 0 
L 794 531 
z
" transform="scale(0.015625)"/>
       </defs>
       <use xlink:href="#DejaVuSans-31"/>
       <use xlink:href="#DejaVuSans-30" x="63.623047"/>
       <use xlink:href="#DejaVuSans-30" x="127.246094"/>
      </g>
     </g>
    </g>
    <g id="xtick_6">
     <g id="line2d_6">
      <g>
       <use xlink:href="#m66ebd1b91f" x="205.14448" y="174.612" style="stroke: #000000"/>
      </g>
     </g>
     <g id="text_6">
      <!-- 125 -->
      <g transform="translate(196.74598 189.598625) scale(0.088 -0.088)">
       <use xlink:href="#DejaVuSans-31"/>
       <use xlink:href="#DejaVuSans-32" x="63.623047"/>
       <use xlink:href="#DejaVuSans-35" x="127.246094"/>
      </g>
     </g>
    </g>
    <g id="xtick_7">
     <g id="line2d_7">
      <g>
       <use xlink:href="#m66ebd1b91f" x="233.967709" y="174.612" style="stroke: #000000"/>
      </g>
     </g>
     <g id="text_7">
      <!-- 150 -->
      <g transform="translate(225.569209 189.598625) scale(0.088 -0.088)">
       <use xlink:href="#DejaVuSans-31"/>
       <use xlink:href="#DejaVuSans-35" x="63.623047"/>
       <use xlink:href="#DejaVuSans-30" x="127.246094"/>
      </g>
     </g>
    </g>
    <g id="text_8">
     <!-- freq -->
     <g transform="translate(138.518737 202.72325) scale(0.096 -0.096)">
      <defs>
       <path id="DejaVuSans-66" d="M 2375 4863 
L 2375 4384 
L 1825 4384 
Q 1516 4384 1395 4259 
Q 1275 4134 1275 3809 
L 1275 3500 
L 2222 3500 
L 2222 3053 
L 1275 3053 
L 1275 0 
L 697 0 
L 697 3053 
L 147 3053 
L 147 3500 
L 697 3500 
L 697 3744 
Q 697 4328 969 4595 
Q 1241 4863 1831 4863 
L 2375 4863 
z
" transform="scale(0.015625)"/>
       <path id="DejaVuSans-72" d="M 2631 2963 
Q 2534 3019 2420 3045 
Q 2306 3072 2169 3072 
Q 1681 3072 1420 2755 
Q 1159 2438 1159 1844 
L 1159 0 
L 581 0 
L 581 3500 
L 1159 3500 
L 1159 2956 
Q 1341 3275 1631 3429 
Q 1922 3584 2338 3584 
Q 2397 3584 2469 3576 
Q 2541 3569 2628 3553 
L 2631 2963 
z
" transform="scale(0.015625)"/>
       <path id="DejaVuSans-65" d="M 3597 1894 
L 3597 1613 
L 953 1613 
Q 991 1019 1311 708 
Q 1631 397 2203 397 
Q 2534 397 2845 478 
Q 3156 559 3463 722 
L 3463 178 
Q 3153 47 2828 -22 
Q 2503 -91 2169 -91 
Q 1331 -91 842 396 
Q 353 884 353 1716 
Q 353 2575 817 3079 
Q 1281 3584 2069 3584 
Q 2775 3584 3186 3129 
Q 3597 2675 3597 1894 
z
M 3022 2063 
Q 3016 2534 2758 2815 
Q 2500 3097 2075 3097 
Q 1594 3097 1305 2825 
Q 1016 2553 972 2059 
L 3022 2063 
z
" transform="scale(0.015625)"/>
       <path id="DejaVuSans-71" d="M 947 1747 
Q 947 1113 1208 752 
Q 1469 391 1925 391 
Q 2381 391 2643 752 
Q 2906 1113 2906 1747 
Q 2906 2381 2643 2742 
Q 2381 3103 1925 3103 
Q 1469 3103 1208 2742 
Q 947 2381 947 1747 
z
M 2906 525 
Q 2725 213 2448 61 
Q 2172 -91 1784 -91 
Q 1150 -91 751 415 
Q 353 922 353 1747 
Q 353 2572 751 3078 
Q 1150 3584 1784 3584 
Q 2172 3584 2448 3432 
Q 2725 3281 2906 2969 
L 2906 3500 
L 3481 3500 
L 3481 -1331 
L 2906 -1331 
L 2906 525 
z
" transform="scale(0.015625)"/>
      </defs>
      <use xlink:href="#DejaVuSans-66"/>
      <use xlink:href="#DejaVuSans-72" x="35.205078"/>
      <use xlink:href="#DejaVuSans-65" x="74.068359"/>
      <use xlink:href="#DejaVuSans-71" x="135.591797"/>
     </g>
    </g>
   </g>
   <g id="matplotlib.axis_2">
    <g id="ytick_1">
     <g id="line2d_8">
      <defs>
       <path id="ma13cedba54" d="M 0 0 
L -4.8 0 
" style="stroke: #000000"/>
      </defs>
      <g>
       <use xlink:href="#ma13cedba54" x="53.591943" y="157.597231" style="stroke: #000000"/>
      </g>
     </g>
     <g id="text_9">
      <!-- −40 -->
      <g transform="translate(26.719818 160.940544) scale(0.088 -0.088)">
       <defs>
        <path id="DejaVuSans-2212" d="M 678 2272 
L 4684 2272 
L 4684 1741 
L 678 1741 
L 678 2272 
z
" transform="scale(0.015625)"/>
        <path id="DejaVuSans-34" d="M 2419 4116 
L 825 1625 
L 2419 1625 
L 2419 4116 
z
M 2253 4666 
L 3047 4666 
L 3047 1625 
L 3713 1625 
L 3713 1100 
L 3047 1100 
L 3047 0 
L 2419 0 
L 2419 1100 
L 313 1100 
L 313 1709 
L 2253 4666 
z
" transform="scale(0.015625)"/>
       </defs>
       <use xlink:href="#DejaVuSans-2212"/>
       <use xlink:href="#DejaVuSans-34" x="83.789062"/>
       <use xlink:href="#DejaVuSans-30" x="147.412109"/>
      </g>
     </g>
    </g>
    <g id="ytick_2">
     <g id="line2d_9">
      <g>
       <use xlink:href="#ma13cedba54" x="53.591943" y="129.88884" style="stroke: #000000"/>
      </g>
     </g>
     <g id="text_10">
      <!-- −35 -->
      <g transform="translate(26.719818 133.232153) scale(0.088 -0.088)">
       <defs>
        <path id="DejaVuSans-33" d="M 2597 2516 
Q 3050 2419 3304 2112 
Q 3559 1806 3559 1356 
Q 3559 666 3084 287 
Q 2609 -91 1734 -91 
Q 1441 -91 1130 -33 
Q 819 25 488 141 
L 488 750 
Q 750 597 1062 519 
Q 1375 441 1716 441 
Q 2309 441 2620 675 
Q 2931 909 2931 1356 
Q 2931 1769 2642 2001 
Q 2353 2234 1838 2234 
L 1294 2234 
L 1294 2753 
L 1863 2753 
Q 2328 2753 2575 2939 
Q 2822 3125 2822 3475 
Q 2822 3834 2567 4026 
Q 2313 4219 1838 4219 
Q 1578 4219 1281 4162 
Q 984 4106 628 3988 
L 628 4550 
Q 988 4650 1302 4700 
Q 1616 4750 1894 4750 
Q 2613 4750 3031 4423 
Q 3450 4097 3450 3541 
Q 3450 3153 3228 2886 
Q 3006 2619 2597 2516 
z
" transform="scale(0.015625)"/>
       </defs>
       <use xlink:href="#DejaVuSans-2212"/>
       <use xlink:href="#DejaVuSans-33" x="83.789062"/>
       <use xlink:href="#DejaVuSans-35" x="147.412109"/>
      </g>
     </g>
    </g>
    <g id="ytick_3">
     <g id="line2d_10">
      <g>
       <use xlink:href="#ma13cedba54" x="53.591943" y="102.180449" style="stroke: #000000"/>
      </g>
     </g>
     <g id="text_11">
      <!-- −30 -->
      <g transform="translate(26.719818 105.523762) scale(0.088 -0.088)">
       <use xlink:href="#DejaVuSans-2212"/>
       <use xlink:href="#DejaVuSans-33" x="83.789062"/>
       <use xlink:href="#DejaVuSans-30" x="147.412109"/>
      </g>
     </g>
    </g>
    <g id="ytick_4">
     <g id="line2d_11">
      <g>
       <use xlink:href="#ma13cedba54" x="53.591943" y="74.472058" style="stroke: #000000"/>
      </g>
     </g>
     <g id="text_12">
      <!-- −25 -->
      <g transform="translate(26.719818 77.815371) scale(0.088 -0.088)">
       <use xlink:href="#DejaVuSans-2212"/>
       <use xlink:href="#DejaVuSans-32" x="83.789062"/>
       <use xlink:href="#DejaVuSans-35" x="147.412109"/>
      </g>
     </g>
    </g>
    <g id="ytick_5">
     <g id="line2d_12">
      <g>
       <use xlink:href="#ma13cedba54" x="53.591943" y="46.763667" style="stroke: #000000"/>
      </g>
     </g>
     <g id="text_13">
      <!-- −20 -->
      <g transform="translate(26.719818 50.10698) scale(0.088 -0.088)">
       <use xlink:href="#DejaVuSans-2212"/>
       <use xlink:href="#DejaVuSans-32" x="83.789062"/>
       <use xlink:href="#DejaVuSans-30" x="147.412109"/>
      </g>
     </g>
    </g>
    <g id="text_14">
     <!-- power -->
     <g transform="translate(20.723318 113.9265) rotate(-90) scale(0.096 -0.096)">
      <defs>
       <path id="DejaVuSans-70" d="M 1159 525 
L 1159 -1331 
L 581 -1331 
L 581 3500 
L 1159 3500 
L 1159 2969 
Q 1341 3281 1617 3432 
Q 1894 3584 2278 3584 
Q 2916 3584 3314 3078 
Q 3713 2572 3713 1747 
Q 3713 922 3314 415 
Q 2916 -91 2278 -91 
Q 1894 -91 1617 61 
Q 1341 213 1159 525 
z
M 3116 1747 
Q 3116 2381 2855 2742 
Q 2594 3103 2138 3103 
Q 1681 3103 1420 2742 
Q 1159 2381 1159 1747 
Q 1159 1113 1420 752 
Q 1681 391 2138 391 
Q 2594 391 2855 752 
Q 3116 1113 3116 1747 
z
" transform="scale(0.015625)"/>
       <path id="DejaVuSans-6f" d="M 1959 3097 
Q 1497 3097 1228 2736 
Q 959 2375 959 1747 
Q 959 1119 1226 758 
Q 1494 397 1959 397 
Q 2419 397 2687 759 
Q 2956 1122 2956 1747 
Q 2956 2369 2687 2733 
Q 2419 3097 1959 3097 
z
M 1959 3584 
Q 2709 3584 3137 3096 
Q 3566 2609 3566 1747 
Q 3566 888 3137 398 
Q 2709 -91 1959 -91 
Q 1206 -91 779 398 
Q 353 888 353 1747 
Q 353 2609 779 3096 
Q 1206 3584 1959 3584 
z
" transform="scale(0.015625)"/>
       <path id="DejaVuSans-77" d="M 269 3500 
L 844 3500 
L 1563 769 
L 2278 3500 
L 2956 3500 
L 3675 769 
L 4391 3500 
L 4966 3500 
L 4050 0 
L 3372 0 
L 2619 2869 
L 1863 0 
L 1184 0 
L 269 3500 
z
" transform="scale(0.015625)"/>
      </defs>
      <use xlink:href="#DejaVuSans-70"/>
      <use xlink:href="#DejaVuSans-6f" x="63.476562"/>
      <use xlink:href="#DejaVuSans-77" x="124.658203"/>
      <use xlink:href="#DejaVuSans-65" x="206.445312"/>
      <use xlink:href="#DejaVuSans-72" x="267.96875"/>
     </g>
    </g>
   </g>
   <g id="line2d_13">
    <path d="M 62.181265 74.157486 
L 63.334194 68.984091 
L 64.487123 69.692799 
L 65.640052 67.381639 
L 66.792981 63.814201 
L 69.09884 72.366659 
L 70.251769 74.930887 
L 71.404698 76.893887 
L 72.557627 77.706853 
L 73.710556 79.310908 
L 74.863485 79.184738 
L 76.016415 77.919972 
L 77.169344 79.18533 
L 78.322273 79.256127 
L 79.475202 77.762607 
L 80.628131 79.716766 
L 81.78106 80.016903 
L 82.93399 82.691363 
L 84.086919 83.22264 
L 85.239848 83.881404 
L 86.392777 85.318 
L 87.545706 85.196537 
L 88.698635 86.737783 
L 89.851564 87.76236 
L 91.004494 88.492852 
L 92.157423 89.895065 
L 93.310352 90.32639 
L 94.463281 91.431561 
L 95.61621 90.700744 
L 96.769139 92.216421 
L 97.922069 92.277272 
L 99.074998 93.361383 
L 100.227927 92.833531 
L 101.380856 92.804366 
L 102.533785 94.637016 
L 103.686714 94.703886 
L 104.839643 94.578598 
L 105.992573 95.205233 
L 107.145502 95.606066 
L 108.298431 95.654424 
L 109.45136 97.068459 
L 110.604289 96.682838 
L 111.757218 97.724089 
L 112.910148 97.401756 
L 114.063077 98.186575 
L 115.216006 98.812026 
L 116.368935 97.642879 
L 117.521864 98.825877 
L 118.674793 98.726129 
L 119.827723 99.691518 
L 120.980652 98.959775 
L 122.133581 100.161584 
L 123.28651 100.062211 
L 124.439439 100.472846 
L 125.592368 101.032706 
L 126.745297 101.08423 
L 127.898227 101.368274 
L 129.051156 109.144378 
L 130.204085 156.50639 
L 131.357014 109.848151 
L 132.509943 102.830242 
L 133.662872 103.590913 
L 134.815802 103.066126 
L 135.968731 103.240875 
L 137.12166 103.957187 
L 138.274589 104.222913 
L 139.427518 104.642121 
L 141.733376 104.842054 
L 142.886306 105.753694 
L 144.039235 105.743865 
L 145.192164 105.614621 
L 146.345093 105.818996 
L 148.650951 105.97387 
L 149.803881 106.996526 
L 150.95681 106.87567 
L 152.109739 107.069251 
L 153.262668 106.737829 
L 155.568526 107.752099 
L 156.721456 108.016837 
L 159.027314 107.686508 
L 160.180243 108.31824 
L 161.333172 109.268243 
L 162.486101 108.690797 
L 163.63903 108.86911 
L 164.79196 108.575849 
L 165.944889 109.369401 
L 167.097818 110.364609 
L 168.250747 109.644482 
L 169.403676 110.618328 
L 170.556605 109.481909 
L 171.709535 109.884582 
L 174.015393 109.722177 
L 175.168322 111.124236 
L 176.321251 110.718662 
L 177.47418 110.753505 
L 178.627109 111.938938 
L 179.780039 110.908127 
L 180.932968 111.42408 
L 183.238826 111.766989 
L 184.391755 111.782294 
L 185.544684 111.638066 
L 186.697614 112.236851 
L 187.850543 112.107162 
L 189.003472 112.100696 
L 190.156401 112.232726 
L 191.30933 112.673825 
L 192.462259 112.844265 
L 193.615189 113.699369 
L 194.768118 113.535503 
L 195.921047 113.528396 
L 197.073976 114.114525 
L 198.226905 121.786552 
L 199.379834 165.377746 
L 200.532763 121.71439 
L 201.685693 114.531395 
L 202.838622 114.409391 
L 203.991551 114.499076 
L 205.14448 114.179498 
L 206.297409 114.935891 
L 207.450338 114.712139 
L 208.603268 114.817033 
L 209.756197 115.64664 
L 210.909126 115.89315 
L 212.062055 115.700381 
L 213.214984 114.871594 
L 214.367913 116.213881 
L 215.520842 115.561521 
L 216.673772 116.307193 
L 217.826701 115.695864 
L 218.97963 116.691233 
L 220.132559 117.425174 
L 221.285488 117.329352 
L 222.438417 117.5499 
L 223.591347 117.423502 
L 224.744276 118.358682 
L 228.203063 120.04996 
L 229.355992 121.455307 
L 230.508922 122.11988 
L 231.661851 122.655304 
L 232.81478 123.600698 
L 233.967709 125.239519 
L 233.967709 125.239519 
" clip-path="url(#pedef10d5ac)" style="fill: none; stroke: #e98d6b; stroke-width: 1.2; stroke-linecap: square"/>
   </g>
   <g id="line2d_14">
    <path d="M 62.181265 62.363547 
L 63.334194 57.110469 
L 64.487123 63.81688 
L 65.640052 66.093936 
L 66.792981 64.704708 
L 67.94591 67.802129 
L 69.09884 72.075586 
L 70.251769 72.619986 
L 72.557627 74.664174 
L 73.710556 74.241253 
L 74.863485 74.246356 
L 76.016415 75.49621 
L 77.169344 76.246063 
L 78.322273 75.763972 
L 79.475202 79.765824 
L 80.628131 77.996887 
L 81.78106 77.997907 
L 82.93399 76.698632 
L 84.086919 78.625946 
L 85.239848 78.079866 
L 86.392777 80.062468 
L 87.545706 79.694853 
L 88.698635 81.315889 
L 89.851564 79.326011 
L 91.004494 81.411839 
L 92.157423 80.96664 
L 93.310352 82.64206 
L 94.463281 82.811927 
L 95.61621 80.568785 
L 96.769139 83.968449 
L 97.922069 81.977538 
L 99.074998 84.274852 
L 100.227927 84.59682 
L 101.380856 85.325187 
L 102.533785 84.480735 
L 103.686714 85.763524 
L 104.839643 84.942448 
L 105.992573 85.953764 
L 108.298431 87.489291 
L 109.45136 87.528346 
L 110.604289 87.930205 
L 112.910148 89.703078 
L 114.063077 90.042739 
L 115.216006 90.81659 
L 116.368935 89.042282 
L 117.521864 90.684089 
L 118.674793 89.722882 
L 119.827723 91.008595 
L 120.980652 90.330144 
L 122.133581 91.339307 
L 123.28651 92.782752 
L 124.439439 92.117329 
L 125.592368 91.108275 
L 126.745297 92.1944 
L 127.898227 93.031709 
L 129.051156 100.389525 
L 130.204085 149.421231 
L 131.357014 100.166533 
L 132.509943 92.499689 
L 133.662872 95.695312 
L 134.815802 95.34929 
L 135.968731 96.53666 
L 137.12166 95.350493 
L 138.274589 95.440919 
L 139.427518 96.738931 
L 140.580447 96.565678 
L 141.733376 97.843768 
L 142.886306 96.554479 
L 144.039235 98.228734 
L 145.192164 97.220318 
L 146.345093 97.483327 
L 147.498022 99.425325 
L 148.650951 99.8236 
L 149.803881 98.010325 
L 150.95681 98.90416 
L 152.109739 98.928788 
L 153.262668 99.683829 
L 154.415597 99.774235 
L 155.568526 99.593961 
L 156.721456 100.040569 
L 159.027314 101.51989 
L 160.180243 101.14081 
L 161.333172 102.698263 
L 162.486101 101.576442 
L 163.63903 102.52137 
L 164.79196 101.958079 
L 165.944889 101.745495 
L 167.097818 104.213822 
L 168.250747 103.963566 
L 169.403676 104.67423 
L 170.556605 103.923965 
L 171.709535 103.878905 
L 172.862464 104.35821 
L 174.015393 105.740575 
L 175.168322 104.822329 
L 176.321251 104.608671 
L 177.47418 104.214117 
L 178.627109 106.681645 
L 179.780039 106.946678 
L 180.932968 106.302263 
L 182.085897 106.371841 
L 183.238826 106.185609 
L 184.391755 107.122143 
L 185.544684 106.781052 
L 187.850543 106.587114 
L 189.003472 107.750959 
L 190.156401 108.097115 
L 191.30933 107.264596 
L 192.462259 109.745388 
L 193.615189 108.324788 
L 194.768118 107.601011 
L 195.921047 108.828733 
L 197.073976 107.315661 
L 198.226905 115.93037 
L 199.379834 158.511988 
L 200.532763 117.62175 
L 201.685693 108.969934 
L 203.991551 108.547903 
L 205.14448 109.085581 
L 207.450338 110.798442 
L 208.603268 110.574938 
L 209.756197 110.004099 
L 210.909126 111.05619 
L 212.062055 110.831293 
L 213.214984 112.089153 
L 214.367913 112.167182 
L 215.520842 111.533387 
L 216.673772 111.938087 
L 217.826701 112.770345 
L 218.97963 112.152975 
L 220.132559 111.672914 
L 221.285488 112.490061 
L 222.438417 112.78876 
L 223.591347 114.018833 
L 224.744276 114.84111 
L 225.897205 113.160214 
L 227.050134 116.094289 
L 228.203063 116.194627 
L 229.355992 117.655114 
L 230.508922 117.528027 
L 231.661851 118.611275 
L 232.81478 118.965763 
L 233.967709 120.384939 
L 233.967709 120.384939 
" clip-path="url(#pedef10d5ac)" style="fill: none; stroke: #e3685c; stroke-width: 1.2; stroke-linecap: square"/>
   </g>
   <g id="line2d_15"/>
   <g id="line2d_16"/>
   <g id="patch_3">
    <path d="M 53.591943 174.612 
L 53.591943 23.568 
" style="fill: none; stroke: #000000; stroke-linejoin: miter; stroke-linecap: square"/>
   </g>
   <g id="patch_4">
    <path d="M 53.591943 174.612 
L 242.557031 174.612 
" style="fill: none; stroke: #000000; stroke-linejoin: miter; stroke-linecap: square"/>
   </g>
   <g id="text_15">
    <!-- period = interictal -->
    <g transform="translate(104.395987 17.568) scale(0.096 -0.096)">
     <defs>
      <path id="DejaVuSans-69" d="M 603 3500 
L 1178 3500 
L 1178 0 
L 603 0 
L 603 3500 
z
M 603 4863 
L 1178 4863 
L 1178 4134 
L 603 4134 
L 603 4863 
z
" transform="scale(0.015625)"/>
      <path id="DejaVuSans-64" d="M 2906 2969 
L 2906 4863 
L 3481 4863 
L 3481 0 
L 2906 0 
L 2906 525 
Q 2725 213 2448 61 
Q 2172 -91 1784 -91 
Q 1150 -91 751 415 
Q 353 922 353 1747 
Q 353 2572 751 3078 
Q 1150 3584 1784 3584 
Q 2172 3584 2448 3432 
Q 2725 3281 2906 2969 
z
M 947 1747 
Q 947 1113 1208 752 
Q 1469 391 1925 391 
Q 2381 391 2643 752 
Q 2906 1113 2906 1747 
Q 2906 2381 2643 2742 
Q 2381 3103 1925 3103 
Q 1469 3103 1208 2742 
Q 947 2381 947 1747 
z
" transform="scale(0.015625)"/>
      <path id="DejaVuSans-20" transform="scale(0.015625)"/>
      <path id="DejaVuSans-3d" d="M 678 2906 
L 4684 2906 
L 4684 2381 
L 678 2381 
L 678 2906 
z
M 678 1631 
L 4684 1631 
L 4684 1100 
L 678 1100 
L 678 1631 
z
" transform="scale(0.015625)"/>
      <path id="DejaVuSans-6e" d="M 3513 2113 
L 3513 0 
L 2938 0 
L 2938 2094 
Q 2938 2591 2744 2837 
Q 2550 3084 2163 3084 
Q 1697 3084 1428 2787 
Q 1159 2491 1159 1978 
L 1159 0 
L 581 0 
L 581 3500 
L 1159 3500 
L 1159 2956 
Q 1366 3272 1645 3428 
Q 1925 3584 2291 3584 
Q 2894 3584 3203 3211 
Q 3513 2838 3513 2113 
z
" transform="scale(0.015625)"/>
      <path id="DejaVuSans-74" d="M 1172 4494 
L 1172 3500 
L 2356 3500 
L 2356 3053 
L 1172 3053 
L 1172 1153 
Q 1172 725 1289 603 
Q 1406 481 1766 481 
L 2356 481 
L 2356 0 
L 1766 0 
Q 1100 0 847 248 
Q 594 497 594 1153 
L 594 3053 
L 172 3053 
L 172 3500 
L 594 3500 
L 594 4494 
L 1172 4494 
z
" transform="scale(0.015625)"/>
      <path id="DejaVuSans-63" d="M 3122 3366 
L 3122 2828 
Q 2878 2963 2633 3030 
Q 2388 3097 2138 3097 
Q 1578 3097 1268 2742 
Q 959 2388 959 1747 
Q 959 1106 1268 751 
Q 1578 397 2138 397 
Q 2388 397 2633 464 
Q 2878 531 3122 666 
L 3122 134 
Q 2881 22 2623 -34 
Q 2366 -91 2075 -91 
Q 1284 -91 818 406 
Q 353 903 353 1747 
Q 353 2603 823 3093 
Q 1294 3584 2113 3584 
Q 2378 3584 2631 3529 
Q 2884 3475 3122 3366 
z
" transform="scale(0.015625)"/>
      <path id="DejaVuSans-61" d="M 2194 1759 
Q 1497 1759 1228 1600 
Q 959 1441 959 1056 
Q 959 750 1161 570 
Q 1363 391 1709 391 
Q 2188 391 2477 730 
Q 2766 1069 2766 1631 
L 2766 1759 
L 2194 1759 
z
M 3341 1997 
L 3341 0 
L 2766 0 
L 2766 531 
Q 2569 213 2275 61 
Q 1981 -91 1556 -91 
Q 1019 -91 701 211 
Q 384 513 384 1019 
Q 384 1609 779 1909 
Q 1175 2209 1959 2209 
L 2766 2209 
L 2766 2266 
Q 2766 2663 2505 2880 
Q 2244 3097 1772 3097 
Q 1472 3097 1187 3025 
Q 903 2953 641 2809 
L 641 3341 
Q 956 3463 1253 3523 
Q 1550 3584 1831 3584 
Q 2591 3584 2966 3190 
Q 3341 2797 3341 1997 
z
" transform="scale(0.015625)"/>
      <path id="DejaVuSans-6c" d="M 603 4863 
L 1178 4863 
L 1178 0 
L 603 0 
L 603 4863 
z
" transform="scale(0.015625)"/>
     </defs>
     <use xlink:href="#DejaVuSans-70"/>
     <use xlink:href="#DejaVuSans-65" x="63.476562"/>
     <use xlink:href="#DejaVuSans-72" x="125"/>
     <use xlink:href="#DejaVuSans-69" x="166.113281"/>
     <use xlink:href="#DejaVuSans-6f" x="193.896484"/>
     <use xlink:href="#DejaVuSans-64" x="255.078125"/>
     <use xlink:href="#DejaVuSans-20" x="318.554688"/>
     <use xlink:href="#DejaVuSans-3d" x="350.341797"/>
     <use xlink:href="#DejaVuSans-20" x="434.130859"/>
     <use xlink:href="#DejaVuSans-69" x="465.917969"/>
     <use xlink:href="#DejaVuSans-6e" x="493.701172"/>
     <use xlink:href="#DejaVuSans-74" x="557.080078"/>
     <use xlink:href="#DejaVuSans-65" x="596.289062"/>
     <use xlink:href="#DejaVuSans-72" x="657.8125"/>
     <use xlink:href="#DejaVuSans-69" x="698.925781"/>
     <use xlink:href="#DejaVuSans-63" x="726.708984"/>
     <use xlink:href="#DejaVuSans-74" x="781.689453"/>
     <use xlink:href="#DejaVuSans-61" x="820.898438"/>
     <use xlink:href="#DejaVuSans-6c" x="882.177734"/>
    </g>
   </g>
  </g>
  <g id="axes_2">
   <g id="patch_5">
    <path d="M 257.692799 174.612 
L 446.657887 174.612 
L 446.657887 23.568 
L 257.692799 23.568 
L 257.692799 174.612 
z
" style="fill: none"/>
   </g>
   <g id="PolyCollection_3"/>
   <g id="PolyCollection_4"/>
   <g id="matplotlib.axis_3">
    <g id="xtick_8">
     <g id="line2d_17">
      <g>
       <use xlink:href="#m66ebd1b91f" x="265.129192" y="174.612" style="stroke: #000000"/>
      </g>
     </g>
     <g id="text_16">
      <!-- 0 -->
      <g transform="translate(262.329692 189.598625) scale(0.088 -0.088)">
       <use xlink:href="#DejaVuSans-30"/>
      </g>
     </g>
    </g>
    <g id="xtick_9">
     <g id="line2d_18">
      <g>
       <use xlink:href="#m66ebd1b91f" x="293.952421" y="174.612" style="stroke: #000000"/>
      </g>
     </g>
     <g id="text_17">
      <!-- 25 -->
      <g transform="translate(288.353421 189.598625) scale(0.088 -0.088)">
       <use xlink:href="#DejaVuSans-32"/>
       <use xlink:href="#DejaVuSans-35" x="63.623047"/>
      </g>
     </g>
    </g>
    <g id="xtick_10">
     <g id="line2d_19">
      <g>
       <use xlink:href="#m66ebd1b91f" x="322.77565" y="174.612" style="stroke: #000000"/>
      </g>
     </g>
     <g id="text_18">
      <!-- 50 -->
      <g transform="translate(317.17665 189.598625) scale(0.088 -0.088)">
       <use xlink:href="#DejaVuSans-35"/>
       <use xlink:href="#DejaVuSans-30" x="63.623047"/>
      </g>
     </g>
    </g>
    <g id="xtick_11">
     <g id="line2d_20">
      <g>
       <use xlink:href="#m66ebd1b91f" x="351.598879" y="174.612" style="stroke: #000000"/>
      </g>
     </g>
     <g id="text_19">
      <!-- 75 -->
      <g transform="translate(345.999879 189.598625) scale(0.088 -0.088)">
       <use xlink:href="#DejaVuSans-37"/>
       <use xlink:href="#DejaVuSans-35" x="63.623047"/>
      </g>
     </g>
    </g>
    <g id="xtick_12">
     <g id="line2d_21">
      <g>
       <use xlink:href="#m66ebd1b91f" x="380.422107" y="174.612" style="stroke: #000000"/>
      </g>
     </g>
     <g id="text_20">
      <!-- 100 -->
      <g transform="translate(372.023607 189.598625) scale(0.088 -0.088)">
       <use xlink:href="#DejaVuSans-31"/>
       <use xlink:href="#DejaVuSans-30" x="63.623047"/>
       <use xlink:href="#DejaVuSans-30" x="127.246094"/>
      </g>
     </g>
    </g>
    <g id="xtick_13">
     <g id="line2d_22">
      <g>
       <use xlink:href="#m66ebd1b91f" x="409.245336" y="174.612" style="stroke: #000000"/>
      </g>
     </g>
     <g id="text_21">
      <!-- 125 -->
      <g transform="translate(400.846836 189.598625) scale(0.088 -0.088)">
       <use xlink:href="#DejaVuSans-31"/>
       <use xlink:href="#DejaVuSans-32" x="63.623047"/>
       <use xlink:href="#DejaVuSans-35" x="127.246094"/>
      </g>
     </g>
    </g>
    <g id="xtick_14">
     <g id="line2d_23">
      <g>
       <use xlink:href="#m66ebd1b91f" x="438.068565" y="174.612" style="stroke: #000000"/>
      </g>
     </g>
     <g id="text_22">
      <!-- 150 -->
      <g transform="translate(429.670065 189.598625) scale(0.088 -0.088)">
       <use xlink:href="#DejaVuSans-31"/>
       <use xlink:href="#DejaVuSans-35" x="63.623047"/>
       <use xlink:href="#DejaVuSans-30" x="127.246094"/>
      </g>
     </g>
    </g>
    <g id="text_23">
     <!-- freq -->
     <g transform="translate(342.619593 202.72325) scale(0.096 -0.096)">
      <use xlink:href="#DejaVuSans-66"/>
      <use xlink:href="#DejaVuSans-72" x="35.205078"/>
      <use xlink:href="#DejaVuSans-65" x="74.068359"/>
      <use xlink:href="#DejaVuSans-71" x="135.591797"/>
     </g>
    </g>
   </g>
   <g id="matplotlib.axis_4">
    <g id="ytick_6">
     <g id="line2d_24">
      <g>
       <use xlink:href="#ma13cedba54" x="257.692799" y="157.597231" style="stroke: #000000"/>
      </g>
     </g>
    </g>
    <g id="ytick_7">
     <g id="line2d_25">
      <g>
       <use xlink:href="#ma13cedba54" x="257.692799" y="129.88884" style="stroke: #000000"/>
      </g>
     </g>
    </g>
    <g id="ytick_8">
     <g id="line2d_26">
      <g>
       <use xlink:href="#ma13cedba54" x="257.692799" y="102.180449" style="stroke: #000000"/>
      </g>
     </g>
    </g>
    <g id="ytick_9">
     <g id="line2d_27">
      <g>
       <use xlink:href="#ma13cedba54" x="257.692799" y="74.472058" style="stroke: #000000"/>
      </g>
     </g>
    </g>
    <g id="ytick_10">
     <g id="line2d_28">
      <g>
       <use xlink:href="#ma13cedba54" x="257.692799" y="46.763667" style="stroke: #000000"/>
      </g>
     </g>
    </g>
   </g>
   <g id="line2d_29">
    <path d="M 266.282121 71.777901 
L 267.43505 68.726907 
L 268.587979 68.755729 
L 269.740908 65.286973 
L 270.893838 63.156228 
L 272.046767 68.197084 
L 273.199696 70.266551 
L 275.505554 76.244538 
L 277.811413 77.963824 
L 280.117271 78.218867 
L 282.423129 76.339374 
L 283.576058 77.042105 
L 284.728987 78.33566 
L 285.881917 80.056269 
L 287.034846 79.184112 
L 288.187775 80.76665 
L 289.340704 82.804624 
L 290.493633 83.379958 
L 291.646562 84.773887 
L 292.799492 85.928659 
L 293.952421 86.322062 
L 295.10535 87.378474 
L 296.258279 88.247624 
L 297.411208 87.85633 
L 298.564137 89.267424 
L 299.717067 89.992394 
L 300.869996 90.508568 
L 302.022925 89.805077 
L 303.175854 90.589092 
L 304.328783 91.105665 
L 305.481712 90.690761 
L 306.634641 92.159132 
L 307.787571 93.180185 
L 308.9405 93.47432 
L 310.093429 93.051711 
L 311.246358 93.722836 
L 312.399287 93.950213 
L 313.552216 94.021817 
L 315.858075 95.022023 
L 317.011004 95.330704 
L 318.163933 95.979324 
L 319.316862 96.189435 
L 320.469791 96.729157 
L 322.77565 97.153672 
L 323.928579 97.345052 
L 325.081508 98.055714 
L 326.234437 97.956407 
L 327.387366 98.549689 
L 330.846154 99.634033 
L 331.999083 99.843329 
L 333.152012 107.754077 
L 334.304941 159.447326 
L 335.45787 108.162312 
L 336.6108 100.185518 
L 337.763729 100.871202 
L 338.916658 101.877763 
L 340.069587 101.834869 
L 342.375445 101.950698 
L 343.528374 102.330146 
L 345.834233 102.653995 
L 346.987162 103.162247 
L 348.140091 103.193294 
L 349.29302 103.395925 
L 350.445949 104.038846 
L 351.598879 103.59809 
L 352.751808 104.38653 
L 353.904737 104.463012 
L 355.057666 104.324907 
L 356.210595 103.760146 
L 357.363524 104.85796 
L 358.516453 105.641104 
L 359.669383 105.224525 
L 360.822312 105.509463 
L 361.975241 105.639365 
L 363.12817 105.883367 
L 364.281099 105.958236 
L 365.434028 106.524879 
L 366.586958 105.77584 
L 367.739887 106.28229 
L 368.892816 107.034838 
L 370.045745 107.15973 
L 371.198674 107.666351 
L 372.351603 106.889302 
L 373.504533 107.442761 
L 374.657462 107.19905 
L 376.96332 107.807678 
L 378.116249 108.032367 
L 379.269178 108.010258 
L 380.422107 109.021224 
L 381.575037 108.074993 
L 382.727966 108.792622 
L 383.880895 108.749627 
L 385.033824 108.415216 
L 386.186753 108.650919 
L 387.339682 109.837279 
L 388.492612 110.237955 
L 389.645541 109.601766 
L 390.79847 110.319653 
L 391.951399 110.055246 
L 393.104328 110.469192 
L 394.257257 111.099043 
L 395.410186 110.653361 
L 396.563116 111.148349 
L 397.716045 110.68933 
L 398.868974 110.728532 
L 400.021903 111.088042 
L 401.174832 111.670626 
L 402.327761 118.451487 
L 403.480691 167.251179 
L 404.63362 118.914819 
L 405.786549 111.664313 
L 406.939478 111.289694 
L 408.092407 112.261869 
L 409.245336 111.921376 
L 410.398266 112.369272 
L 411.551195 112.469272 
L 412.704124 112.443117 
L 415.009982 112.843799 
L 416.162911 112.619687 
L 417.31584 113.234609 
L 418.46877 112.968921 
L 419.621699 113.802596 
L 423.080486 114.052799 
L 424.233415 113.722623 
L 425.386345 114.02894 
L 426.539274 115.166034 
L 427.692203 115.775542 
L 428.845132 115.902114 
L 429.998061 115.90033 
L 431.15099 116.619729 
L 432.303919 117.829937 
L 433.456849 118.052101 
L 434.609778 118.960524 
L 435.762707 120.061181 
L 436.915636 121.530585 
L 438.068565 121.857584 
L 438.068565 121.857584 
" clip-path="url(#p6e715e2536)" style="fill: none; stroke: #e98d6b; stroke-width: 1.2; stroke-linecap: square"/>
   </g>
   <g id="line2d_30">
    <path d="M 266.282121 62.66763 
L 267.43505 60.573121 
L 268.587979 62.780479 
L 269.740908 61.674878 
L 270.893838 64.142655 
L 272.046767 69.39919 
L 273.199696 71.352386 
L 275.505554 74.927804 
L 276.658483 75.360707 
L 277.811413 75.231275 
L 278.964342 75.593416 
L 280.117271 77.598042 
L 281.2702 77.377079 
L 282.423129 78.483576 
L 283.576058 76.579655 
L 284.728987 80.378295 
L 285.881917 77.98528 
L 287.034846 79.758503 
L 288.187775 79.31753 
L 289.340704 81.71805 
L 290.493633 81.25912 
L 291.646562 83.05695 
L 292.799492 82.605917 
L 293.952421 82.599629 
L 295.10535 83.80083 
L 296.258279 81.775005 
L 297.411208 83.787526 
L 298.564137 84.465839 
L 299.717067 85.836291 
L 300.869996 85.124884 
L 302.022925 85.499901 
L 303.175854 85.556739 
L 304.328783 86.860622 
L 305.481712 87.412061 
L 306.634641 87.33866 
L 307.787571 86.976552 
L 308.9405 88.714911 
L 310.093429 88.810603 
L 311.246358 91.008149 
L 312.399287 88.756601 
L 313.552216 91.103693 
L 314.705146 90.589989 
L 315.858075 89.907206 
L 317.011004 91.044316 
L 318.163933 89.89078 
L 319.316862 91.786985 
L 320.469791 91.563534 
L 321.62272 91.208205 
L 322.77565 91.99444 
L 323.928579 91.329967 
L 325.081508 92.95838 
L 326.234437 93.169132 
L 327.387366 93.179475 
L 328.540295 93.778171 
L 329.693225 93.58617 
L 330.846154 94.837984 
L 331.999083 93.54418 
L 333.152012 101.917383 
L 334.304941 157.416321 
L 335.45787 103.626391 
L 336.6108 95.802206 
L 337.763729 95.607127 
L 338.916658 95.537291 
L 340.069587 95.977039 
L 341.222516 96.948085 
L 342.375445 95.899273 
L 343.528374 96.745753 
L 344.681304 97.861238 
L 345.834233 98.054746 
L 346.987162 97.472309 
L 348.140091 97.389261 
L 349.29302 98.521605 
L 350.445949 99.497794 
L 351.598879 98.903966 
L 352.751808 99.217618 
L 355.057666 100.411742 
L 356.210595 100.59361 
L 357.363524 101.25004 
L 358.516453 99.657597 
L 359.669383 102.170465 
L 360.822312 101.641092 
L 361.975241 102.656355 
L 363.12817 102.049284 
L 364.281099 101.910618 
L 365.434028 102.310254 
L 366.586958 102.963598 
L 367.739887 102.794252 
L 371.198674 104.074737 
L 372.351603 103.806252 
L 373.504533 103.323368 
L 374.657462 104.722217 
L 375.810391 104.189664 
L 376.96332 106.478556 
L 378.116249 104.900957 
L 379.269178 105.105647 
L 380.422107 105.819485 
L 381.575037 105.607654 
L 382.727966 106.674722 
L 383.880895 105.145295 
L 385.033824 105.348989 
L 386.186753 105.838811 
L 387.339682 106.947202 
L 388.492612 106.879802 
L 389.645541 106.501245 
L 390.79847 107.416475 
L 391.951399 107.753401 
L 393.104328 108.787702 
L 394.257257 109.163041 
L 395.410186 108.989958 
L 397.716045 109.879053 
L 398.868974 108.526624 
L 400.021903 109.362038 
L 401.174832 109.471855 
L 402.327761 116.473789 
L 403.480691 167.746364 
L 404.63362 117.398853 
L 405.786549 111.180449 
L 406.939478 109.754953 
L 408.092407 109.736002 
L 409.245336 110.289541 
L 410.398266 110.127486 
L 411.551195 110.981404 
L 412.704124 111.389499 
L 413.857053 110.446069 
L 415.009982 112.316063 
L 416.162911 111.550932 
L 417.31584 111.488409 
L 419.621699 113.29173 
L 420.774628 111.351723 
L 421.927557 112.225923 
L 423.080486 113.75742 
L 424.233415 114.461448 
L 425.386345 113.345678 
L 426.539274 114.507031 
L 427.692203 114.188407 
L 428.845132 115.63368 
L 429.998061 115.437047 
L 431.15099 115.853491 
L 432.303919 117.116981 
L 433.456849 117.646053 
L 434.609778 117.644586 
L 435.762707 117.855014 
L 436.915636 120.881692 
L 438.068565 121.909346 
L 438.068565 121.909346 
" clip-path="url(#p6e715e2536)" style="fill: none; stroke: #e3685c; stroke-width: 1.2; stroke-linecap: square"/>
   </g>
   <g id="line2d_31"/>
   <g id="line2d_32"/>
   <g id="patch_6">
    <path d="M 257.692799 174.612 
L 257.692799 23.568 
" style="fill: none; stroke: #000000; stroke-linejoin: miter; stroke-linecap: square"/>
   </g>
   <g id="patch_7">
    <path d="M 257.692799 174.612 
L 446.657887 174.612 
" style="fill: none; stroke: #000000; stroke-linejoin: miter; stroke-linecap: square"/>
   </g>
   <g id="text_24">
    <!-- period = pre -->
    <g transform="translate(321.944343 17.568) scale(0.096 -0.096)">
     <use xlink:href="#DejaVuSans-70"/>
     <use xlink:href="#DejaVuSans-65" x="63.476562"/>
     <use xlink:href="#DejaVuSans-72" x="125"/>
     <use xlink:href="#DejaVuSans-69" x="166.113281"/>
     <use xlink:href="#DejaVuSans-6f" x="193.896484"/>
     <use xlink:href="#DejaVuSans-64" x="255.078125"/>
     <use xlink:href="#DejaVuSans-20" x="318.554688"/>
     <use xlink:href="#DejaVuSans-3d" x="350.341797"/>
     <use xlink:href="#DejaVuSans-20" x="434.130859"/>
     <use xlink:href="#DejaVuSans-70" x="465.917969"/>
     <use xlink:href="#DejaVuSans-72" x="529.394531"/>
     <use xlink:href="#DejaVuSans-65" x="568.257812"/>
    </g>
   </g>
  </g>
  <g id="axes_3">
   <g id="patch_8">
    <path d="M 461.793655 174.612 
L 650.758744 174.612 
L 650.758744 23.568 
L 461.793655 23.568 
L 461.793655 174.612 
z
" style="fill: none"/>
   </g>
   <g id="PolyCollection_5"/>
   <g id="PolyCollection_6"/>
   <g id="matplotlib.axis_5">
    <g id="xtick_15">
     <g id="line2d_33">
      <g>
       <use xlink:href="#m66ebd1b91f" x="469.230048" y="174.612" style="stroke: #000000"/>
      </g>
     </g>
     <g id="text_25">
      <!-- 0 -->
      <g transform="translate(466.430548 189.598625) scale(0.088 -0.088)">
       <use xlink:href="#DejaVuSans-30"/>
      </g>
     </g>
    </g>
    <g id="xtick_16">
     <g id="line2d_34">
      <g>
       <use xlink:href="#m66ebd1b91f" x="498.053277" y="174.612" style="stroke: #000000"/>
      </g>
     </g>
     <g id="text_26">
      <!-- 25 -->
      <g transform="translate(492.454277 189.598625) scale(0.088 -0.088)">
       <use xlink:href="#DejaVuSans-32"/>
       <use xlink:href="#DejaVuSans-35" x="63.623047"/>
      </g>
     </g>
    </g>
    <g id="xtick_17">
     <g id="line2d_35">
      <g>
       <use xlink:href="#m66ebd1b91f" x="526.876506" y="174.612" style="stroke: #000000"/>
      </g>
     </g>
     <g id="text_27">
      <!-- 50 -->
      <g transform="translate(521.277506 189.598625) scale(0.088 -0.088)">
       <use xlink:href="#DejaVuSans-35"/>
       <use xlink:href="#DejaVuSans-30" x="63.623047"/>
      </g>
     </g>
    </g>
    <g id="xtick_18">
     <g id="line2d_36">
      <g>
       <use xlink:href="#m66ebd1b91f" x="555.699735" y="174.612" style="stroke: #000000"/>
      </g>
     </g>
     <g id="text_28">
      <!-- 75 -->
      <g transform="translate(550.100735 189.598625) scale(0.088 -0.088)">
       <use xlink:href="#DejaVuSans-37"/>
       <use xlink:href="#DejaVuSans-35" x="63.623047"/>
      </g>
     </g>
    </g>
    <g id="xtick_19">
     <g id="line2d_37">
      <g>
       <use xlink:href="#m66ebd1b91f" x="584.522964" y="174.612" style="stroke: #000000"/>
      </g>
     </g>
     <g id="text_29">
      <!-- 100 -->
      <g transform="translate(576.124464 189.598625) scale(0.088 -0.088)">
       <use xlink:href="#DejaVuSans-31"/>
       <use xlink:href="#DejaVuSans-30" x="63.623047"/>
       <use xlink:href="#DejaVuSans-30" x="127.246094"/>
      </g>
     </g>
    </g>
    <g id="xtick_20">
     <g id="line2d_38">
      <g>
       <use xlink:href="#m66ebd1b91f" x="613.346193" y="174.612" style="stroke: #000000"/>
      </g>
     </g>
     <g id="text_30">
      <!-- 125 -->
      <g transform="translate(604.947693 189.598625) scale(0.088 -0.088)">
       <use xlink:href="#DejaVuSans-31"/>
       <use xlink:href="#DejaVuSans-32" x="63.623047"/>
       <use xlink:href="#DejaVuSans-35" x="127.246094"/>
      </g>
     </g>
    </g>
    <g id="xtick_21">
     <g id="line2d_39">
      <g>
       <use xlink:href="#m66ebd1b91f" x="642.169422" y="174.612" style="stroke: #000000"/>
      </g>
     </g>
     <g id="text_31">
      <!-- 150 -->
      <g transform="translate(633.770922 189.598625) scale(0.088 -0.088)">
       <use xlink:href="#DejaVuSans-31"/>
       <use xlink:href="#DejaVuSans-35" x="63.623047"/>
       <use xlink:href="#DejaVuSans-30" x="127.246094"/>
      </g>
     </g>
    </g>
    <g id="text_32">
     <!-- freq -->
     <g transform="translate(546.720449 202.72325) scale(0.096 -0.096)">
      <use xlink:href="#DejaVuSans-66"/>
      <use xlink:href="#DejaVuSans-72" x="35.205078"/>
      <use xlink:href="#DejaVuSans-65" x="74.068359"/>
      <use xlink:href="#DejaVuSans-71" x="135.591797"/>
     </g>
    </g>
   </g>
   <g id="matplotlib.axis_6">
    <g id="ytick_11">
     <g id="line2d_40">
      <g>
       <use xlink:href="#ma13cedba54" x="461.793655" y="157.597231" style="stroke: #000000"/>
      </g>
     </g>
    </g>
    <g id="ytick_12">
     <g id="line2d_41">
      <g>
       <use xlink:href="#ma13cedba54" x="461.793655" y="129.88884" style="stroke: #000000"/>
      </g>
     </g>
    </g>
    <g id="ytick_13">
     <g id="line2d_42">
      <g>
       <use xlink:href="#ma13cedba54" x="461.793655" y="102.180449" style="stroke: #000000"/>
      </g>
     </g>
    </g>
    <g id="ytick_14">
     <g id="line2d_43">
      <g>
       <use xlink:href="#ma13cedba54" x="461.793655" y="74.472058" style="stroke: #000000"/>
      </g>
     </g>
    </g>
    <g id="ytick_15">
     <g id="line2d_44">
      <g>
       <use xlink:href="#ma13cedba54" x="461.793655" y="46.763667" style="stroke: #000000"/>
      </g>
     </g>
    </g>
   </g>
   <g id="line2d_45">
    <path d="M 470.382977 61.089626 
L 471.535906 53.55448 
L 472.688836 51.272702 
L 473.841765 54.372154 
L 474.994694 47.780729 
L 476.147623 44.205356 
L 478.453481 55.842914 
L 479.60641 58.030753 
L 480.75934 57.269485 
L 481.912269 59.934496 
L 483.065198 54.390573 
L 484.218127 60.58311 
L 485.371056 60.648034 
L 486.523985 63.237301 
L 487.676915 64.225881 
L 488.829844 63.160798 
L 489.982773 64.763403 
L 491.135702 64.917201 
L 492.288631 67.732845 
L 493.44156 67.70003 
L 494.59449 68.773082 
L 495.747419 69.563138 
L 496.900348 71.254191 
L 498.053277 71.291918 
L 499.206206 72.844407 
L 500.359135 72.864808 
L 501.512064 72.412649 
L 502.664994 74.52428 
L 503.817923 74.944506 
L 504.970852 76.428435 
L 506.123781 76.92409 
L 507.27671 76.825122 
L 508.429639 77.882132 
L 511.888427 80.302132 
L 513.041356 81.582491 
L 514.194285 82.664046 
L 515.347214 82.139398 
L 516.500143 82.225248 
L 518.806002 83.470768 
L 519.958931 84.40228 
L 521.11186 84.434931 
L 522.264789 85.734759 
L 523.417718 84.821626 
L 524.570648 86.581776 
L 525.723577 86.943998 
L 526.876506 86.597245 
L 528.029435 88.000471 
L 529.182364 87.904117 
L 530.335293 89.150491 
L 531.488223 88.794258 
L 532.641152 89.709688 
L 533.794081 89.251329 
L 534.94701 89.558871 
L 536.099939 90.217029 
L 537.252868 98.734302 
L 538.405797 133.753257 
L 539.558727 99.575605 
L 540.711656 91.950734 
L 543.017514 92.596099 
L 544.170443 93.569608 
L 545.323372 93.782796 
L 546.476302 93.829878 
L 547.629231 95.055168 
L 549.935089 95.674258 
L 551.088018 95.005093 
L 552.240947 95.543469 
L 553.393876 96.334556 
L 554.546806 96.259363 
L 555.699735 97.365283 
L 556.852664 96.313773 
L 558.005593 97.826661 
L 559.158522 97.73171 
L 560.311451 97.028958 
L 561.464381 99.491618 
L 562.61731 98.258893 
L 564.923168 97.605557 
L 566.076097 98.089491 
L 567.229026 98.718327 
L 568.381956 99.5051 
L 569.534885 98.712933 
L 570.687814 100.31022 
L 571.840743 99.928042 
L 572.993672 100.451947 
L 575.29953 100.387882 
L 576.45246 101.763507 
L 577.605389 101.583488 
L 578.758318 102.082743 
L 579.911247 102.810654 
L 581.064176 102.927841 
L 583.370035 102.4268 
L 584.522964 103.592599 
L 585.675893 103.979763 
L 586.828822 102.859304 
L 587.981751 103.214636 
L 589.13468 104.286947 
L 590.287609 104.842505 
L 591.440539 103.923801 
L 592.593468 104.301168 
L 593.746397 104.848017 
L 594.899326 105.079275 
L 596.052255 104.731537 
L 597.205184 105.465543 
L 598.358114 105.69572 
L 599.511043 105.112497 
L 601.816901 105.664296 
L 602.96983 106.671521 
L 604.122759 106.118396 
L 605.275689 106.975797 
L 606.428618 114.339016 
L 607.581547 142.778559 
L 608.734476 114.454389 
L 609.887405 107.431517 
L 611.040334 107.735136 
L 613.346193 107.908549 
L 614.499122 108.259066 
L 615.652051 108.46349 
L 616.80498 108.223851 
L 617.957909 108.987369 
L 619.110838 108.045175 
L 620.263768 109.48145 
L 621.416697 109.542213 
L 622.569626 110.205745 
L 624.875484 110.276366 
L 626.028413 109.503678 
L 627.181342 111.188428 
L 628.334272 110.867256 
L 629.487201 111.592139 
L 630.64013 112.100206 
L 631.793059 112.036227 
L 632.945988 113.078476 
L 634.098917 113.417193 
L 635.251847 113.914737 
L 636.404776 114.798965 
L 637.557705 115.491728 
L 638.710634 115.817234 
L 639.863563 117.092495 
L 641.016492 118.081875 
L 642.169422 118.594749 
L 642.169422 118.594749 
" clip-path="url(#p40f8b91b6e)" style="fill: none; stroke: #e98d6b; stroke-width: 1.2; stroke-linecap: square"/>
   </g>
   <g id="line2d_46">
    <path d="M 470.382977 62.011973 
L 471.535906 51.47049 
L 472.688836 47.898097 
L 473.841765 48.102714 
L 474.994694 38.147181 
L 476.147623 30.433636 
L 477.300552 44.662366 
L 479.60641 49.512136 
L 480.75934 47.518889 
L 481.912269 46.773353 
L 483.065198 39.074129 
L 484.218127 50.681015 
L 485.371056 48.431233 
L 486.523985 50.701121 
L 487.676915 49.637395 
L 488.829844 51.503103 
L 489.982773 49.642955 
L 491.135702 55.757567 
L 492.288631 53.985898 
L 493.44156 57.114692 
L 494.59449 56.865624 
L 495.747419 55.614252 
L 496.900348 57.123209 
L 498.053277 60.52018 
L 499.206206 59.960886 
L 500.359135 60.100789 
L 501.512064 59.449487 
L 502.664994 59.719855 
L 503.817923 58.683075 
L 504.970852 61.988131 
L 506.123781 61.290806 
L 507.27671 60.886533 
L 508.429639 63.510981 
L 509.582569 63.816516 
L 510.735498 64.506272 
L 511.888427 66.088725 
L 513.041356 68.080214 
L 514.194285 67.347378 
L 515.347214 69.688515 
L 516.500143 68.441465 
L 517.653073 69.004954 
L 518.806002 69.435007 
L 519.958931 69.101764 
L 521.11186 70.059019 
L 522.264789 71.399899 
L 523.417718 71.679209 
L 524.570648 72.632964 
L 525.723577 73.144472 
L 526.876506 72.20851 
L 528.029435 74.854137 
L 529.182364 73.657323 
L 530.335293 73.797883 
L 531.488223 75.050073 
L 532.641152 74.059906 
L 533.794081 76.210549 
L 534.94701 75.631142 
L 536.099939 76.126015 
L 537.252868 85.715949 
L 538.405797 124.881371 
L 539.558727 84.613989 
L 540.711656 77.660307 
L 541.864585 77.419854 
L 543.017514 79.272252 
L 544.170443 79.361404 
L 545.323372 78.816969 
L 546.476302 78.863792 
L 547.629231 82.040216 
L 548.78216 80.195107 
L 549.935089 81.024122 
L 551.088018 81.302881 
L 552.240947 82.383325 
L 553.393876 81.925041 
L 554.546806 82.152801 
L 555.699735 81.879285 
L 556.852664 82.304822 
L 558.005593 83.174239 
L 559.158522 82.158986 
L 560.311451 82.825368 
L 562.61731 82.967648 
L 563.770239 83.659583 
L 564.923168 84.662394 
L 566.076097 84.316886 
L 567.229026 85.082986 
L 568.381956 84.391056 
L 569.534885 84.133234 
L 570.687814 85.187783 
L 571.840743 85.981975 
L 572.993672 86.258226 
L 575.29953 86.207678 
L 576.45246 85.222134 
L 577.605389 88.440159 
L 578.758318 86.681119 
L 579.911247 87.322601 
L 581.064176 88.306828 
L 582.217105 87.484913 
L 583.370035 87.993071 
L 584.522964 90.05538 
L 585.675893 87.969095 
L 589.13468 90.273087 
L 590.287609 90.456052 
L 591.440539 89.503832 
L 592.593468 90.153596 
L 593.746397 89.045146 
L 594.899326 91.717421 
L 596.052255 92.388467 
L 597.205184 90.73233 
L 598.358114 92.307319 
L 599.511043 91.701049 
L 600.663972 91.244389 
L 601.816901 90.138731 
L 602.96983 91.939327 
L 604.122759 90.428133 
L 605.275689 93.452948 
L 606.428618 100.151337 
L 607.581547 135.028396 
L 608.734476 101.96103 
L 609.887405 93.505504 
L 611.040334 92.836185 
L 612.193263 94.464392 
L 613.346193 94.380102 
L 614.499122 93.843742 
L 615.652051 95.113103 
L 616.80498 95.337604 
L 617.957909 95.32324 
L 619.110838 95.197043 
L 620.263768 93.805684 
L 621.416697 97.126308 
L 622.569626 94.705759 
L 623.722555 96.660032 
L 624.875484 95.179929 
L 626.028413 96.786005 
L 627.181342 97.41531 
L 628.334272 97.10082 
L 629.487201 97.350065 
L 630.64013 97.804996 
L 631.793059 97.098943 
L 632.945988 98.394902 
L 634.098917 98.443416 
L 635.251847 98.746678 
L 636.404776 99.379622 
L 637.557705 100.542856 
L 638.710634 102.285574 
L 639.863563 102.121697 
L 641.016492 102.597113 
L 642.169422 103.348964 
L 642.169422 103.348964 
" clip-path="url(#p40f8b91b6e)" style="fill: none; stroke: #e3685c; stroke-width: 1.2; stroke-linecap: square"/>
   </g>
   <g id="line2d_47"/>
   <g id="line2d_48"/>
   <g id="patch_9">
    <path d="M 461.793655 174.612 
L 461.793655 23.568 
" style="fill: none; stroke: #000000; stroke-linejoin: miter; stroke-linecap: square"/>
   </g>
   <g id="patch_10">
    <path d="M 461.793655 174.612 
L 650.758744 174.612 
" style="fill: none; stroke: #000000; stroke-linejoin: miter; stroke-linecap: square"/>
   </g>
   <g id="text_33">
    <!-- period = ictal -->
    <g transform="translate(523.781699 17.568) scale(0.096 -0.096)">
     <use xlink:href="#DejaVuSans-70"/>
     <use xlink:href="#DejaVuSans-65" x="63.476562"/>
     <use xlink:href="#DejaVuSans-72" x="125"/>
     <use xlink:href="#DejaVuSans-69" x="166.113281"/>
     <use xlink:href="#DejaVuSans-6f" x="193.896484"/>
     <use xlink:href="#DejaVuSans-64" x="255.078125"/>
     <use xlink:href="#DejaVuSans-20" x="318.554688"/>
     <use xlink:href="#DejaVuSans-3d" x="350.341797"/>
     <use xlink:href="#DejaVuSans-20" x="434.130859"/>
     <use xlink:href="#DejaVuSans-69" x="465.917969"/>
     <use xlink:href="#DejaVuSans-63" x="493.701172"/>
     <use xlink:href="#DejaVuSans-74" x="548.681641"/>
     <use xlink:href="#DejaVuSans-61" x="587.890625"/>
     <use xlink:href="#DejaVuSans-6c" x="649.169922"/>
    </g>
   </g>
  </g>
  <g id="axes_4">
   <g id="patch_11">
    <path d="M 665.894511 174.612 
L 854.8596 174.612 
L 854.8596 23.568 
L 665.894511 23.568 
L 665.894511 174.612 
z
" style="fill: none"/>
   </g>
   <g id="PolyCollection_7"/>
   <g id="PolyCollection_8"/>
   <g id="matplotlib.axis_7">
    <g id="xtick_22">
     <g id="line2d_49">
      <g>
       <use xlink:href="#m66ebd1b91f" x="673.330904" y="174.612" style="stroke: #000000"/>
      </g>
     </g>
     <g id="text_34">
      <!-- 0 -->
      <g transform="translate(670.531404 189.598625) scale(0.088 -0.088)">
       <use xlink:href="#DejaVuSans-30"/>
      </g>
     </g>
    </g>
    <g id="xtick_23">
     <g id="line2d_50">
      <g>
       <use xlink:href="#m66ebd1b91f" x="702.154133" y="174.612" style="stroke: #000000"/>
      </g>
     </g>
     <g id="text_35">
      <!-- 25 -->
      <g transform="translate(696.555133 189.598625) scale(0.088 -0.088)">
       <use xlink:href="#DejaVuSans-32"/>
       <use xlink:href="#DejaVuSans-35" x="63.623047"/>
      </g>
     </g>
    </g>
    <g id="xtick_24">
     <g id="line2d_51">
      <g>
       <use xlink:href="#m66ebd1b91f" x="730.977362" y="174.612" style="stroke: #000000"/>
      </g>
     </g>
     <g id="text_36">
      <!-- 50 -->
      <g transform="translate(725.378362 189.598625) scale(0.088 -0.088)">
       <use xlink:href="#DejaVuSans-35"/>
       <use xlink:href="#DejaVuSans-30" x="63.623047"/>
      </g>
     </g>
    </g>
    <g id="xtick_25">
     <g id="line2d_52">
      <g>
       <use xlink:href="#m66ebd1b91f" x="759.800591" y="174.612" style="stroke: #000000"/>
      </g>
     </g>
     <g id="text_37">
      <!-- 75 -->
      <g transform="translate(754.201591 189.598625) scale(0.088 -0.088)">
       <use xlink:href="#DejaVuSans-37"/>
       <use xlink:href="#DejaVuSans-35" x="63.623047"/>
      </g>
     </g>
    </g>
    <g id="xtick_26">
     <g id="line2d_53">
      <g>
       <use xlink:href="#m66ebd1b91f" x="788.62382" y="174.612" style="stroke: #000000"/>
      </g>
     </g>
     <g id="text_38">
      <!-- 100 -->
      <g transform="translate(780.22532 189.598625) scale(0.088 -0.088)">
       <use xlink:href="#DejaVuSans-31"/>
       <use xlink:href="#DejaVuSans-30" x="63.623047"/>
       <use xlink:href="#DejaVuSans-30" x="127.246094"/>
      </g>
     </g>
    </g>
    <g id="xtick_27">
     <g id="line2d_54">
      <g>
       <use xlink:href="#m66ebd1b91f" x="817.447049" y="174.612" style="stroke: #000000"/>
      </g>
     </g>
     <g id="text_39">
      <!-- 125 -->
      <g transform="translate(809.048549 189.598625) scale(0.088 -0.088)">
       <use xlink:href="#DejaVuSans-31"/>
       <use xlink:href="#DejaVuSans-32" x="63.623047"/>
       <use xlink:href="#DejaVuSans-35" x="127.246094"/>
      </g>
     </g>
    </g>
    <g id="xtick_28">
     <g id="line2d_55">
      <g>
       <use xlink:href="#m66ebd1b91f" x="846.270278" y="174.612" style="stroke: #000000"/>
      </g>
     </g>
     <g id="text_40">
      <!-- 150 -->
      <g transform="translate(837.871778 189.598625) scale(0.088 -0.088)">
       <use xlink:href="#DejaVuSans-31"/>
       <use xlink:href="#DejaVuSans-35" x="63.623047"/>
       <use xlink:href="#DejaVuSans-30" x="127.246094"/>
      </g>
     </g>
    </g>
    <g id="text_41">
     <!-- freq -->
     <g transform="translate(750.821306 202.72325) scale(0.096 -0.096)">
      <use xlink:href="#DejaVuSans-66"/>
      <use xlink:href="#DejaVuSans-72" x="35.205078"/>
      <use xlink:href="#DejaVuSans-65" x="74.068359"/>
      <use xlink:href="#DejaVuSans-71" x="135.591797"/>
     </g>
    </g>
   </g>
   <g id="matplotlib.axis_8">
    <g id="ytick_16">
     <g id="line2d_56">
      <g>
       <use xlink:href="#ma13cedba54" x="665.894511" y="157.597231" style="stroke: #000000"/>
      </g>
     </g>
    </g>
    <g id="ytick_17">
     <g id="line2d_57">
      <g>
       <use xlink:href="#ma13cedba54" x="665.894511" y="129.88884" style="stroke: #000000"/>
      </g>
     </g>
    </g>
    <g id="ytick_18">
     <g id="line2d_58">
      <g>
       <use xlink:href="#ma13cedba54" x="665.894511" y="102.180449" style="stroke: #000000"/>
      </g>
     </g>
    </g>
    <g id="ytick_19">
     <g id="line2d_59">
      <g>
       <use xlink:href="#ma13cedba54" x="665.894511" y="74.472058" style="stroke: #000000"/>
      </g>
     </g>
    </g>
    <g id="ytick_20">
     <g id="line2d_60">
      <g>
       <use xlink:href="#ma13cedba54" x="665.894511" y="46.763667" style="stroke: #000000"/>
      </g>
     </g>
    </g>
   </g>
   <g id="line2d_61">
    <path d="M 674.483834 57.883586 
L 675.636763 57.293814 
L 676.789692 61.33954 
L 677.942621 62.336745 
L 680.248479 70.052935 
L 681.401408 73.020846 
L 682.554338 74.720917 
L 683.707267 77.961278 
L 684.860196 80.211375 
L 686.013125 80.719558 
L 687.166054 82.122313 
L 688.318983 83.746604 
L 689.471913 84.273967 
L 690.624842 85.438805 
L 691.777771 85.602211 
L 692.9307 86.441504 
L 694.083629 87.731128 
L 695.236558 87.91121 
L 696.389487 88.305503 
L 698.695346 89.598938 
L 699.848275 90.139363 
L 701.001204 91.461507 
L 702.154133 91.162982 
L 703.307062 92.00052 
L 704.459992 92.156873 
L 705.612921 92.800212 
L 707.918779 93.545602 
L 711.377567 95.676252 
L 712.530496 94.956829 
L 715.989283 96.563959 
L 717.142212 96.453792 
L 718.295141 97.493821 
L 720.601 97.589329 
L 721.753929 98.147126 
L 722.906858 98.239227 
L 724.059787 98.738451 
L 725.212716 99.80923 
L 726.365646 98.85195 
L 728.671504 100.816807 
L 729.824433 100.188459 
L 730.977362 100.71268 
L 732.130291 100.94221 
L 733.28322 101.327566 
L 734.43615 101.852999 
L 735.589079 101.541845 
L 736.742008 102.237502 
L 737.894937 101.606311 
L 739.047866 102.434955 
L 740.200795 102.719411 
L 741.353725 110.821918 
L 742.506654 156.13121 
L 743.659583 110.633993 
L 744.812512 104.698882 
L 745.965441 104.399649 
L 747.11837 103.983414 
L 748.2713 104.875294 
L 749.424229 104.39781 
L 751.730087 105.611438 
L 752.883016 105.413795 
L 754.035945 105.351585 
L 755.188874 105.964988 
L 756.341804 106.18183 
L 757.494733 106.224137 
L 758.647662 106.479478 
L 759.800591 105.84185 
L 762.106449 107.485037 
L 763.259379 106.612985 
L 764.412308 106.657224 
L 765.565237 107.414803 
L 766.718166 106.92546 
L 767.871095 107.278129 
L 769.024024 107.812289 
L 770.176953 107.628722 
L 771.329883 108.446055 
L 773.635741 108.856389 
L 774.78867 109.131393 
L 777.094528 108.51024 
L 779.400387 109.514203 
L 780.553316 109.570276 
L 781.706245 109.923905 
L 784.012103 109.689602 
L 785.165033 109.756668 
L 786.317962 110.433448 
L 788.62382 110.957427 
L 789.776749 111.528667 
L 790.929678 111.308203 
L 792.082607 111.424713 
L 793.235537 111.268967 
L 794.388466 112.041016 
L 795.541395 111.064044 
L 796.694324 111.467668 
L 797.847253 112.588337 
L 799.000182 111.759947 
L 800.153112 112.813544 
L 801.306041 113.13524 
L 802.45897 112.984991 
L 803.611899 112.597545 
L 804.764828 112.436289 
L 805.917757 113.683192 
L 807.070686 112.950013 
L 808.223616 113.226728 
L 809.376545 114.032738 
L 810.529474 120.709294 
L 811.682403 164.036963 
L 812.835332 121.904594 
L 813.988261 113.973763 
L 815.141191 114.287876 
L 816.29412 113.824202 
L 817.447049 114.417925 
L 818.599978 114.59843 
L 819.752907 113.866601 
L 822.058766 114.695702 
L 823.211695 114.637705 
L 824.364624 115.295105 
L 825.517553 115.174937 
L 826.670482 114.845457 
L 827.823411 115.368562 
L 828.97634 115.387839 
L 831.282199 116.354567 
L 832.435128 115.888157 
L 833.588057 116.59937 
L 834.740986 117.570267 
L 835.893915 117.066918 
L 837.046845 118.035488 
L 838.199774 118.360712 
L 839.352703 119.24348 
L 840.505632 119.716262 
L 841.658561 119.58162 
L 843.964419 121.182966 
L 845.117349 123.546446 
L 846.270278 123.909344 
L 846.270278 123.909344 
" clip-path="url(#pd343c34a96)" style="fill: none; stroke: #e98d6b; stroke-width: 1.2; stroke-linecap: square"/>
   </g>
   <g id="line2d_62">
    <path d="M 674.483834 58.686243 
L 675.636763 55.960444 
L 676.789692 60.799391 
L 677.942621 62.744188 
L 679.09555 66.993101 
L 680.248479 68.991504 
L 681.401408 69.89656 
L 682.554338 70.353704 
L 683.707267 70.241212 
L 684.860196 71.731969 
L 686.013125 72.056903 
L 687.166054 71.612974 
L 688.318983 74.497938 
L 689.471913 74.294182 
L 690.624842 72.556727 
L 691.777771 74.318304 
L 692.9307 73.794417 
L 694.083629 75.123173 
L 695.236558 77.882171 
L 696.389487 78.018355 
L 697.542417 79.724389 
L 698.695346 79.658098 
L 699.848275 77.402643 
L 701.001204 79.852293 
L 702.154133 77.318085 
L 703.307062 79.954229 
L 704.459992 78.108393 
L 705.612921 84.256229 
L 706.76585 82.596237 
L 707.918779 81.97343 
L 709.071708 85.287933 
L 710.224637 83.888365 
L 711.377567 83.848799 
L 712.530496 85.235003 
L 713.683425 86.315147 
L 714.836354 86.076445 
L 715.989283 88.349033 
L 717.142212 86.503717 
L 718.295141 87.009662 
L 719.448071 89.634072 
L 720.601 89.988929 
L 721.753929 87.709598 
L 722.906858 90.062184 
L 724.059787 89.456982 
L 725.212716 90.128211 
L 726.365646 91.274118 
L 727.518575 90.832708 
L 728.671504 94.84926 
L 729.824433 94.020539 
L 730.977362 92.147499 
L 732.130291 94.097817 
L 733.28322 93.859436 
L 734.43615 93.815108 
L 735.589079 93.094057 
L 736.742008 95.374602 
L 737.894937 94.604485 
L 739.047866 94.341473 
L 740.200795 96.827463 
L 741.353725 103.228798 
L 742.506654 160.162691 
L 743.659583 103.823619 
L 744.812512 96.889669 
L 745.965441 97.83375 
L 747.11837 97.571182 
L 748.2713 98.139207 
L 749.424229 98.836591 
L 750.577158 100.081317 
L 751.730087 99.874711 
L 752.883016 99.914381 
L 754.035945 99.713148 
L 755.188874 98.661512 
L 756.341804 100.283138 
L 757.494733 101.153601 
L 758.647662 101.574042 
L 759.800591 101.499225 
L 760.95352 102.436902 
L 762.106449 101.706162 
L 763.259379 102.089188 
L 764.412308 102.643206 
L 765.565237 102.999199 
L 766.718166 102.344305 
L 767.871095 102.73675 
L 769.024024 101.646427 
L 770.176953 102.184822 
L 771.329883 104.255818 
L 772.482812 104.437159 
L 773.635741 102.853998 
L 774.78867 104.484207 
L 775.941599 102.377973 
L 777.094528 105.345508 
L 778.247458 103.584465 
L 779.400387 104.847128 
L 780.553316 104.892704 
L 781.706245 106.076664 
L 782.859174 105.789467 
L 784.012103 107.569243 
L 785.165033 106.774215 
L 786.317962 106.463841 
L 788.62382 106.895354 
L 789.776749 106.940032 
L 792.082607 108.960353 
L 793.235537 107.700528 
L 794.388466 109.681431 
L 795.541395 110.294973 
L 796.694324 110.206338 
L 797.847253 110.449461 
L 799.000182 109.712337 
L 800.153112 109.804922 
L 801.306041 110.657722 
L 802.45897 109.579495 
L 803.611899 111.744991 
L 804.764828 111.734653 
L 805.917757 111.845507 
L 807.070686 111.452819 
L 808.223616 112.153084 
L 809.376545 112.094982 
L 810.529474 119.630343 
L 811.682403 167.670395 
L 812.835332 120.859121 
L 813.988261 113.334807 
L 815.141191 112.389397 
L 816.29412 114.356299 
L 817.447049 115.026211 
L 818.599978 112.96581 
L 819.752907 113.881917 
L 820.905836 113.504536 
L 822.058766 114.984434 
L 823.211695 114.768229 
L 824.364624 113.945034 
L 825.517553 115.231414 
L 826.670482 114.734086 
L 827.823411 115.858275 
L 828.97634 115.621426 
L 832.435128 116.426832 
L 833.588057 115.069574 
L 834.740986 117.115934 
L 835.893915 116.591611 
L 837.046845 118.507032 
L 838.199774 118.164686 
L 839.352703 118.490264 
L 840.505632 120.262131 
L 842.81149 120.21519 
L 843.964419 122.107533 
L 845.117349 123.644887 
L 846.270278 125.530511 
L 846.270278 125.530511 
" clip-path="url(#pd343c34a96)" style="fill: none; stroke: #e3685c; stroke-width: 1.2; stroke-linecap: square"/>
   </g>
   <g id="line2d_63"/>
   <g id="line2d_64"/>
   <g id="patch_12">
    <path d="M 665.894511 174.612 
L 665.894511 23.568 
" style="fill: none; stroke: #000000; stroke-linejoin: miter; stroke-linecap: square"/>
   </g>
   <g id="patch_13">
    <path d="M 665.894511 174.612 
L 854.8596 174.612 
" style="fill: none; stroke: #000000; stroke-linejoin: miter; stroke-linecap: square"/>
   </g>
   <g id="text_42">
    <!-- period = post -->
    <g transform="translate(727.645556 17.568) scale(0.096 -0.096)">
     <defs>
      <path id="DejaVuSans-73" d="M 2834 3397 
L 2834 2853 
Q 2591 2978 2328 3040 
Q 2066 3103 1784 3103 
Q 1356 3103 1142 2972 
Q 928 2841 928 2578 
Q 928 2378 1081 2264 
Q 1234 2150 1697 2047 
L 1894 2003 
Q 2506 1872 2764 1633 
Q 3022 1394 3022 966 
Q 3022 478 2636 193 
Q 2250 -91 1575 -91 
Q 1294 -91 989 -36 
Q 684 19 347 128 
L 347 722 
Q 666 556 975 473 
Q 1284 391 1588 391 
Q 1994 391 2212 530 
Q 2431 669 2431 922 
Q 2431 1156 2273 1281 
Q 2116 1406 1581 1522 
L 1381 1569 
Q 847 1681 609 1914 
Q 372 2147 372 2553 
Q 372 3047 722 3315 
Q 1072 3584 1716 3584 
Q 2034 3584 2315 3537 
Q 2597 3491 2834 3397 
z
" transform="scale(0.015625)"/>
     </defs>
     <use xlink:href="#DejaVuSans-70"/>
     <use xlink:href="#DejaVuSans-65" x="63.476562"/>
     <use xlink:href="#DejaVuSans-72" x="125"/>
     <use xlink:href="#DejaVuSans-69" x="166.113281"/>
     <use xlink:href="#DejaVuSans-6f" x="193.896484"/>
     <use xlink:href="#DejaVuSans-64" x="255.078125"/>
     <use xlink:href="#DejaVuSans-20" x="318.554688"/>
     <use xlink:href="#DejaVuSans-3d" x="350.341797"/>
     <use xlink:href="#DejaVuSans-20" x="434.130859"/>
     <use xlink:href="#DejaVuSans-70" x="465.917969"/>
     <use xlink:href="#DejaVuSans-6f" x="529.394531"/>
     <use xlink:href="#DejaVuSans-73" x="590.576172"/>
     <use xlink:href="#DejaVuSans-74" x="642.675781"/>
    </g>
   </g>
  </g>
  <g id="text_43">
   <!-- Peri Ictal PSD on a per-contact lvl -->
   <g transform="translate(361.2915 6.5934) scale(0.1152 -0.1152)">
    <defs>
     <path id="DejaVuSans-50" d="M 1259 4147 
L 1259 2394 
L 2053 2394 
Q 2494 2394 2734 2622 
Q 2975 2850 2975 3272 
Q 2975 3691 2734 3919 
Q 2494 4147 2053 4147 
L 1259 4147 
z
M 628 4666 
L 2053 4666 
Q 2838 4666 3239 4311 
Q 3641 3956 3641 3272 
Q 3641 2581 3239 2228 
Q 2838 1875 2053 1875 
L 1259 1875 
L 1259 0 
L 628 0 
L 628 4666 
z
" transform="scale(0.015625)"/>
     <path id="DejaVuSans-49" d="M 628 4666 
L 1259 4666 
L 1259 0 
L 628 0 
L 628 4666 
z
" transform="scale(0.015625)"/>
     <path id="DejaVuSans-53" d="M 3425 4513 
L 3425 3897 
Q 3066 4069 2747 4153 
Q 2428 4238 2131 4238 
Q 1616 4238 1336 4038 
Q 1056 3838 1056 3469 
Q 1056 3159 1242 3001 
Q 1428 2844 1947 2747 
L 2328 2669 
Q 3034 2534 3370 2195 
Q 3706 1856 3706 1288 
Q 3706 609 3251 259 
Q 2797 -91 1919 -91 
Q 1588 -91 1214 -16 
Q 841 59 441 206 
L 441 856 
Q 825 641 1194 531 
Q 1563 422 1919 422 
Q 2459 422 2753 634 
Q 3047 847 3047 1241 
Q 3047 1584 2836 1778 
Q 2625 1972 2144 2069 
L 1759 2144 
Q 1053 2284 737 2584 
Q 422 2884 422 3419 
Q 422 4038 858 4394 
Q 1294 4750 2059 4750 
Q 2388 4750 2728 4690 
Q 3069 4631 3425 4513 
z
" transform="scale(0.015625)"/>
     <path id="DejaVuSans-44" d="M 1259 4147 
L 1259 519 
L 2022 519 
Q 2988 519 3436 956 
Q 3884 1394 3884 2338 
Q 3884 3275 3436 3711 
Q 2988 4147 2022 4147 
L 1259 4147 
z
M 628 4666 
L 1925 4666 
Q 3281 4666 3915 4102 
Q 4550 3538 4550 2338 
Q 4550 1131 3912 565 
Q 3275 0 1925 0 
L 628 0 
L 628 4666 
z
" transform="scale(0.015625)"/>
     <path id="DejaVuSans-2d" d="M 313 2009 
L 1997 2009 
L 1997 1497 
L 313 1497 
L 313 2009 
z
" transform="scale(0.015625)"/>
     <path id="DejaVuSans-76" d="M 191 3500 
L 800 3500 
L 1894 563 
L 2988 3500 
L 3597 3500 
L 2284 0 
L 1503 0 
L 191 3500 
z
" transform="scale(0.015625)"/>
    </defs>
    <use xlink:href="#DejaVuSans-50"/>
    <use xlink:href="#DejaVuSans-65" x="56.677734"/>
    <use xlink:href="#DejaVuSans-72" x="118.201172"/>
    <use xlink:href="#DejaVuSans-69" x="159.314453"/>
    <use xlink:href="#DejaVuSans-20" x="187.097656"/>
    <use xlink:href="#DejaVuSans-49" x="218.884766"/>
    <use xlink:href="#DejaVuSans-63" x="248.376953"/>
    <use xlink:href="#DejaVuSans-74" x="303.357422"/>
    <use xlink:href="#DejaVuSans-61" x="342.566406"/>
    <use xlink:href="#DejaVuSans-6c" x="403.845703"/>
    <use xlink:href="#DejaVuSans-20" x="431.628906"/>
    <use xlink:href="#DejaVuSans-50" x="463.416016"/>
    <use xlink:href="#DejaVuSans-53" x="523.71875"/>
    <use xlink:href="#DejaVuSans-44" x="587.195312"/>
    <use xlink:href="#DejaVuSans-20" x="664.197266"/>
    <use xlink:href="#DejaVuSans-6f" x="695.984375"/>
    <use xlink:href="#DejaVuSans-6e" x="757.166016"/>
    <use xlink:href="#DejaVuSans-20" x="820.544922"/>
    <use xlink:href="#DejaVuSans-61" x="852.332031"/>
    <use xlink:href="#DejaVuSans-20" x="913.611328"/>
    <use xlink:href="#DejaVuSans-70" x="945.398438"/>
    <use xlink:href="#DejaVuSans-65" x="1008.875"/>
    <use xlink:href="#DejaVuSans-72" x="1070.398438"/>
    <use xlink:href="#DejaVuSans-2d" x="1105.136719"/>
    <use xlink:href="#DejaVuSans-63" x="1141.220703"/>
    <use xlink:href="#DejaVuSans-6f" x="1196.201172"/>
    <use xlink:href="#DejaVuSans-6e" x="1257.382812"/>
    <use xlink:href="#DejaVuSans-74" x="1320.761719"/>
    <use xlink:href="#DejaVuSans-61" x="1359.970703"/>
    <use xlink:href="#DejaVuSans-63" x="1421.25"/>
    <use xlink:href="#DejaVuSans-74" x="1476.230469"/>
    <use xlink:href="#DejaVuSans-20" x="1515.439453"/>
    <use xlink:href="#DejaVuSans-6c" x="1547.226562"/>
    <use xlink:href="#DejaVuSans-76" x="1575.009766"/>
    <use xlink:href="#DejaVuSans-6c" x="1634.189453"/>
   </g>
  </g>
  <g id="legend_1">
   <g id="line2d_65">
    <path d="M 862.938125 100.889875 
L 871.738125 100.889875 
L 880.538125 100.889875 
" style="fill: none; stroke: #e98d6b; stroke-width: 1.2; stroke-linecap: square"/>
   </g>
   <g id="text_44">
    <!-- NIZ -->
    <g transform="translate(887.578125 103.969875) scale(0.088 -0.088)">
     <defs>
      <path id="DejaVuSans-4e" d="M 628 4666 
L 1478 4666 
L 3547 763 
L 3547 4666 
L 4159 4666 
L 4159 0 
L 3309 0 
L 1241 3903 
L 1241 0 
L 628 0 
L 628 4666 
z
" transform="scale(0.015625)"/>
      <path id="DejaVuSans-5a" d="M 359 4666 
L 4025 4666 
L 4025 4184 
L 1075 531 
L 4097 531 
L 4097 0 
L 288 0 
L 288 481 
L 3238 4134 
L 359 4134 
L 359 4666 
z
" transform="scale(0.015625)"/>
     </defs>
     <use xlink:href="#DejaVuSans-4e"/>
     <use xlink:href="#DejaVuSans-49" x="74.804688"/>
     <use xlink:href="#DejaVuSans-5a" x="104.296875"/>
    </g>
   </g>
   <g id="line2d_66">
    <path d="M 862.938125 113.806625 
L 871.738125 113.806625 
L 880.538125 113.806625 
" style="fill: none; stroke: #e3685c; stroke-width: 1.2; stroke-linecap: square"/>
   </g>
   <g id="text_45">
    <!-- SOZ -->
    <g transform="translate(887.578125 116.886625) scale(0.088 -0.088)">
     <defs>
      <path id="DejaVuSans-4f" d="M 2522 4238 
Q 1834 4238 1429 3725 
Q 1025 3213 1025 2328 
Q 1025 1447 1429 934 
Q 1834 422 2522 422 
Q 3209 422 3611 934 
Q 4013 1447 4013 2328 
Q 4013 3213 3611 3725 
Q 3209 4238 2522 4238 
z
M 2522 4750 
Q 3503 4750 4090 4092 
Q 4678 3434 4678 2328 
Q 4678 1225 4090 567 
Q 3503 -91 2522 -91 
Q 1538 -91 948 565 
Q 359 1222 359 2328 
Q 359 3434 948 4092 
Q 1538 4750 2522 4750 
z
" transform="scale(0.015625)"/>
     </defs>
     <use xlink:href="#DejaVuSans-53"/>
     <use xlink:href="#DejaVuSans-4f" x="63.476562"/>
     <use xlink:href="#DejaVuSans-5a" x="142.1875"/>
    </g>
   </g>
  </g>
 </g>
 <defs>
  <clipPath id="pedef10d5ac">
   <rect x="53.591943" y="23.568" width="188.965089" height="151.044"/>
  </clipPath>
  <clipPath id="p6e715e2536">
   <rect x="257.692799" y="23.568" width="188.965089" height="151.044"/>
  </clipPath>
  <clipPath id="p40f8b91b6e">
   <rect x="461.793655" y="23.568" width="188.965089" height="151.044"/>
  </clipPath>
  <clipPath id="pd343c34a96">
   <rect x="665.894511" y="23.568" width="188.965089" height="151.044"/>
  </clipPath>
 </defs>
</svg>
