<?xml version="1.0" encoding="utf-8" standalone="no"?>
<!DOCTYPE svg PUBLIC "-//W3C//DTD SVG 1.1//EN"
  "http://www.w3.org/Graphics/SVG/1.1/DTD/svg11.dtd">
<svg xmlns:xlink="http://www.w3.org/1999/xlink" width="655.04pt" height="216pt" viewBox="0 0 655.04 216" xmlns="http://www.w3.org/2000/svg" version="1.1">
 <metadata>
  <rdf:RDF xmlns:dc="http://purl.org/dc/elements/1.1/" xmlns:cc="http://creativecommons.org/ns#" xmlns:rdf="http://www.w3.org/1999/02/22-rdf-syntax-ns#">
   <cc:Work>
    <dc:type rdf:resource="http://purl.org/dc/dcmitype/StillImage"/>
    <dc:date>2024-06-26T16:22:17.130110</dc:date>
    <dc:format>image/svg+xml</dc:format>
    <dc:creator>
     <cc:Agent>
      <dc:title>Matplotlib v3.9.0, https://matplotlib.org/</dc:title>
     </cc:Agent>
    </dc:creator>
   </cc:Work>
  </rdf:RDF>
 </metadata>
 <defs>
  <style type="text/css">*{stroke-linejoin: round; stroke-linecap: butt}</style>
 </defs>
 <g id="figure_1">
  <g id="patch_1">
   <path d="M 0 216 
L 655.04 216 
L 655.04 0 
L 0 0 
L 0 216 
z
" style="fill: none"/>
  </g>
  <g id="axes_1">
   <g id="patch_2">
    <path d="M 45.567736 174.612 
L 234.026234 174.612 
L 234.026234 23.568 
L 45.567736 23.568 
L 45.567736 174.612 
z
" style="fill: none"/>
   </g>
   <g id="PolyCollection_1">
    <defs>
     <path id="me4d2f96517" d="M 78.304271 -134.816833 
L 75.6507 -134.816833 
L 75.429441 -134.98049 
L 75.180496 -135.144147 
L 74.902112 -135.307804 
L 74.59272 -135.471461 
L 74.250993 -135.635118 
L 73.875903 -135.798776 
L 73.466776 -135.962433 
L 73.023352 -136.12609 
L 72.54583 -136.289747 
L 72.034912 -136.453404 
L 71.491835 -136.617061 
L 70.918399 -136.780719 
L 70.316967 -136.944376 
L 69.690467 -137.108033 
L 69.042369 -137.27169 
L 68.376642 -137.435347 
L 67.697702 -137.599004 
L 67.010335 -137.762661 
L 66.319614 -137.926319 
L 65.63079 -138.089976 
L 64.949178 -138.253633 
L 64.280033 -138.41729 
L 63.628417 -138.580947 
L 62.999072 -138.744604 
L 62.396282 -138.908262 
L 61.823758 -139.071919 
L 61.284519 -139.235576 
L 60.780805 -139.399233 
L 60.313991 -139.56289 
L 59.884545 -139.726547 
L 59.491998 -139.890204 
L 59.13495 -140.053862 
L 58.811106 -140.217519 
L 58.517339 -140.381176 
L 58.24979 -140.544833 
L 58.003989 -140.70849 
L 57.775007 -140.872147 
L 57.557623 -141.035805 
L 57.346513 -141.199462 
L 57.136442 -141.363119 
L 56.922465 -141.526776 
L 56.700122 -141.690433 
L 56.465621 -141.85409 
L 56.216006 -142.017748 
L 55.949297 -142.181405 
L 55.664604 -142.345062 
L 55.362209 -142.508719 
L 55.043597 -142.672376 
L 54.711466 -142.836033 
L 54.369679 -142.99969 
L 54.02319 -143.163348 
L 53.677921 -143.327005 
L 53.340612 -143.490662 
L 53.018646 -143.654319 
L 52.719838 -143.817976 
L 52.452229 -143.981633 
L 52.223851 -144.145291 
L 52.042507 -144.308948 
L 51.915551 -144.472605 
L 51.849686 -144.636262 
L 51.850777 -144.799919 
L 51.923695 -144.963576 
L 52.072192 -145.127234 
L 52.298803 -145.290891 
L 52.604788 -145.454548 
L 52.99011 -145.618205 
L 53.453447 -145.781862 
L 53.99223 -145.945519 
L 54.602726 -146.109176 
L 55.280132 -146.272834 
L 56.0187 -146.436491 
L 56.811879 -146.600148 
L 57.652466 -146.763805 
L 58.532767 -146.927462 
L 59.444761 -147.091119 
L 60.380263 -147.254777 
L 61.33108 -147.418434 
L 62.289158 -147.582091 
L 63.246719 -147.745748 
L 64.196381 -147.909405 
L 65.131259 -148.073062 
L 66.045056 -148.236719 
L 66.932131 -148.400377 
L 67.787542 -148.564034 
L 68.607086 -148.727691 
L 69.387306 -148.891348 
L 70.125491 -149.055005 
L 70.819659 -149.218662 
L 71.468525 -149.38232 
L 72.071461 -149.545977 
L 72.628442 -149.709634 
L 73.139993 -149.873291 
L 73.607119 -150.036948 
L 74.031244 -150.200605 
L 74.41414 -150.364263 
L 74.75786 -150.52792 
L 75.064675 -150.691577 
L 75.337008 -150.855234 
L 75.577378 -151.018891 
L 78.377594 -151.018891 
L 78.377594 -151.018891 
L 78.617964 -150.855234 
L 78.890297 -150.691577 
L 79.197112 -150.52792 
L 79.540832 -150.364263 
L 79.923728 -150.200605 
L 80.347853 -150.036948 
L 80.814979 -149.873291 
L 81.32653 -149.709634 
L 81.883511 -149.545977 
L 82.486447 -149.38232 
L 83.135313 -149.218662 
L 83.829481 -149.055005 
L 84.567666 -148.891348 
L 85.347886 -148.727691 
L 86.16743 -148.564034 
L 87.022841 -148.400377 
L 87.909916 -148.236719 
L 88.823713 -148.073062 
L 89.758591 -147.909405 
L 90.708252 -147.745748 
L 91.665813 -147.582091 
L 92.623892 -147.418434 
L 93.574709 -147.254777 
L 94.510211 -147.091119 
L 95.422205 -146.927462 
L 96.302505 -146.763805 
L 97.143092 -146.600148 
L 97.936272 -146.436491 
L 98.67484 -146.272834 
L 99.352246 -146.109176 
L 99.962742 -145.945519 
L 100.501525 -145.781862 
L 100.964861 -145.618205 
L 101.350184 -145.454548 
L 101.656169 -145.290891 
L 101.882779 -145.127234 
L 102.031276 -144.963576 
L 102.104195 -144.799919 
L 102.105286 -144.636262 
L 102.03942 -144.472605 
L 101.912465 -144.308948 
L 101.731121 -144.145291 
L 101.502743 -143.981633 
L 101.235133 -143.817976 
L 100.936326 -143.654319 
L 100.614359 -143.490662 
L 100.277051 -143.327005 
L 99.931781 -143.163348 
L 99.585292 -142.99969 
L 99.243506 -142.836033 
L 98.911375 -142.672376 
L 98.592763 -142.508719 
L 98.290367 -142.345062 
L 98.005675 -142.181405 
L 97.738966 -142.017748 
L 97.489351 -141.85409 
L 97.25485 -141.690433 
L 97.032507 -141.526776 
L 96.81853 -141.363119 
L 96.608459 -141.199462 
L 96.397349 -141.035805 
L 96.179965 -140.872147 
L 95.950983 -140.70849 
L 95.705182 -140.544833 
L 95.437633 -140.381176 
L 95.143866 -140.217519 
L 94.820021 -140.053862 
L 94.462973 -139.890204 
L 94.070427 -139.726547 
L 93.640981 -139.56289 
L 93.174167 -139.399233 
L 92.670452 -139.235576 
L 92.131214 -139.071919 
L 91.55869 -138.908262 
L 90.9559 -138.744604 
L 90.326555 -138.580947 
L 89.674939 -138.41729 
L 89.005794 -138.253633 
L 88.324181 -138.089976 
L 87.635357 -137.926319 
L 86.944637 -137.762661 
L 86.25727 -137.599004 
L 85.57833 -137.435347 
L 84.912602 -137.27169 
L 84.264504 -137.108033 
L 83.638005 -136.944376 
L 83.036573 -136.780719 
L 82.463136 -136.617061 
L 81.92006 -136.453404 
L 81.409142 -136.289747 
L 80.93162 -136.12609 
L 80.488196 -135.962433 
L 80.079069 -135.798776 
L 79.703978 -135.635118 
L 79.362251 -135.471461 
L 79.05286 -135.307804 
L 78.774476 -135.144147 
L 78.525531 -134.98049 
L 78.304271 -134.816833 
z
" style="stroke: #171717"/>
    </defs>
    <g clip-path="url(#p104b11dead)">
     <use xlink:href="#me4d2f96517" x="0" y="216" style="fill: #292524; stroke: #171717"/>
    </g>
   </g>
   <g id="PolyCollection_2">
    <defs>
     <path id="m3ff3d949b9" d="M 141.099213 -142.738396 
L 138.494757 -142.738396 
L 138.294286 -142.832701 
L 138.071762 -142.927005 
L 137.826307 -143.021309 
L 137.557265 -143.115614 
L 137.26424 -143.209918 
L 136.947132 -143.304223 
L 136.606165 -143.398527 
L 136.241911 -143.492831 
L 135.855302 -143.587136 
L 135.447634 -143.68144 
L 135.020562 -143.775745 
L 134.576075 -143.870049 
L 134.116466 -143.964354 
L 133.644281 -144.058658 
L 133.162266 -144.152962 
L 132.673291 -144.247267 
L 132.180273 -144.341571 
L 131.686087 -144.435876 
L 131.193477 -144.53018 
L 130.70496 -144.624485 
L 130.222742 -144.718789 
L 129.74863 -144.813093 
L 129.283966 -144.907398 
L 128.829566 -145.001702 
L 128.385684 -145.096007 
L 127.951993 -145.190311 
L 127.527591 -145.284616 
L 127.111028 -145.37892 
L 126.700362 -145.473224 
L 126.293234 -145.567529 
L 125.886968 -145.661833 
L 125.478688 -145.756138 
L 125.065446 -145.850442 
L 124.644369 -145.944746 
L 124.2128 -146.039051 
L 123.768443 -146.133355 
L 123.309501 -146.22766 
L 122.834801 -146.321964 
L 122.343896 -146.416269 
L 121.83715 -146.510573 
L 121.315794 -146.604877 
L 120.781951 -146.699182 
L 120.238632 -146.793486 
L 119.689698 -146.887791 
L 119.139799 -146.982095 
L 118.594277 -147.0764 
L 118.059046 -147.170704 
L 117.540462 -147.265008 
L 117.045165 -147.359313 
L 116.579919 -147.453617 
L 116.151451 -147.547922 
L 115.766284 -147.642226 
L 115.43059 -147.736531 
L 115.150044 -147.830835 
L 114.929704 -147.925139 
L 114.773903 -148.019444 
L 114.686174 -148.113748 
L 114.669185 -148.208053 
L 114.724711 -148.302357 
L 114.853617 -148.396661 
L 115.055874 -148.490966 
L 115.330584 -148.58527 
L 115.676028 -148.679575 
L 116.089726 -148.773879 
L 116.568502 -148.868184 
L 117.108568 -148.962488 
L 117.705599 -149.056792 
L 118.354821 -149.151097 
L 119.051092 -149.245401 
L 119.788986 -149.339706 
L 120.562867 -149.43401 
L 121.366968 -149.528315 
L 122.195457 -149.622619 
L 123.042506 -149.716923 
L 123.902347 -149.811228 
L 124.769334 -149.905532 
L 125.63799 -149.999837 
L 126.503055 -150.094141 
L 127.359534 -150.188446 
L 128.202733 -150.28275 
L 129.028299 -150.377054 
L 129.832246 -150.471359 
L 130.610988 -150.565663 
L 131.361359 -150.659968 
L 132.080629 -150.754272 
L 132.766514 -150.848576 
L 133.417184 -150.942881 
L 134.031259 -151.037185 
L 134.607802 -151.13149 
L 135.146304 -151.225794 
L 135.646661 -151.320099 
L 136.109154 -151.414403 
L 136.534412 -151.508707 
L 136.923378 -151.603012 
L 137.277275 -151.697316 
L 137.59756 -151.791621 
L 137.885886 -151.885925 
L 138.144056 -151.98023 
L 138.373987 -152.074534 
L 141.219983 -152.074534 
L 141.219983 -152.074534 
L 141.449914 -151.98023 
L 141.708084 -151.885925 
L 141.99641 -151.791621 
L 142.316695 -151.697316 
L 142.670592 -151.603012 
L 143.059559 -151.508707 
L 143.484816 -151.414403 
L 143.947309 -151.320099 
L 144.447666 -151.225794 
L 144.986168 -151.13149 
L 145.562711 -151.037185 
L 146.176786 -150.942881 
L 146.827457 -150.848576 
L 147.513342 -150.754272 
L 148.232611 -150.659968 
L 148.982982 -150.565663 
L 149.761724 -150.471359 
L 150.565672 -150.377054 
L 151.391237 -150.28275 
L 152.234437 -150.188446 
L 153.090915 -150.094141 
L 153.95598 -149.999837 
L 154.824636 -149.905532 
L 155.691623 -149.811228 
L 156.551464 -149.716923 
L 157.398513 -149.622619 
L 158.227003 -149.528315 
L 159.031103 -149.43401 
L 159.804984 -149.339706 
L 160.542878 -149.245401 
L 161.23915 -149.151097 
L 161.888371 -149.056792 
L 162.485402 -148.962488 
L 163.025468 -148.868184 
L 163.504244 -148.773879 
L 163.917942 -148.679575 
L 164.263386 -148.58527 
L 164.538097 -148.490966 
L 164.740353 -148.396661 
L 164.86926 -148.302357 
L 164.924785 -148.208053 
L 164.907796 -148.113748 
L 164.820067 -148.019444 
L 164.664266 -147.925139 
L 164.443926 -147.830835 
L 164.16338 -147.736531 
L 163.827686 -147.642226 
L 163.442519 -147.547922 
L 163.014051 -147.453617 
L 162.548805 -147.359313 
L 162.053508 -147.265008 
L 161.534924 -147.170704 
L 160.999694 -147.0764 
L 160.454171 -146.982095 
L 159.904272 -146.887791 
L 159.355338 -146.793486 
L 158.812019 -146.699182 
L 158.278176 -146.604877 
L 157.75682 -146.510573 
L 157.250074 -146.416269 
L 156.759169 -146.321964 
L 156.284469 -146.22766 
L 155.825527 -146.133355 
L 155.38117 -146.039051 
L 154.949601 -145.944746 
L 154.528524 -145.850442 
L 154.115282 -145.756138 
L 153.707002 -145.661833 
L 153.300736 -145.567529 
L 152.893608 -145.473224 
L 152.482942 -145.37892 
L 152.066379 -145.284616 
L 151.641977 -145.190311 
L 151.208286 -145.096007 
L 150.764404 -145.001702 
L 150.310004 -144.907398 
L 149.84534 -144.813093 
L 149.371228 -144.718789 
L 148.88901 -144.624485 
L 148.400493 -144.53018 
L 147.907883 -144.435876 
L 147.413697 -144.341571 
L 146.920679 -144.247267 
L 146.431704 -144.152962 
L 145.949689 -144.058658 
L 145.477505 -143.964354 
L 145.017895 -143.870049 
L 144.573408 -143.775745 
L 144.146336 -143.68144 
L 143.738669 -143.587136 
L 143.352059 -143.492831 
L 142.987805 -143.398527 
L 142.646838 -143.304223 
L 142.32973 -143.209918 
L 142.036705 -143.115614 
L 141.767663 -143.021309 
L 141.522208 -142.927005 
L 141.299684 -142.832701 
L 141.099213 -142.738396 
z
" style="stroke: #171717"/>
    </defs>
    <g clip-path="url(#p104b11dead)">
     <use xlink:href="#m3ff3d949b9" x="0" y="216" style="fill: #825d50; stroke: #171717"/>
    </g>
   </g>
   <g id="PolyCollection_3">
    <defs>
     <path id="mde815cbe0f" d="M 204.451521 -48.253636 
L 200.781447 -48.253636 
L 200.511733 -49.640634 
L 200.21309 -51.027631 
L 199.884245 -52.414628 
L 199.524176 -53.801625 
L 199.132161 -55.188623 
L 198.70783 -56.57562 
L 198.251216 -57.962617 
L 197.762798 -59.349614 
L 197.243545 -60.736612 
L 196.694947 -62.123609 
L 196.119036 -63.510606 
L 195.518403 -64.897603 
L 194.896193 -66.284601 
L 194.256094 -67.671598 
L 193.602303 -69.058595 
L 192.939485 -70.445592 
L 192.272711 -71.83259 
L 191.607378 -73.219587 
L 190.949121 -74.606584 
L 190.303705 -75.993581 
L 189.67691 -77.380579 
L 189.074408 -78.767576 
L 188.501628 -80.154573 
L 187.963626 -81.54157 
L 187.464952 -82.928567 
L 187.00952 -84.315565 
L 186.600493 -85.702562 
L 186.240179 -87.089559 
L 185.929936 -88.476556 
L 185.670113 -89.863554 
L 185.459996 -91.250551 
L 185.297797 -92.637548 
L 185.180652 -94.024545 
L 185.104668 -95.411543 
L 185.064979 -96.79854 
L 185.055844 -98.185537 
L 185.070763 -99.572534 
L 185.102625 -100.959532 
L 185.143868 -102.346529 
L 185.186663 -103.733526 
L 185.223113 -105.120523 
L 185.245449 -106.507521 
L 185.246242 -107.894518 
L 185.218603 -109.281515 
L 185.156382 -110.668512 
L 185.054345 -112.05551 
L 184.908339 -113.442507 
L 184.715433 -114.829504 
L 184.474024 -116.216501 
L 184.183919 -117.603499 
L 183.846382 -118.990496 
L 183.464138 -120.377493 
L 183.041348 -121.76449 
L 182.583542 -123.151488 
L 182.097518 -124.538485 
L 181.591205 -125.925482 
L 181.073501 -127.312479 
L 180.554076 -128.699477 
L 180.043163 -130.086474 
L 179.551322 -131.473471 
L 179.089208 -132.860468 
L 178.667319 -134.247466 
L 178.29576 -135.634463 
L 177.984013 -137.02146 
L 177.740716 -138.408457 
L 177.573473 -139.795455 
L 177.488685 -141.182452 
L 177.491411 -142.569449 
L 177.585268 -143.956446 
L 177.772362 -145.343444 
L 178.053257 -146.730441 
L 178.426987 -148.117438 
L 178.891098 -149.504435 
L 179.441729 -150.891433 
L 180.073721 -152.27843 
L 180.780752 -153.665427 
L 181.555502 -155.052424 
L 182.389826 -156.439421 
L 183.274945 -157.826419 
L 184.20164 -159.213416 
L 185.160448 -160.600413 
L 186.141855 -161.98741 
L 187.136473 -163.374408 
L 188.135215 -164.761405 
L 189.129439 -166.148402 
L 190.111084 -167.535399 
L 191.072772 -168.922397 
L 192.0079 -170.309394 
L 192.910694 -171.696391 
L 193.776251 -173.083388 
L 194.60055 -174.470386 
L 195.380451 -175.857383 
L 196.113665 -177.24438 
L 196.798717 -178.631377 
L 197.434886 -180.018375 
L 198.022146 -181.405372 
L 198.561087 -182.792369 
L 199.052839 -184.179366 
L 199.49899 -185.566364 
L 205.733978 -185.566364 
L 205.733978 -185.566364 
L 206.180129 -184.179366 
L 206.671881 -182.792369 
L 207.210823 -181.405372 
L 207.798083 -180.018375 
L 208.434252 -178.631377 
L 209.119303 -177.24438 
L 209.852517 -175.857383 
L 210.632418 -174.470386 
L 211.456718 -173.083388 
L 212.322274 -171.696391 
L 213.225068 -170.309394 
L 214.160196 -168.922397 
L 215.121885 -167.535399 
L 216.103529 -166.148402 
L 217.097754 -164.761405 
L 218.096496 -163.374408 
L 219.091114 -161.98741 
L 220.07252 -160.600413 
L 221.031328 -159.213416 
L 221.958023 -157.826419 
L 222.843142 -156.439421 
L 223.677466 -155.052424 
L 224.452217 -153.665427 
L 225.159248 -152.27843 
L 225.791239 -150.891433 
L 226.34187 -149.504435 
L 226.805982 -148.117438 
L 227.179712 -146.730441 
L 227.460607 -145.343444 
L 227.6477 -143.956446 
L 227.741557 -142.569449 
L 227.744284 -141.182452 
L 227.659496 -139.795455 
L 227.492253 -138.408457 
L 227.248956 -137.02146 
L 226.937208 -135.634463 
L 226.56565 -134.247466 
L 226.143761 -132.860468 
L 225.681646 -131.473471 
L 225.189806 -130.086474 
L 224.678892 -128.699477 
L 224.159468 -127.312479 
L 223.641763 -125.925482 
L 223.135451 -124.538485 
L 222.649426 -123.151488 
L 222.19162 -121.76449 
L 221.76883 -120.377493 
L 221.386586 -118.990496 
L 221.049049 -117.603499 
L 220.758945 -116.216501 
L 220.517536 -114.829504 
L 220.324629 -113.442507 
L 220.178624 -112.05551 
L 220.076587 -110.668512 
L 220.014365 -109.281515 
L 219.986727 -107.894518 
L 219.987519 -106.507521 
L 220.009855 -105.120523 
L 220.046305 -103.733526 
L 220.089101 -102.346529 
L 220.130344 -100.959532 
L 220.162205 -99.572534 
L 220.177125 -98.185537 
L 220.167989 -96.79854 
L 220.1283 -95.411543 
L 220.052316 -94.024545 
L 219.935172 -92.637548 
L 219.772972 -91.250551 
L 219.562856 -89.863554 
L 219.303032 -88.476556 
L 218.99279 -87.089559 
L 218.632475 -85.702562 
L 218.223449 -84.315565 
L 217.768017 -82.928567 
L 217.269342 -81.54157 
L 216.731341 -80.154573 
L 216.158561 -78.767576 
L 215.556059 -77.380579 
L 214.929264 -75.993581 
L 214.283847 -74.606584 
L 213.62559 -73.219587 
L 212.960257 -71.83259 
L 212.293483 -70.445592 
L 211.630666 -69.058595 
L 210.976875 -67.671598 
L 210.336775 -66.284601 
L 209.714565 -64.897603 
L 209.113932 -63.510606 
L 208.538022 -62.123609 
L 207.989423 -60.736612 
L 207.470171 -59.349614 
L 206.981753 -57.962617 
L 206.525138 -56.57562 
L 206.100807 -55.188623 
L 205.708792 -53.801625 
L 205.348724 -52.414628 
L 205.019879 -51.027631 
L 204.721235 -49.640634 
L 204.451521 -48.253636 
z
" style="stroke: #171717"/>
    </defs>
    <g clip-path="url(#p104b11dead)">
     <use xlink:href="#mde815cbe0f" x="0" y="216" style="fill: #d9947b; stroke: #171717"/>
    </g>
   </g>
   <g id="matplotlib.axis_1">
    <g id="xtick_1">
     <g id="line2d_1">
      <defs>
       <path id="m385d088cd6" d="M 0 0 
L 0 4.8 
" style="stroke: #000000"/>
      </defs>
      <g>
       <use xlink:href="#m385d088cd6" x="76.977486" y="174.612" style="stroke: #000000"/>
      </g>
     </g>
     <g id="text_1">
      <!-- NIZ -->
      <g transform="translate(69.373736 189.598625) scale(0.088 -0.088)">
       <defs>
        <path id="DejaVuSans-4e" d="M 628 4666 
L 1478 4666 
L 3547 763 
L 3547 4666 
L 4159 4666 
L 4159 0 
L 3309 0 
L 1241 3903 
L 1241 0 
L 628 0 
L 628 4666 
z
" transform="scale(0.015625)"/>
        <path id="DejaVuSans-49" d="M 628 4666 
L 1259 4666 
L 1259 0 
L 628 0 
L 628 4666 
z
" transform="scale(0.015625)"/>
        <path id="DejaVuSans-5a" d="M 359 4666 
L 4025 4666 
L 4025 4184 
L 1075 531 
L 4097 531 
L 4097 0 
L 288 0 
L 288 481 
L 3238 4134 
L 359 4134 
L 359 4666 
z
" transform="scale(0.015625)"/>
       </defs>
       <use xlink:href="#DejaVuSans-4e"/>
       <use xlink:href="#DejaVuSans-49" x="74.804688"/>
       <use xlink:href="#DejaVuSans-5a" x="104.296875"/>
      </g>
     </g>
    </g>
    <g id="xtick_2">
     <g id="line2d_2">
      <g>
       <use xlink:href="#m385d088cd6" x="139.796985" y="174.612" style="stroke: #000000"/>
      </g>
     </g>
     <g id="text_2">
      <!-- PZ -->
      <g transform="translate(134.129923 189.598625) scale(0.088 -0.088)">
       <defs>
        <path id="DejaVuSans-50" d="M 1259 4147 
L 1259 2394 
L 2053 2394 
Q 2494 2394 2734 2622 
Q 2975 2850 2975 3272 
Q 2975 3691 2734 3919 
Q 2494 4147 2053 4147 
L 1259 4147 
z
M 628 4666 
L 2053 4666 
Q 2838 4666 3239 4311 
Q 3641 3956 3641 3272 
Q 3641 2581 3239 2228 
Q 2838 1875 2053 1875 
L 1259 1875 
L 1259 0 
L 628 0 
L 628 4666 
z
" transform="scale(0.015625)"/>
       </defs>
       <use xlink:href="#DejaVuSans-50"/>
       <use xlink:href="#DejaVuSans-5a" x="60.302734"/>
      </g>
     </g>
    </g>
    <g id="xtick_3">
     <g id="line2d_3">
      <g>
       <use xlink:href="#m385d088cd6" x="202.616484" y="174.612" style="stroke: #000000"/>
      </g>
     </g>
     <g id="text_3">
      <!-- SOZ -->
      <g transform="translate(193.345547 189.598625) scale(0.088 -0.088)">
       <defs>
        <path id="DejaVuSans-53" d="M 3425 4513 
L 3425 3897 
Q 3066 4069 2747 4153 
Q 2428 4238 2131 4238 
Q 1616 4238 1336 4038 
Q 1056 3838 1056 3469 
Q 1056 3159 1242 3001 
Q 1428 2844 1947 2747 
L 2328 2669 
Q 3034 2534 3370 2195 
Q 3706 1856 3706 1288 
Q 3706 609 3251 259 
Q 2797 -91 1919 -91 
Q 1588 -91 1214 -16 
Q 841 59 441 206 
L 441 856 
Q 825 641 1194 531 
Q 1563 422 1919 422 
Q 2459 422 2753 634 
Q 3047 847 3047 1241 
Q 3047 1584 2836 1778 
Q 2625 1972 2144 2069 
L 1759 2144 
Q 1053 2284 737 2584 
Q 422 2884 422 3419 
Q 422 4038 858 4394 
Q 1294 4750 2059 4750 
Q 2388 4750 2728 4690 
Q 3069 4631 3425 4513 
z
" transform="scale(0.015625)"/>
        <path id="DejaVuSans-4f" d="M 2522 4238 
Q 1834 4238 1429 3725 
Q 1025 3213 1025 2328 
Q 1025 1447 1429 934 
Q 1834 422 2522 422 
Q 3209 422 3611 934 
Q 4013 1447 4013 2328 
Q 4013 3213 3611 3725 
Q 3209 4238 2522 4238 
z
M 2522 4750 
Q 3503 4750 4090 4092 
Q 4678 3434 4678 2328 
Q 4678 1225 4090 567 
Q 3503 -91 2522 -91 
Q 1538 -91 948 565 
Q 359 1222 359 2328 
Q 359 3434 948 4092 
Q 1538 4750 2522 4750 
z
" transform="scale(0.015625)"/>
       </defs>
       <use xlink:href="#DejaVuSans-53"/>
       <use xlink:href="#DejaVuSans-4f" x="63.476562"/>
       <use xlink:href="#DejaVuSans-5a" x="142.1875"/>
      </g>
     </g>
    </g>
    <g id="text_4">
     <!-- region -->
     <g transform="translate(124.618485 202.72325) scale(0.096 -0.096)">
      <defs>
       <path id="DejaVuSans-72" d="M 2631 2963 
Q 2534 3019 2420 3045 
Q 2306 3072 2169 3072 
Q 1681 3072 1420 2755 
Q 1159 2438 1159 1844 
L 1159 0 
L 581 0 
L 581 3500 
L 1159 3500 
L 1159 2956 
Q 1341 3275 1631 3429 
Q 1922 3584 2338 3584 
Q 2397 3584 2469 3576 
Q 2541 3569 2628 3553 
L 2631 2963 
z
" transform="scale(0.015625)"/>
       <path id="DejaVuSans-65" d="M 3597 1894 
L 3597 1613 
L 953 1613 
Q 991 1019 1311 708 
Q 1631 397 2203 397 
Q 2534 397 2845 478 
Q 3156 559 3463 722 
L 3463 178 
Q 3153 47 2828 -22 
Q 2503 -91 2169 -91 
Q 1331 -91 842 396 
Q 353 884 353 1716 
Q 353 2575 817 3079 
Q 1281 3584 2069 3584 
Q 2775 3584 3186 3129 
Q 3597 2675 3597 1894 
z
M 3022 2063 
Q 3016 2534 2758 2815 
Q 2500 3097 2075 3097 
Q 1594 3097 1305 2825 
Q 1016 2553 972 2059 
L 3022 2063 
z
" transform="scale(0.015625)"/>
       <path id="DejaVuSans-67" d="M 2906 1791 
Q 2906 2416 2648 2759 
Q 2391 3103 1925 3103 
Q 1463 3103 1205 2759 
Q 947 2416 947 1791 
Q 947 1169 1205 825 
Q 1463 481 1925 481 
Q 2391 481 2648 825 
Q 2906 1169 2906 1791 
z
M 3481 434 
Q 3481 -459 3084 -895 
Q 2688 -1331 1869 -1331 
Q 1566 -1331 1297 -1286 
Q 1028 -1241 775 -1147 
L 775 -588 
Q 1028 -725 1275 -790 
Q 1522 -856 1778 -856 
Q 2344 -856 2625 -561 
Q 2906 -266 2906 331 
L 2906 616 
Q 2728 306 2450 153 
Q 2172 0 1784 0 
Q 1141 0 747 490 
Q 353 981 353 1791 
Q 353 2603 747 3093 
Q 1141 3584 1784 3584 
Q 2172 3584 2450 3431 
Q 2728 3278 2906 2969 
L 2906 3500 
L 3481 3500 
L 3481 434 
z
" transform="scale(0.015625)"/>
       <path id="DejaVuSans-69" d="M 603 3500 
L 1178 3500 
L 1178 0 
L 603 0 
L 603 3500 
z
M 603 4863 
L 1178 4863 
L 1178 4134 
L 603 4134 
L 603 4863 
z
" transform="scale(0.015625)"/>
       <path id="DejaVuSans-6f" d="M 1959 3097 
Q 1497 3097 1228 2736 
Q 959 2375 959 1747 
Q 959 1119 1226 758 
Q 1494 397 1959 397 
Q 2419 397 2687 759 
Q 2956 1122 2956 1747 
Q 2956 2369 2687 2733 
Q 2419 3097 1959 3097 
z
M 1959 3584 
Q 2709 3584 3137 3096 
Q 3566 2609 3566 1747 
Q 3566 888 3137 398 
Q 2709 -91 1959 -91 
Q 1206 -91 779 398 
Q 353 888 353 1747 
Q 353 2609 779 3096 
Q 1206 3584 1959 3584 
z
" transform="scale(0.015625)"/>
       <path id="DejaVuSans-6e" d="M 3513 2113 
L 3513 0 
L 2938 0 
L 2938 2094 
Q 2938 2591 2744 2837 
Q 2550 3084 2163 3084 
Q 1697 3084 1428 2787 
Q 1159 2491 1159 1978 
L 1159 0 
L 581 0 
L 581 3500 
L 1159 3500 
L 1159 2956 
Q 1366 3272 1645 3428 
Q 1925 3584 2291 3584 
Q 2894 3584 3203 3211 
Q 3513 2838 3513 2113 
z
" transform="scale(0.015625)"/>
      </defs>
      <use xlink:href="#DejaVuSans-72"/>
      <use xlink:href="#DejaVuSans-65" x="38.863281"/>
      <use xlink:href="#DejaVuSans-67" x="100.386719"/>
      <use xlink:href="#DejaVuSans-69" x="163.863281"/>
      <use xlink:href="#DejaVuSans-6f" x="191.646484"/>
      <use xlink:href="#DejaVuSans-6e" x="252.828125"/>
     </g>
    </g>
   </g>
   <g id="matplotlib.axis_2">
    <g id="ytick_1">
     <g id="line2d_4">
      <defs>
       <path id="m58ad8287e3" d="M 0 0 
L -4.8 0 
" style="stroke: #000000"/>
      </defs>
      <g>
       <use xlink:href="#m58ad8287e3" x="45.567736" y="165.528729" style="stroke: #000000"/>
      </g>
     </g>
     <g id="text_5">
      <!-- −8 -->
      <g transform="translate(24.294611 168.872042) scale(0.088 -0.088)">
       <defs>
        <path id="DejaVuSans-2212" d="M 678 2272 
L 4684 2272 
L 4684 1741 
L 678 1741 
L 678 2272 
z
" transform="scale(0.015625)"/>
        <path id="DejaVuSans-38" d="M 2034 2216 
Q 1584 2216 1326 1975 
Q 1069 1734 1069 1313 
Q 1069 891 1326 650 
Q 1584 409 2034 409 
Q 2484 409 2743 651 
Q 3003 894 3003 1313 
Q 3003 1734 2745 1975 
Q 2488 2216 2034 2216 
z
M 1403 2484 
Q 997 2584 770 2862 
Q 544 3141 544 3541 
Q 544 4100 942 4425 
Q 1341 4750 2034 4750 
Q 2731 4750 3128 4425 
Q 3525 4100 3525 3541 
Q 3525 3141 3298 2862 
Q 3072 2584 2669 2484 
Q 3125 2378 3379 2068 
Q 3634 1759 3634 1313 
Q 3634 634 3220 271 
Q 2806 -91 2034 -91 
Q 1263 -91 848 271 
Q 434 634 434 1313 
Q 434 1759 690 2068 
Q 947 2378 1403 2484 
z
M 1172 3481 
Q 1172 3119 1398 2916 
Q 1625 2713 2034 2713 
Q 2441 2713 2670 2916 
Q 2900 3119 2900 3481 
Q 2900 3844 2670 4047 
Q 2441 4250 2034 4250 
Q 1625 4250 1398 4047 
Q 1172 3844 1172 3481 
z
" transform="scale(0.015625)"/>
       </defs>
       <use xlink:href="#DejaVuSans-2212"/>
       <use xlink:href="#DejaVuSans-38" x="83.789062"/>
      </g>
     </g>
    </g>
    <g id="ytick_2">
     <g id="line2d_5">
      <g>
       <use xlink:href="#m58ad8287e3" x="45.567736" y="140.593832" style="stroke: #000000"/>
      </g>
     </g>
     <g id="text_6">
      <!-- −6 -->
      <g transform="translate(24.294611 143.937144) scale(0.088 -0.088)">
       <defs>
        <path id="DejaVuSans-36" d="M 2113 2584 
Q 1688 2584 1439 2293 
Q 1191 2003 1191 1497 
Q 1191 994 1439 701 
Q 1688 409 2113 409 
Q 2538 409 2786 701 
Q 3034 994 3034 1497 
Q 3034 2003 2786 2293 
Q 2538 2584 2113 2584 
z
M 3366 4563 
L 3366 3988 
Q 3128 4100 2886 4159 
Q 2644 4219 2406 4219 
Q 1781 4219 1451 3797 
Q 1122 3375 1075 2522 
Q 1259 2794 1537 2939 
Q 1816 3084 2150 3084 
Q 2853 3084 3261 2657 
Q 3669 2231 3669 1497 
Q 3669 778 3244 343 
Q 2819 -91 2113 -91 
Q 1303 -91 875 529 
Q 447 1150 447 2328 
Q 447 3434 972 4092 
Q 1497 4750 2381 4750 
Q 2619 4750 2861 4703 
Q 3103 4656 3366 4563 
z
" transform="scale(0.015625)"/>
       </defs>
       <use xlink:href="#DejaVuSans-2212"/>
       <use xlink:href="#DejaVuSans-36" x="83.789062"/>
      </g>
     </g>
    </g>
    <g id="ytick_3">
     <g id="line2d_6">
      <g>
       <use xlink:href="#m58ad8287e3" x="45.567736" y="115.658935" style="stroke: #000000"/>
      </g>
     </g>
     <g id="text_7">
      <!-- −4 -->
      <g transform="translate(24.294611 119.002247) scale(0.088 -0.088)">
       <defs>
        <path id="DejaVuSans-34" d="M 2419 4116 
L 825 1625 
L 2419 1625 
L 2419 4116 
z
M 2253 4666 
L 3047 4666 
L 3047 1625 
L 3713 1625 
L 3713 1100 
L 3047 1100 
L 3047 0 
L 2419 0 
L 2419 1100 
L 313 1100 
L 313 1709 
L 2253 4666 
z
" transform="scale(0.015625)"/>
       </defs>
       <use xlink:href="#DejaVuSans-2212"/>
       <use xlink:href="#DejaVuSans-34" x="83.789062"/>
      </g>
     </g>
    </g>
    <g id="ytick_4">
     <g id="line2d_7">
      <g>
       <use xlink:href="#m58ad8287e3" x="45.567736" y="90.724038" style="stroke: #000000"/>
      </g>
     </g>
     <g id="text_8">
      <!-- −2 -->
      <g transform="translate(24.294611 94.06735) scale(0.088 -0.088)">
       <defs>
        <path id="DejaVuSans-32" d="M 1228 531 
L 3431 531 
L 3431 0 
L 469 0 
L 469 531 
Q 828 903 1448 1529 
Q 2069 2156 2228 2338 
Q 2531 2678 2651 2914 
Q 2772 3150 2772 3378 
Q 2772 3750 2511 3984 
Q 2250 4219 1831 4219 
Q 1534 4219 1204 4116 
Q 875 4013 500 3803 
L 500 4441 
Q 881 4594 1212 4672 
Q 1544 4750 1819 4750 
Q 2544 4750 2975 4387 
Q 3406 4025 3406 3419 
Q 3406 3131 3298 2873 
Q 3191 2616 2906 2266 
Q 2828 2175 2409 1742 
Q 1991 1309 1228 531 
z
" transform="scale(0.015625)"/>
       </defs>
       <use xlink:href="#DejaVuSans-2212"/>
       <use xlink:href="#DejaVuSans-32" x="83.789062"/>
      </g>
     </g>
    </g>
    <g id="ytick_5">
     <g id="line2d_8">
      <g>
       <use xlink:href="#m58ad8287e3" x="45.567736" y="65.789141" style="stroke: #000000"/>
      </g>
     </g>
     <g id="text_9">
      <!-- 0 -->
      <g transform="translate(31.668736 69.132453) scale(0.088 -0.088)">
       <defs>
        <path id="DejaVuSans-30" d="M 2034 4250 
Q 1547 4250 1301 3770 
Q 1056 3291 1056 2328 
Q 1056 1369 1301 889 
Q 1547 409 2034 409 
Q 2525 409 2770 889 
Q 3016 1369 3016 2328 
Q 3016 3291 2770 3770 
Q 2525 4250 2034 4250 
z
M 2034 4750 
Q 2819 4750 3233 4129 
Q 3647 3509 3647 2328 
Q 3647 1150 3233 529 
Q 2819 -91 2034 -91 
Q 1250 -91 836 529 
Q 422 1150 422 2328 
Q 422 3509 836 4129 
Q 1250 4750 2034 4750 
z
" transform="scale(0.015625)"/>
       </defs>
       <use xlink:href="#DejaVuSans-30"/>
      </g>
     </g>
    </g>
    <g id="ytick_6">
     <g id="line2d_9">
      <g>
       <use xlink:href="#m58ad8287e3" x="45.567736" y="40.854243" style="stroke: #000000"/>
      </g>
     </g>
     <g id="text_10">
      <!-- 2 -->
      <g transform="translate(31.668736 44.197556) scale(0.088 -0.088)">
       <use xlink:href="#DejaVuSans-32"/>
      </g>
     </g>
    </g>
    <g id="text_11">
     <!-- e_i -->
     <g transform="translate(18.031111 105.777) rotate(-90) scale(0.096 -0.096)">
      <defs>
       <path id="DejaVuSans-5f" d="M 3263 -1063 
L 3263 -1509 
L -63 -1509 
L -63 -1063 
L 3263 -1063 
z
" transform="scale(0.015625)"/>
      </defs>
      <use xlink:href="#DejaVuSans-65"/>
      <use xlink:href="#DejaVuSans-5f" x="61.523438"/>
      <use xlink:href="#DejaVuSans-69" x="111.523438"/>
     </g>
    </g>
    <g id="text_12">
     <!-- 1e−13 -->
     <g transform="translate(45.567736 20.568) scale(0.088 -0.088)">
      <defs>
       <path id="DejaVuSans-31" d="M 794 531 
L 1825 531 
L 1825 4091 
L 703 3866 
L 703 4441 
L 1819 4666 
L 2450 4666 
L 2450 531 
L 3481 531 
L 3481 0 
L 794 0 
L 794 531 
z
" transform="scale(0.015625)"/>
       <path id="DejaVuSans-33" d="M 2597 2516 
Q 3050 2419 3304 2112 
Q 3559 1806 3559 1356 
Q 3559 666 3084 287 
Q 2609 -91 1734 -91 
Q 1441 -91 1130 -33 
Q 819 25 488 141 
L 488 750 
Q 750 597 1062 519 
Q 1375 441 1716 441 
Q 2309 441 2620 675 
Q 2931 909 2931 1356 
Q 2931 1769 2642 2001 
Q 2353 2234 1838 2234 
L 1294 2234 
L 1294 2753 
L 1863 2753 
Q 2328 2753 2575 2939 
Q 2822 3125 2822 3475 
Q 2822 3834 2567 4026 
Q 2313 4219 1838 4219 
Q 1578 4219 1281 4162 
Q 984 4106 628 3988 
L 628 4550 
Q 988 4650 1302 4700 
Q 1616 4750 1894 4750 
Q 2613 4750 3031 4423 
Q 3450 4097 3450 3541 
Q 3450 3153 3228 2886 
Q 3006 2619 2597 2516 
z
" transform="scale(0.015625)"/>
      </defs>
      <use xlink:href="#DejaVuSans-31"/>
      <use xlink:href="#DejaVuSans-65" x="63.623047"/>
      <use xlink:href="#DejaVuSans-2212" x="125.146484"/>
      <use xlink:href="#DejaVuSans-31" x="208.935547"/>
      <use xlink:href="#DejaVuSans-33" x="272.558594"/>
     </g>
    </g>
   </g>
   <g id="line2d_10">
    <path d="M 76.977486 76.789157 
L 76.977486 69.375119 
" clip-path="url(#p104b11dead)" style="fill: none; stroke: #171717; stroke-width: 1.5; stroke-linecap: square"/>
   </g>
   <g id="line2d_11">
    <path d="M 76.977486 75.051732 
L 76.977486 71.231365 
" clip-path="url(#p104b11dead)" style="fill: none; stroke: #171717; stroke-width: 4.5; stroke-linecap: square"/>
   </g>
   <g id="line2d_12">
    <path d="M 76.977486 71.542865 
" clip-path="url(#p104b11dead)" style="fill: none; stroke: #171717; stroke-width: 1.2; stroke-linecap: square"/>
    <defs>
     <path id="m06f841fdb9" d="M 1.875 0 
L -1.875 -0 
" style="stroke: #ffffff; stroke-width: 0.9"/>
    </defs>
    <g clip-path="url(#p104b11dead)">
     <use xlink:href="#m06f841fdb9" x="76.977486" y="71.542865" style="fill: #ffffff; stroke: #ffffff; stroke-width: 0.9"/>
    </g>
   </g>
   <g id="line2d_13">
    <path d="M 139.796985 70.656167 
L 139.796985 66.530903 
" clip-path="url(#p104b11dead)" style="fill: none; stroke: #171717; stroke-width: 1.5; stroke-linecap: square"/>
   </g>
   <g id="line2d_14">
    <path d="M 139.796985 68.915711 
L 139.796985 67.530369 
" clip-path="url(#p104b11dead)" style="fill: none; stroke: #171717; stroke-width: 4.5; stroke-linecap: square"/>
   </g>
   <g id="line2d_15">
    <path d="M 139.796985 68.099542 
" clip-path="url(#p104b11dead)" style="fill: none; stroke: #171717; stroke-width: 1.2; stroke-linecap: square"/>
    <g clip-path="url(#p104b11dead)">
     <use xlink:href="#m06f841fdb9" x="139.796985" y="68.099542" style="fill: #ffffff; stroke: #ffffff; stroke-width: 0.9"/>
    </g>
   </g>
   <g id="line2d_16">
    <path d="M 202.616484 126.387814 
L 202.616484 71.792186 
" clip-path="url(#p104b11dead)" style="fill: none; stroke: #171717; stroke-width: 1.5; stroke-linecap: square"/>
   </g>
   <g id="line2d_17">
    <path d="M 202.616484 122.419155 
L 202.616484 72.292106 
" clip-path="url(#p104b11dead)" style="fill: none; stroke: #171717; stroke-width: 4.5; stroke-linecap: square"/>
   </g>
   <g id="line2d_18">
    <path d="M 202.616484 73.059686 
" clip-path="url(#p104b11dead)" style="fill: none; stroke: #171717; stroke-width: 1.2; stroke-linecap: square"/>
    <g clip-path="url(#p104b11dead)">
     <use xlink:href="#m06f841fdb9" x="202.616484" y="73.059686" style="fill: #ffffff; stroke: #ffffff; stroke-width: 0.9"/>
    </g>
   </g>
   <g id="patch_3">
    <path d="M 45.567736 174.612 
L 45.567736 23.568 
" style="fill: none; stroke: #000000; stroke-linejoin: miter; stroke-linecap: square"/>
   </g>
   <g id="patch_4">
    <path d="M 45.567736 174.612 
L 234.026234 174.612 
" style="fill: none; stroke: #000000; stroke-linejoin: miter; stroke-linecap: square"/>
   </g>
   <g id="text_13">
    <!-- period = interictal -->
    <g transform="translate(96.118485 17.568) scale(0.096 -0.096)">
     <defs>
      <path id="DejaVuSans-70" d="M 1159 525 
L 1159 -1331 
L 581 -1331 
L 581 3500 
L 1159 3500 
L 1159 2969 
Q 1341 3281 1617 3432 
Q 1894 3584 2278 3584 
Q 2916 3584 3314 3078 
Q 3713 2572 3713 1747 
Q 3713 922 3314 415 
Q 2916 -91 2278 -91 
Q 1894 -91 1617 61 
Q 1341 213 1159 525 
z
M 3116 1747 
Q 3116 2381 2855 2742 
Q 2594 3103 2138 3103 
Q 1681 3103 1420 2742 
Q 1159 2381 1159 1747 
Q 1159 1113 1420 752 
Q 1681 391 2138 391 
Q 2594 391 2855 752 
Q 3116 1113 3116 1747 
z
" transform="scale(0.015625)"/>
      <path id="DejaVuSans-64" d="M 2906 2969 
L 2906 4863 
L 3481 4863 
L 3481 0 
L 2906 0 
L 2906 525 
Q 2725 213 2448 61 
Q 2172 -91 1784 -91 
Q 1150 -91 751 415 
Q 353 922 353 1747 
Q 353 2572 751 3078 
Q 1150 3584 1784 3584 
Q 2172 3584 2448 3432 
Q 2725 3281 2906 2969 
z
M 947 1747 
Q 947 1113 1208 752 
Q 1469 391 1925 391 
Q 2381 391 2643 752 
Q 2906 1113 2906 1747 
Q 2906 2381 2643 2742 
Q 2381 3103 1925 3103 
Q 1469 3103 1208 2742 
Q 947 2381 947 1747 
z
" transform="scale(0.015625)"/>
      <path id="DejaVuSans-20" transform="scale(0.015625)"/>
      <path id="DejaVuSans-3d" d="M 678 2906 
L 4684 2906 
L 4684 2381 
L 678 2381 
L 678 2906 
z
M 678 1631 
L 4684 1631 
L 4684 1100 
L 678 1100 
L 678 1631 
z
" transform="scale(0.015625)"/>
      <path id="DejaVuSans-74" d="M 1172 4494 
L 1172 3500 
L 2356 3500 
L 2356 3053 
L 1172 3053 
L 1172 1153 
Q 1172 725 1289 603 
Q 1406 481 1766 481 
L 2356 481 
L 2356 0 
L 1766 0 
Q 1100 0 847 248 
Q 594 497 594 1153 
L 594 3053 
L 172 3053 
L 172 3500 
L 594 3500 
L 594 4494 
L 1172 4494 
z
" transform="scale(0.015625)"/>
      <path id="DejaVuSans-63" d="M 3122 3366 
L 3122 2828 
Q 2878 2963 2633 3030 
Q 2388 3097 2138 3097 
Q 1578 3097 1268 2742 
Q 959 2388 959 1747 
Q 959 1106 1268 751 
Q 1578 397 2138 397 
Q 2388 397 2633 464 
Q 2878 531 3122 666 
L 3122 134 
Q 2881 22 2623 -34 
Q 2366 -91 2075 -91 
Q 1284 -91 818 406 
Q 353 903 353 1747 
Q 353 2603 823 3093 
Q 1294 3584 2113 3584 
Q 2378 3584 2631 3529 
Q 2884 3475 3122 3366 
z
" transform="scale(0.015625)"/>
      <path id="DejaVuSans-61" d="M 2194 1759 
Q 1497 1759 1228 1600 
Q 959 1441 959 1056 
Q 959 750 1161 570 
Q 1363 391 1709 391 
Q 2188 391 2477 730 
Q 2766 1069 2766 1631 
L 2766 1759 
L 2194 1759 
z
M 3341 1997 
L 3341 0 
L 2766 0 
L 2766 531 
Q 2569 213 2275 61 
Q 1981 -91 1556 -91 
Q 1019 -91 701 211 
Q 384 513 384 1019 
Q 384 1609 779 1909 
Q 1175 2209 1959 2209 
L 2766 2209 
L 2766 2266 
Q 2766 2663 2505 2880 
Q 2244 3097 1772 3097 
Q 1472 3097 1187 3025 
Q 903 2953 641 2809 
L 641 3341 
Q 956 3463 1253 3523 
Q 1550 3584 1831 3584 
Q 2591 3584 2966 3190 
Q 3341 2797 3341 1997 
z
" transform="scale(0.015625)"/>
      <path id="DejaVuSans-6c" d="M 603 4863 
L 1178 4863 
L 1178 0 
L 603 0 
L 603 4863 
z
" transform="scale(0.015625)"/>
     </defs>
     <use xlink:href="#DejaVuSans-70"/>
     <use xlink:href="#DejaVuSans-65" x="63.476562"/>
     <use xlink:href="#DejaVuSans-72" x="125"/>
     <use xlink:href="#DejaVuSans-69" x="166.113281"/>
     <use xlink:href="#DejaVuSans-6f" x="193.896484"/>
     <use xlink:href="#DejaVuSans-64" x="255.078125"/>
     <use xlink:href="#DejaVuSans-20" x="318.554688"/>
     <use xlink:href="#DejaVuSans-3d" x="350.341797"/>
     <use xlink:href="#DejaVuSans-20" x="434.130859"/>
     <use xlink:href="#DejaVuSans-69" x="465.917969"/>
     <use xlink:href="#DejaVuSans-6e" x="493.701172"/>
     <use xlink:href="#DejaVuSans-74" x="557.080078"/>
     <use xlink:href="#DejaVuSans-65" x="596.289062"/>
     <use xlink:href="#DejaVuSans-72" x="657.8125"/>
     <use xlink:href="#DejaVuSans-69" x="698.925781"/>
     <use xlink:href="#DejaVuSans-63" x="726.708984"/>
     <use xlink:href="#DejaVuSans-74" x="781.689453"/>
     <use xlink:href="#DejaVuSans-61" x="820.898438"/>
     <use xlink:href="#DejaVuSans-6c" x="882.177734"/>
    </g>
   </g>
  </g>
  <g id="axes_2">
   <g id="patch_5">
    <path d="M 249.279419 174.612 
L 437.737917 174.612 
L 437.737917 23.568 
L 249.279419 23.568 
L 249.279419 174.612 
z
" style="fill: none"/>
   </g>
   <g id="PolyCollection_4">
    <defs>
     <path id="m2540109954" d="M 281.57968 -131.222664 
L 279.798658 -131.222664 
L 279.658841 -131.43576 
L 279.503613 -131.648856 
L 279.332481 -131.861952 
L 279.145156 -132.075048 
L 278.941592 -132.288144 
L 278.722011 -132.50124 
L 278.486943 -132.714336 
L 278.23724 -132.927432 
L 277.974094 -133.140528 
L 277.699049 -133.353624 
L 277.413993 -133.56672 
L 277.121144 -133.779816 
L 276.823025 -133.992912 
L 276.522426 -134.206008 
L 276.222348 -134.419104 
L 275.925945 -134.6322 
L 275.636442 -134.845296 
L 275.357054 -135.058393 
L 275.090892 -135.271489 
L 274.840867 -135.484585 
L 274.609584 -135.697681 
L 274.399249 -135.910777 
L 274.211566 -136.123873 
L 274.047652 -136.336969 
L 273.907956 -136.550065 
L 273.792198 -136.763161 
L 273.699313 -136.976257 
L 273.627429 -137.189353 
L 273.573854 -137.402449 
L 273.535087 -137.615545 
L 273.50686 -137.828641 
L 273.484193 -138.041737 
L 273.461473 -138.254833 
L 273.432566 -138.467929 
L 273.390929 -138.681025 
L 273.329757 -138.894121 
L 273.242135 -139.107217 
L 273.121204 -139.320313 
L 272.960335 -139.533409 
L 272.753306 -139.746505 
L 272.494477 -139.959601 
L 272.178965 -140.172697 
L 271.802807 -140.385793 
L 271.36311 -140.598889 
L 270.858183 -140.811985 
L 270.287651 -141.025081 
L 269.652542 -141.238177 
L 268.955345 -141.451273 
L 268.200035 -141.66437 
L 267.392073 -141.877466 
L 266.538364 -142.090562 
L 265.64718 -142.303658 
L 264.728048 -142.516754 
L 263.791613 -142.72985 
L 262.849451 -142.942946 
L 261.913871 -143.156042 
L 260.997684 -143.369138 
L 260.11395 -143.582234 
L 259.275719 -143.79533 
L 258.495757 -144.008426 
L 257.786279 -144.221522 
L 257.158682 -144.434618 
L 256.623299 -144.647714 
L 256.18917 -144.86081 
L 255.863842 -145.073906 
L 255.653206 -145.287002 
L 255.561369 -145.500098 
L 255.590573 -145.713194 
L 255.741151 -145.92629 
L 256.011541 -146.139386 
L 256.398336 -146.352482 
L 256.89638 -146.565578 
L 257.498908 -146.778674 
L 258.197716 -146.99177 
L 258.983364 -147.204866 
L 259.845405 -147.417962 
L 260.772623 -147.631058 
L 261.753288 -147.844154 
L 262.775408 -148.05725 
L 263.826975 -148.270346 
L 264.8962 -148.483443 
L 265.971731 -148.696539 
L 267.042843 -148.909635 
L 268.099604 -149.122731 
L 269.133013 -149.335827 
L 270.135096 -149.548923 
L 271.098983 -149.762019 
L 272.018945 -149.975115 
L 272.8904 -150.188211 
L 273.709893 -150.401307 
L 274.475055 -150.614403 
L 275.184532 -150.827499 
L 275.837907 -151.040595 
L 276.435603 -151.253691 
L 276.978774 -151.466787 
L 277.469203 -151.679883 
L 277.909181 -151.892979 
L 278.30141 -152.106075 
L 278.648886 -152.319171 
L 282.729452 -152.319171 
L 282.729452 -152.319171 
L 283.076928 -152.106075 
L 283.469157 -151.892979 
L 283.909135 -151.679883 
L 284.399564 -151.466787 
L 284.942735 -151.253691 
L 285.540431 -151.040595 
L 286.193806 -150.827499 
L 286.903283 -150.614403 
L 287.668445 -150.401307 
L 288.487938 -150.188211 
L 289.359392 -149.975115 
L 290.279355 -149.762019 
L 291.243242 -149.548923 
L 292.245325 -149.335827 
L 293.278733 -149.122731 
L 294.335495 -148.909635 
L 295.406607 -148.696539 
L 296.482138 -148.483443 
L 297.551363 -148.270346 
L 298.60293 -148.05725 
L 299.62505 -147.844154 
L 300.605715 -147.631058 
L 301.532933 -147.417962 
L 302.394974 -147.204866 
L 303.180622 -146.99177 
L 303.87943 -146.778674 
L 304.481958 -146.565578 
L 304.980002 -146.352482 
L 305.366797 -146.139386 
L 305.637187 -145.92629 
L 305.787765 -145.713194 
L 305.816969 -145.500098 
L 305.725132 -145.287002 
L 305.514496 -145.073906 
L 305.189168 -144.86081 
L 304.755039 -144.647714 
L 304.219656 -144.434618 
L 303.592059 -144.221522 
L 302.882581 -144.008426 
L 302.102619 -143.79533 
L 301.264388 -143.582234 
L 300.380654 -143.369138 
L 299.464467 -143.156042 
L 298.528887 -142.942946 
L 297.586725 -142.72985 
L 296.65029 -142.516754 
L 295.731158 -142.303658 
L 294.839974 -142.090562 
L 293.986265 -141.877466 
L 293.178303 -141.66437 
L 292.422993 -141.451273 
L 291.725796 -141.238177 
L 291.090687 -141.025081 
L 290.520155 -140.811985 
L 290.015228 -140.598889 
L 289.575531 -140.385793 
L 289.199373 -140.172697 
L 288.883861 -139.959601 
L 288.625032 -139.746505 
L 288.418003 -139.533409 
L 288.257134 -139.320313 
L 288.136203 -139.107217 
L 288.048581 -138.894121 
L 287.987409 -138.681025 
L 287.945772 -138.467929 
L 287.916865 -138.254833 
L 287.894145 -138.041737 
L 287.871478 -137.828641 
L 287.843251 -137.615545 
L 287.804484 -137.402449 
L 287.750909 -137.189353 
L 287.679025 -136.976257 
L 287.58614 -136.763161 
L 287.470381 -136.550065 
L 287.330686 -136.336969 
L 287.166772 -136.123873 
L 286.979089 -135.910777 
L 286.768754 -135.697681 
L 286.537471 -135.484585 
L 286.287446 -135.271489 
L 286.021284 -135.058393 
L 285.741896 -134.845296 
L 285.452393 -134.6322 
L 285.15599 -134.419104 
L 284.855912 -134.206008 
L 284.555313 -133.992912 
L 284.257194 -133.779816 
L 283.964345 -133.56672 
L 283.679288 -133.353624 
L 283.404244 -133.140528 
L 283.141098 -132.927432 
L 282.891395 -132.714336 
L 282.656327 -132.50124 
L 282.436746 -132.288144 
L 282.233182 -132.075048 
L 282.045857 -131.861952 
L 281.874725 -131.648856 
L 281.719497 -131.43576 
L 281.57968 -131.222664 
z
" style="stroke: #171717"/>
    </defs>
    <g clip-path="url(#pb4781f7b47)">
     <use xlink:href="#m2540109954" x="0" y="216" style="fill: #292524; stroke: #171717"/>
    </g>
   </g>
   <g id="PolyCollection_5">
    <defs>
     <path id="mf629985001" d="M 344.680086 -133.864964 
L 342.33725 -133.864964 
L 342.164909 -134.083288 
L 341.974626 -134.301613 
L 341.765805 -134.519937 
L 341.53805 -134.738261 
L 341.291189 -134.956586 
L 341.025311 -135.17491 
L 340.740787 -135.393234 
L 340.438296 -135.611558 
L 340.118836 -135.829883 
L 339.783737 -136.048207 
L 339.434656 -136.266531 
L 339.073567 -136.484856 
L 338.702743 -136.70318 
L 338.324719 -136.921504 
L 337.942252 -137.139828 
L 337.558267 -137.358153 
L 337.17579 -137.576477 
L 336.797877 -137.794801 
L 336.427533 -138.013126 
L 336.067622 -138.23145 
L 335.720783 -138.449774 
L 335.389337 -138.668098 
L 335.075198 -138.886423 
L 334.779796 -139.104747 
L 334.503998 -139.323071 
L 334.248051 -139.541396 
L 334.011531 -139.75972 
L 333.793315 -139.978044 
L 333.59157 -140.196368 
L 333.403761 -140.414693 
L 333.226683 -140.633017 
L 333.056515 -140.851341 
L 332.888894 -141.069666 
L 332.719008 -141.28799 
L 332.541719 -141.506314 
L 332.351683 -141.724639 
L 332.143504 -141.942963 
L 331.911884 -142.161287 
L 331.651781 -142.379611 
L 331.358578 -142.597936 
L 331.028235 -142.81626 
L 330.657443 -143.034584 
L 330.24376 -143.252909 
L 329.785737 -143.471233 
L 329.283017 -143.689557 
L 328.736411 -143.907881 
L 328.147949 -144.126206 
L 327.520899 -144.34453 
L 326.859757 -144.562854 
L 326.170205 -144.781179 
L 325.459036 -144.999503 
L 324.734049 -145.217827 
L 324.003918 -145.436151 
L 323.278033 -145.654476 
L 322.566319 -145.8728 
L 321.879042 -146.091124 
L 321.226592 -146.309449 
L 320.619274 -146.527773 
L 320.067082 -146.746097 
L 319.579487 -146.964422 
L 319.165231 -147.182746 
L 318.832137 -147.40107 
L 318.586937 -147.619394 
L 318.435132 -147.837719 
L 318.380868 -148.056043 
L 318.426859 -148.274367 
L 318.574329 -148.492692 
L 318.822997 -148.711016 
L 319.171095 -148.92934 
L 319.615422 -149.147664 
L 320.151421 -149.365989 
L 320.773295 -149.584313 
L 321.474143 -149.802637 
L 322.246118 -150.020962 
L 323.0806 -150.239286 
L 323.96838 -150.45761 
L 324.899854 -150.675934 
L 325.865212 -150.894259 
L 326.854623 -151.112583 
L 327.858416 -151.330907 
L 328.867243 -151.549232 
L 329.872227 -151.767556 
L 330.865088 -151.98588 
L 331.838253 -152.204204 
L 332.784938 -152.422529 
L 333.699208 -152.640853 
L 334.576014 -152.859177 
L 335.41121 -153.077502 
L 336.201545 -153.295826 
L 336.944639 -153.51415 
L 337.638941 -153.732475 
L 338.283676 -153.950799 
L 338.878777 -154.169123 
L 339.424811 -154.387447 
L 339.922901 -154.605772 
L 340.374641 -154.824096 
L 340.782016 -155.04242 
L 341.147318 -155.260745 
L 341.473069 -155.479069 
L 345.544267 -155.479069 
L 345.544267 -155.479069 
L 345.870018 -155.260745 
L 346.23532 -155.04242 
L 346.642695 -154.824096 
L 347.094435 -154.605772 
L 347.592526 -154.387447 
L 348.13856 -154.169123 
L 348.73366 -153.950799 
L 349.378395 -153.732475 
L 350.072697 -153.51415 
L 350.815791 -153.295826 
L 351.606126 -153.077502 
L 352.441322 -152.859177 
L 353.318128 -152.640853 
L 354.232398 -152.422529 
L 355.179083 -152.204204 
L 356.152248 -151.98588 
L 357.145109 -151.767556 
L 358.150093 -151.549232 
L 359.15892 -151.330907 
L 360.162714 -151.112583 
L 361.152125 -150.894259 
L 362.117482 -150.675934 
L 363.048957 -150.45761 
L 363.936737 -150.239286 
L 364.771218 -150.020962 
L 365.543193 -149.802637 
L 366.244041 -149.584313 
L 366.865915 -149.365989 
L 367.401914 -149.147664 
L 367.846241 -148.92934 
L 368.19434 -148.711016 
L 368.443007 -148.492692 
L 368.590477 -148.274367 
L 368.636468 -148.056043 
L 368.582205 -147.837719 
L 368.430399 -147.619394 
L 368.1852 -147.40107 
L 367.852105 -147.182746 
L 367.437849 -146.964422 
L 366.950254 -146.746097 
L 366.398062 -146.527773 
L 365.790744 -146.309449 
L 365.138295 -146.091124 
L 364.451017 -145.8728 
L 363.739303 -145.654476 
L 363.013418 -145.436151 
L 362.283287 -145.217827 
L 361.5583 -144.999503 
L 360.847131 -144.781179 
L 360.157579 -144.562854 
L 359.496437 -144.34453 
L 358.869387 -144.126206 
L 358.280925 -143.907881 
L 357.734319 -143.689557 
L 357.231599 -143.471233 
L 356.773576 -143.252909 
L 356.359894 -143.034584 
L 355.989101 -142.81626 
L 355.658758 -142.597936 
L 355.365555 -142.379611 
L 355.105453 -142.161287 
L 354.873832 -141.942963 
L 354.665653 -141.724639 
L 354.475618 -141.506314 
L 354.298328 -141.28799 
L 354.128443 -141.069666 
L 353.960821 -140.851341 
L 353.790653 -140.633017 
L 353.613575 -140.414693 
L 353.425766 -140.196368 
L 353.224022 -139.978044 
L 353.005806 -139.75972 
L 352.769286 -139.541396 
L 352.513338 -139.323071 
L 352.23754 -139.104747 
L 351.942138 -138.886423 
L 351.628 -138.668098 
L 351.296553 -138.449774 
L 350.949714 -138.23145 
L 350.589803 -138.013126 
L 350.219459 -137.794801 
L 349.841546 -137.576477 
L 349.459069 -137.358153 
L 349.075084 -137.139828 
L 348.692618 -136.921504 
L 348.314593 -136.70318 
L 347.943769 -136.484856 
L 347.58268 -136.266531 
L 347.233599 -136.048207 
L 346.8985 -135.829883 
L 346.579041 -135.611558 
L 346.276549 -135.393234 
L 345.992026 -135.17491 
L 345.726147 -134.956586 
L 345.479287 -134.738261 
L 345.251531 -134.519937 
L 345.042711 -134.301613 
L 344.852427 -134.083288 
L 344.680086 -133.864964 
z
" style="stroke: #171717"/>
    </defs>
    <g clip-path="url(#pb4781f7b47)">
     <use xlink:href="#mf629985001" x="0" y="216" style="fill: #825d50; stroke: #171717"/>
    </g>
   </g>
   <g id="PolyCollection_6">
    <defs>
     <path id="m06419d94af" d="M 408.173 -73.49255 
L 404.483335 -73.49255 
L 404.180819 -74.509021 
L 403.84101 -75.525493 
L 403.461577 -76.541964 
L 403.040431 -77.558436 
L 402.575807 -78.574907 
L 402.066331 -79.591379 
L 401.511104 -80.60785 
L 400.909766 -81.624321 
L 400.262571 -82.640793 
L 399.570439 -83.657264 
L 398.835003 -84.673736 
L 398.058645 -85.690207 
L 397.24451 -86.706679 
L 396.396502 -87.72315 
L 395.519268 -88.739621 
L 394.618146 -89.756093 
L 393.699109 -90.772564 
L 392.768677 -91.789036 
L 391.833813 -92.805507 
L 390.901806 -93.821979 
L 389.980129 -94.83845 
L 389.0763 -95.854922 
L 388.197727 -96.871393 
L 387.351551 -97.887864 
L 386.544499 -98.904336 
L 385.782731 -99.920807 
L 385.071711 -100.937279 
L 384.416088 -101.95375 
L 383.819596 -102.970222 
L 383.284979 -103.986693 
L 382.813938 -105.003165 
L 382.407111 -106.019636 
L 382.06407 -107.036107 
L 381.783357 -108.052579 
L 381.562535 -109.06905 
L 381.398273 -110.085522 
L 381.286445 -111.101993 
L 381.222255 -112.118465 
L 381.200368 -113.134936 
L 381.215061 -114.151408 
L 381.260381 -115.167879 
L 381.330298 -116.18435 
L 381.418867 -117.200822 
L 381.520379 -118.217293 
L 381.62951 -119.233765 
L 381.74145 -120.250236 
L 381.852028 -121.266708 
L 381.957809 -122.283179 
L 382.056179 -123.29965 
L 382.145407 -124.316122 
L 382.224679 -125.332593 
L 382.294118 -126.349065 
L 382.354771 -127.365536 
L 382.408574 -128.382008 
L 382.458294 -129.398479 
L 382.50745 -130.414951 
L 382.560212 -131.431422 
L 382.621277 -132.447893 
L 382.695737 -133.464365 
L 382.788928 -134.480836 
L 382.906275 -135.497308 
L 383.053133 -136.513779 
L 383.234621 -137.530251 
L 383.455475 -138.546722 
L 383.719894 -139.563194 
L 384.031412 -140.579665 
L 384.392787 -141.596136 
L 384.805902 -142.612608 
L 385.271705 -143.629079 
L 385.790161 -144.645551 
L 386.360242 -145.662022 
L 386.979941 -146.678494 
L 387.646312 -147.694965 
L 388.355538 -148.711436 
L 389.103018 -149.727908 
L 389.883481 -150.744379 
L 390.691104 -151.760851 
L 391.519656 -152.777322 
L 392.362633 -153.793794 
L 393.213412 -154.810265 
L 394.065386 -155.826737 
L 394.912104 -156.843208 
L 395.747398 -157.859679 
L 396.565492 -158.876151 
L 397.361099 -159.892622 
L 398.129499 -160.909094 
L 398.866598 -161.925565 
L 399.568964 -162.942037 
L 400.233851 -163.958508 
L 400.859196 -164.97498 
L 401.443606 -165.991451 
L 401.986327 -167.007922 
L 402.487201 -168.024394 
L 402.946614 -169.040865 
L 403.365434 -170.057337 
L 403.744945 -171.073808 
L 404.086782 -172.09028 
L 404.392859 -173.106751 
L 404.665305 -174.123223 
L 407.99103 -174.123223 
L 407.99103 -174.123223 
L 408.263476 -173.106751 
L 408.569553 -172.09028 
L 408.91139 -171.073808 
L 409.290901 -170.057337 
L 409.709721 -169.040865 
L 410.169134 -168.024394 
L 410.670008 -167.007922 
L 411.212729 -165.991451 
L 411.797139 -164.97498 
L 412.422484 -163.958508 
L 413.08737 -162.942037 
L 413.789737 -161.925565 
L 414.526835 -160.909094 
L 415.295236 -159.892622 
L 416.090843 -158.876151 
L 416.908937 -157.859679 
L 417.744231 -156.843208 
L 418.590949 -155.826737 
L 419.442923 -154.810265 
L 420.293702 -153.793794 
L 421.136679 -152.777322 
L 421.96523 -151.760851 
L 422.772854 -150.744379 
L 423.553316 -149.727908 
L 424.300797 -148.711436 
L 425.010023 -147.694965 
L 425.676394 -146.678494 
L 426.296093 -145.662022 
L 426.866174 -144.645551 
L 427.38463 -143.629079 
L 427.850432 -142.612608 
L 428.263548 -141.596136 
L 428.624923 -140.579665 
L 428.936441 -139.563194 
L 429.20086 -138.546722 
L 429.421713 -137.530251 
L 429.603202 -136.513779 
L 429.75006 -135.497308 
L 429.867407 -134.480836 
L 429.960598 -133.464365 
L 430.035057 -132.447893 
L 430.096122 -131.431422 
L 430.148884 -130.414951 
L 430.198041 -129.398479 
L 430.247761 -128.382008 
L 430.301564 -127.365536 
L 430.362216 -126.349065 
L 430.431656 -125.332593 
L 430.510928 -124.316122 
L 430.600155 -123.29965 
L 430.698526 -122.283179 
L 430.804307 -121.266708 
L 430.914885 -120.250236 
L 431.026825 -119.233765 
L 431.135956 -118.217293 
L 431.237468 -117.200822 
L 431.326036 -116.18435 
L 431.395953 -115.167879 
L 431.441273 -114.151408 
L 431.455967 -113.134936 
L 431.43408 -112.118465 
L 431.369889 -111.101993 
L 431.258062 -110.085522 
L 431.0938 -109.06905 
L 430.872978 -108.052579 
L 430.592265 -107.036107 
L 430.249224 -106.019636 
L 429.842396 -105.003165 
L 429.371356 -103.986693 
L 428.836738 -102.970222 
L 428.240246 -101.95375 
L 427.584624 -100.937279 
L 426.873604 -99.920807 
L 426.111836 -98.904336 
L 425.304783 -97.887864 
L 424.458608 -96.871393 
L 423.580035 -95.854922 
L 422.676206 -94.83845 
L 421.754529 -93.821979 
L 420.822521 -92.805507 
L 419.887658 -91.789036 
L 418.957226 -90.772564 
L 418.038189 -89.756093 
L 417.137067 -88.739621 
L 416.259832 -87.72315 
L 415.411825 -86.706679 
L 414.59769 -85.690207 
L 413.821332 -84.673736 
L 413.085896 -83.657264 
L 412.393763 -82.640793 
L 411.746568 -81.624321 
L 411.145231 -80.60785 
L 410.590004 -79.591379 
L 410.080528 -78.574907 
L 409.615904 -77.558436 
L 409.194758 -76.541964 
L 408.815324 -75.525493 
L 408.475515 -74.509021 
L 408.173 -73.49255 
z
" style="stroke: #171717"/>
    </defs>
    <g clip-path="url(#pb4781f7b47)">
     <use xlink:href="#m06419d94af" x="0" y="216" style="fill: #d9947b; stroke: #171717"/>
    </g>
   </g>
   <g id="matplotlib.axis_3">
    <g id="xtick_4">
     <g id="line2d_19">
      <g>
       <use xlink:href="#m385d088cd6" x="280.689169" y="174.612" style="stroke: #000000"/>
      </g>
     </g>
     <g id="text_14">
      <!-- NIZ -->
      <g transform="translate(273.085419 189.598625) scale(0.088 -0.088)">
       <use xlink:href="#DejaVuSans-4e"/>
       <use xlink:href="#DejaVuSans-49" x="74.804688"/>
       <use xlink:href="#DejaVuSans-5a" x="104.296875"/>
      </g>
     </g>
    </g>
    <g id="xtick_5">
     <g id="line2d_20">
      <g>
       <use xlink:href="#m385d088cd6" x="343.508668" y="174.612" style="stroke: #000000"/>
      </g>
     </g>
     <g id="text_15">
      <!-- PZ -->
      <g transform="translate(337.841606 189.598625) scale(0.088 -0.088)">
       <use xlink:href="#DejaVuSans-50"/>
       <use xlink:href="#DejaVuSans-5a" x="60.302734"/>
      </g>
     </g>
    </g>
    <g id="xtick_6">
     <g id="line2d_21">
      <g>
       <use xlink:href="#m385d088cd6" x="406.328167" y="174.612" style="stroke: #000000"/>
      </g>
     </g>
     <g id="text_16">
      <!-- SOZ -->
      <g transform="translate(397.05723 189.598625) scale(0.088 -0.088)">
       <use xlink:href="#DejaVuSans-53"/>
       <use xlink:href="#DejaVuSans-4f" x="63.476562"/>
       <use xlink:href="#DejaVuSans-5a" x="142.1875"/>
      </g>
     </g>
    </g>
    <g id="text_17">
     <!-- region -->
     <g transform="translate(328.330168 202.72325) scale(0.096 -0.096)">
      <use xlink:href="#DejaVuSans-72"/>
      <use xlink:href="#DejaVuSans-65" x="38.863281"/>
      <use xlink:href="#DejaVuSans-67" x="100.386719"/>
      <use xlink:href="#DejaVuSans-69" x="163.863281"/>
      <use xlink:href="#DejaVuSans-6f" x="191.646484"/>
      <use xlink:href="#DejaVuSans-6e" x="252.828125"/>
     </g>
    </g>
   </g>
   <g id="matplotlib.axis_4">
    <g id="ytick_7">
     <g id="line2d_22">
      <g>
       <use xlink:href="#m58ad8287e3" x="249.279419" y="165.528729" style="stroke: #000000"/>
      </g>
     </g>
    </g>
    <g id="ytick_8">
     <g id="line2d_23">
      <g>
       <use xlink:href="#m58ad8287e3" x="249.279419" y="140.593832" style="stroke: #000000"/>
      </g>
     </g>
    </g>
    <g id="ytick_9">
     <g id="line2d_24">
      <g>
       <use xlink:href="#m58ad8287e3" x="249.279419" y="115.658935" style="stroke: #000000"/>
      </g>
     </g>
    </g>
    <g id="ytick_10">
     <g id="line2d_25">
      <g>
       <use xlink:href="#m58ad8287e3" x="249.279419" y="90.724038" style="stroke: #000000"/>
      </g>
     </g>
    </g>
    <g id="ytick_11">
     <g id="line2d_26">
      <g>
       <use xlink:href="#m58ad8287e3" x="249.279419" y="65.789141" style="stroke: #000000"/>
      </g>
     </g>
    </g>
    <g id="ytick_12">
     <g id="line2d_27">
      <g>
       <use xlink:href="#m58ad8287e3" x="249.279419" y="40.854243" style="stroke: #000000"/>
      </g>
     </g>
    </g>
   </g>
   <g id="line2d_28">
    <path d="M 280.689169 71.457191 
L 280.689169 69.419337 
" clip-path="url(#pb4781f7b47)" style="fill: none; stroke: #171717; stroke-width: 1.5; stroke-linecap: square"/>
   </g>
   <g id="line2d_29">
    <path d="M 280.689169 71.457191 
L 280.689169 69.639505 
" clip-path="url(#pb4781f7b47)" style="fill: none; stroke: #171717; stroke-width: 4.5; stroke-linecap: square"/>
   </g>
   <g id="line2d_30">
    <path d="M 280.689169 71.153228 
" clip-path="url(#pb4781f7b47)" style="fill: none; stroke: #171717; stroke-width: 1.2; stroke-linecap: square"/>
    <g clip-path="url(#pb4781f7b47)">
     <use xlink:href="#m06f841fdb9" x="280.689169" y="71.153228" style="fill: #ffffff; stroke: #ffffff; stroke-width: 0.9"/>
    </g>
   </g>
   <g id="line2d_31">
    <path d="M 343.508668 70.766362 
L 343.508668 66.783604 
" clip-path="url(#pb4781f7b47)" style="fill: none; stroke: #171717; stroke-width: 1.5; stroke-linecap: square"/>
   </g>
   <g id="line2d_32">
    <path d="M 343.508668 70.766362 
L 343.508668 67.418529 
" clip-path="url(#pb4781f7b47)" style="fill: none; stroke: #171717; stroke-width: 4.5; stroke-linecap: square"/>
   </g>
   <g id="line2d_33">
    <path d="M 343.508668 68.347266 
" clip-path="url(#pb4781f7b47)" style="fill: none; stroke: #171717; stroke-width: 1.2; stroke-linecap: square"/>
    <g clip-path="url(#pb4781f7b47)">
     <use xlink:href="#m06f841fdb9" x="343.508668" y="68.347266" style="fill: #ffffff; stroke: #ffffff; stroke-width: 0.9"/>
    </g>
   </g>
   <g id="line2d_34">
    <path d="M 406.328167 114.406554 
L 406.328167 69.977673 
" clip-path="url(#pb4781f7b47)" style="fill: none; stroke: #171717; stroke-width: 1.5; stroke-linecap: square"/>
   </g>
   <g id="line2d_35">
    <path d="M 406.328167 109.204467 
L 406.328167 77.174325 
" clip-path="url(#pb4781f7b47)" style="fill: none; stroke: #171717; stroke-width: 4.5; stroke-linecap: square"/>
   </g>
   <g id="line2d_36">
    <path d="M 406.328167 94.392864 
" clip-path="url(#pb4781f7b47)" style="fill: none; stroke: #171717; stroke-width: 1.2; stroke-linecap: square"/>
    <g clip-path="url(#pb4781f7b47)">
     <use xlink:href="#m06f841fdb9" x="406.328167" y="94.392864" style="fill: #ffffff; stroke: #ffffff; stroke-width: 0.9"/>
    </g>
   </g>
   <g id="patch_6">
    <path d="M 249.279419 174.612 
L 249.279419 23.568 
" style="fill: none; stroke: #000000; stroke-linejoin: miter; stroke-linecap: square"/>
   </g>
   <g id="patch_7">
    <path d="M 249.279419 174.612 
L 437.737917 174.612 
" style="fill: none; stroke: #000000; stroke-linejoin: miter; stroke-linecap: square"/>
   </g>
   <g id="text_18">
    <!-- period = pre -->
    <g transform="translate(313.277668 17.568) scale(0.096 -0.096)">
     <use xlink:href="#DejaVuSans-70"/>
     <use xlink:href="#DejaVuSans-65" x="63.476562"/>
     <use xlink:href="#DejaVuSans-72" x="125"/>
     <use xlink:href="#DejaVuSans-69" x="166.113281"/>
     <use xlink:href="#DejaVuSans-6f" x="193.896484"/>
     <use xlink:href="#DejaVuSans-64" x="255.078125"/>
     <use xlink:href="#DejaVuSans-20" x="318.554688"/>
     <use xlink:href="#DejaVuSans-3d" x="350.341797"/>
     <use xlink:href="#DejaVuSans-20" x="434.130859"/>
     <use xlink:href="#DejaVuSans-70" x="465.917969"/>
     <use xlink:href="#DejaVuSans-72" x="529.394531"/>
     <use xlink:href="#DejaVuSans-65" x="568.257812"/>
    </g>
   </g>
  </g>
  <g id="axes_3">
   <g id="patch_8">
    <path d="M 452.991102 174.612 
L 641.4496 174.612 
L 641.4496 23.568 
L 452.991102 23.568 
L 452.991102 174.612 
z
" style="fill: none"/>
   </g>
   <g id="PolyCollection_7">
    <defs>
     <path id="ma454335ec6" d="M 485.788355 -142.792528 
L 483.013349 -142.792528 
L 482.776481 -142.851336 
L 482.509204 -142.910144 
L 482.20951 -142.968952 
L 481.875585 -143.02776 
L 481.505881 -143.086568 
L 481.099171 -143.145376 
L 480.654622 -143.204184 
L 480.171847 -143.262992 
L 479.650964 -143.3218 
L 479.092637 -143.380608 
L 478.498117 -143.439416 
L 477.869255 -143.498224 
L 477.208515 -143.557032 
L 476.518956 -143.61584 
L 475.804207 -143.674648 
L 475.068416 -143.733456 
L 474.316183 -143.792264 
L 473.552474 -143.851072 
L 472.782522 -143.909881 
L 472.011712 -143.968689 
L 471.245458 -144.027497 
L 470.489073 -144.086305 
L 469.747635 -144.145113 
L 469.025865 -144.203921 
L 468.328002 -144.262729 
L 467.657702 -144.321537 
L 467.017949 -144.380345 
L 466.410987 -144.439153 
L 465.838286 -144.497961 
L 465.300523 -144.556769 
L 464.797609 -144.615577 
L 464.328728 -144.674385 
L 463.892415 -144.733193 
L 463.486662 -144.792001 
L 463.109032 -144.850809 
L 462.756807 -144.909617 
L 462.427133 -144.968425 
L 462.11718 -145.027233 
L 461.824295 -145.086041 
L 461.546144 -145.14485 
L 461.280845 -145.203658 
L 461.027076 -145.262466 
L 460.784155 -145.321274 
L 460.552097 -145.380082 
L 460.331632 -145.43889 
L 460.124192 -145.497698 
L 459.931874 -145.556506 
L 459.757358 -145.615314 
L 459.603819 -145.674122 
L 459.4748 -145.73293 
L 459.374087 -145.791738 
L 459.305559 -145.850546 
L 459.273052 -145.909354 
L 459.280219 -145.968162 
L 459.330399 -146.02697 
L 459.426511 -146.085778 
L 459.570955 -146.144586 
L 459.765547 -146.203394 
L 460.011468 -146.262202 
L 460.309244 -146.32101 
L 460.658744 -146.379818 
L 461.059198 -146.438627 
L 461.509235 -146.497435 
L 462.00693 -146.556243 
L 462.549868 -146.615051 
L 463.135204 -146.673859 
L 463.759733 -146.732667 
L 464.419955 -146.791475 
L 465.112137 -146.850283 
L 465.832369 -146.909091 
L 466.576617 -146.967899 
L 467.340764 -147.026707 
L 468.120652 -147.085515 
L 468.912108 -147.144323 
L 469.710978 -147.203131 
L 470.51315 -147.261939 
L 471.314578 -147.320747 
L 472.111309 -147.379555 
L 472.899506 -147.438363 
L 473.675477 -147.497171 
L 474.435703 -147.555979 
L 475.176867 -147.614787 
L 475.895889 -147.673595 
L 476.589954 -147.732404 
L 477.256546 -147.791212 
L 477.893469 -147.85002 
L 478.498877 -147.908828 
L 479.071288 -147.967636 
L 479.609596 -148.026444 
L 480.113078 -148.085252 
L 480.581389 -148.14406 
L 481.014551 -148.202868 
L 481.412937 -148.261676 
L 481.777245 -148.320484 
L 482.108469 -148.379292 
L 482.407859 -148.4381 
L 482.676888 -148.496908 
L 482.917207 -148.555716 
L 483.130604 -148.614524 
L 485.6711 -148.614524 
L 485.6711 -148.614524 
L 485.884498 -148.555716 
L 486.124816 -148.496908 
L 486.393845 -148.4381 
L 486.693235 -148.379292 
L 487.024459 -148.320484 
L 487.388767 -148.261676 
L 487.787153 -148.202868 
L 488.220315 -148.14406 
L 488.688626 -148.085252 
L 489.192108 -148.026444 
L 489.730416 -147.967636 
L 490.302827 -147.908828 
L 490.908235 -147.85002 
L 491.545158 -147.791212 
L 492.21175 -147.732404 
L 492.905816 -147.673595 
L 493.624838 -147.614787 
L 494.366002 -147.555979 
L 495.126227 -147.497171 
L 495.902198 -147.438363 
L 496.690395 -147.379555 
L 497.487126 -147.320747 
L 498.288554 -147.261939 
L 499.090726 -147.203131 
L 499.889596 -147.144323 
L 500.681052 -147.085515 
L 501.46094 -147.026707 
L 502.225087 -146.967899 
L 502.969335 -146.909091 
L 503.689567 -146.850283 
L 504.381749 -146.791475 
L 505.041971 -146.732667 
L 505.6665 -146.673859 
L 506.251836 -146.615051 
L 506.794774 -146.556243 
L 507.292469 -146.497435 
L 507.742506 -146.438627 
L 508.14296 -146.379818 
L 508.49246 -146.32101 
L 508.790236 -146.262202 
L 509.036158 -146.203394 
L 509.230749 -146.144586 
L 509.375193 -146.085778 
L 509.471305 -146.02697 
L 509.521485 -145.968162 
L 509.528652 -145.909354 
L 509.496145 -145.850546 
L 509.427617 -145.791738 
L 509.326904 -145.73293 
L 509.197886 -145.674122 
L 509.044346 -145.615314 
L 508.869831 -145.556506 
L 508.677512 -145.497698 
L 508.470072 -145.43889 
L 508.249607 -145.380082 
L 508.017549 -145.321274 
L 507.774628 -145.262466 
L 507.520859 -145.203658 
L 507.25556 -145.14485 
L 506.977409 -145.086041 
L 506.684524 -145.027233 
L 506.374571 -144.968425 
L 506.044897 -144.909617 
L 505.692672 -144.850809 
L 505.315042 -144.792001 
L 504.909289 -144.733193 
L 504.472977 -144.674385 
L 504.004095 -144.615577 
L 503.501181 -144.556769 
L 502.963418 -144.497961 
L 502.390717 -144.439153 
L 501.783755 -144.380345 
L 501.144002 -144.321537 
L 500.473702 -144.262729 
L 499.77584 -144.203921 
L 499.054069 -144.145113 
L 498.312631 -144.086305 
L 497.556246 -144.027497 
L 496.789992 -143.968689 
L 496.019182 -143.909881 
L 495.24923 -143.851072 
L 494.485521 -143.792264 
L 493.733288 -143.733456 
L 492.997497 -143.674648 
L 492.282748 -143.61584 
L 491.593189 -143.557032 
L 490.932449 -143.498224 
L 490.303587 -143.439416 
L 489.709067 -143.380608 
L 489.15074 -143.3218 
L 488.629857 -143.262992 
L 488.147082 -143.204184 
L 487.702533 -143.145376 
L 487.295823 -143.086568 
L 486.926119 -143.02776 
L 486.592194 -142.968952 
L 486.2925 -142.910144 
L 486.025223 -142.851336 
L 485.788355 -142.792528 
z
" style="stroke: #171717"/>
    </defs>
    <g clip-path="url(#pec5b484204)">
     <use xlink:href="#ma454335ec6" x="0" y="216" style="fill: #292524; stroke: #171717"/>
    </g>
   </g>
   <g id="PolyCollection_8">
    <defs>
     <path id="m01e98b6c87" d="M 548.390703 -148.301399 
L 546.049999 -148.301399 
L 545.877241 -148.322837 
L 545.686443 -148.344276 
L 545.477009 -148.365715 
L 545.248542 -148.387154 
L 545.000874 -148.408593 
L 544.734102 -148.430032 
L 544.448609 -148.451471 
L 544.14509 -148.47291 
L 543.824565 -148.494348 
L 543.48839 -148.515787 
L 543.138251 -148.537226 
L 542.776158 -148.558665 
L 542.404419 -148.580104 
L 542.025609 -148.601543 
L 541.642526 -148.622982 
L 541.258132 -148.644421 
L 540.87549 -148.665859 
L 540.49769 -148.687298 
L 540.12776 -148.708737 
L 539.768584 -148.730176 
L 539.422809 -148.751615 
L 539.092751 -148.773054 
L 538.780309 -148.794493 
L 538.486879 -148.815931 
L 538.213283 -148.83737 
L 537.959705 -148.858809 
L 537.725644 -148.880248 
L 537.509886 -148.901687 
L 537.310493 -148.923126 
L 537.124813 -148.944565 
L 536.94952 -148.966004 
L 536.780664 -148.987442 
L 536.613753 -149.008881 
L 536.443853 -149.03032 
L 536.265708 -149.051759 
L 536.073873 -149.073198 
L 535.862868 -149.094637 
L 535.627333 -149.116076 
L 535.362196 -149.137515 
L 535.062836 -149.158953 
L 534.725247 -149.180392 
L 534.346191 -149.201831 
L 533.923337 -149.22327 
L 533.455385 -149.244709 
L 532.942162 -149.266148 
L 532.384703 -149.287587 
L 531.785289 -149.309025 
L 531.147469 -149.330464 
L 530.476038 -149.351903 
L 529.776992 -149.373342 
L 529.057439 -149.394781 
L 528.325491 -149.41622 
L 527.590121 -149.437659 
L 526.860993 -149.459098 
L 526.148276 -149.480536 
L 525.462435 -149.501975 
L 524.814015 -149.523414 
L 524.213417 -149.544853 
L 523.670674 -149.566292 
L 523.195229 -149.587731 
L 522.795735 -149.60917 
L 522.479859 -149.630609 
L 522.254119 -149.652047 
L 522.123741 -149.673486 
L 522.092552 -149.694925 
L 522.162897 -149.716364 
L 522.335605 -149.737803 
L 522.609975 -149.759242 
L 522.983808 -149.780681 
L 523.453472 -149.80212 
L 524.013989 -149.823558 
L 524.659167 -149.844997 
L 525.381738 -149.866436 
L 526.173529 -149.887875 
L 527.025642 -149.909314 
L 527.928645 -149.930753 
L 528.872764 -149.952192 
L 529.848081 -149.97363 
L 530.844714 -149.995069 
L 531.852999 -150.016508 
L 532.863649 -150.037947 
L 533.867894 -150.059386 
L 534.857609 -150.080825 
L 535.825412 -150.102264 
L 536.764737 -150.123703 
L 537.669891 -150.145141 
L 538.536084 -150.16658 
L 539.359431 -150.188019 
L 540.136948 -150.209458 
L 540.866512 -150.230897 
L 541.546819 -150.252336 
L 542.177327 -150.273775 
L 542.758179 -150.295214 
L 543.290133 -150.316652 
L 543.774476 -150.338091 
L 544.212942 -150.35953 
L 544.607631 -150.380969 
L 544.960925 -150.402408 
L 545.275412 -150.423847 
L 549.16529 -150.423847 
L 549.16529 -150.423847 
L 549.479777 -150.402408 
L 549.833071 -150.380969 
L 550.22776 -150.35953 
L 550.666227 -150.338091 
L 551.15057 -150.316652 
L 551.682524 -150.295214 
L 552.263376 -150.273775 
L 552.893883 -150.252336 
L 553.574191 -150.230897 
L 554.303754 -150.209458 
L 555.081271 -150.188019 
L 555.904619 -150.16658 
L 556.770811 -150.145141 
L 557.675966 -150.123703 
L 558.615291 -150.102264 
L 559.583093 -150.080825 
L 560.572809 -150.059386 
L 561.577054 -150.037947 
L 562.587703 -150.016508 
L 563.595988 -149.995069 
L 564.592622 -149.97363 
L 565.567938 -149.952192 
L 566.512058 -149.930753 
L 567.415061 -149.909314 
L 568.267174 -149.887875 
L 569.058965 -149.866436 
L 569.781535 -149.844997 
L 570.426713 -149.823558 
L 570.987231 -149.80212 
L 571.456894 -149.780681 
L 571.830728 -149.759242 
L 572.105097 -149.737803 
L 572.277805 -149.716364 
L 572.348151 -149.694925 
L 572.316961 -149.673486 
L 572.186584 -149.652047 
L 571.960844 -149.630609 
L 571.644968 -149.60917 
L 571.245473 -149.587731 
L 570.770029 -149.566292 
L 570.227285 -149.544853 
L 569.626687 -149.523414 
L 568.978268 -149.501975 
L 568.292427 -149.480536 
L 567.579709 -149.459098 
L 566.850581 -149.437659 
L 566.115211 -149.41622 
L 565.383263 -149.394781 
L 564.66371 -149.373342 
L 563.964664 -149.351903 
L 563.293234 -149.330464 
L 562.655414 -149.309025 
L 562.056 -149.287587 
L 561.49854 -149.266148 
L 560.985318 -149.244709 
L 560.517365 -149.22327 
L 560.094512 -149.201831 
L 559.715456 -149.180392 
L 559.377867 -149.158953 
L 559.078507 -149.137515 
L 558.813369 -149.116076 
L 558.577834 -149.094637 
L 558.366829 -149.073198 
L 558.174994 -149.051759 
L 557.996849 -149.03032 
L 557.82695 -149.008881 
L 557.660039 -148.987442 
L 557.491182 -148.966004 
L 557.315889 -148.944565 
L 557.13021 -148.923126 
L 556.930816 -148.901687 
L 556.715058 -148.880248 
L 556.480997 -148.858809 
L 556.227419 -148.83737 
L 555.953824 -148.815931 
L 555.660394 -148.794493 
L 555.347952 -148.773054 
L 555.017894 -148.751615 
L 554.672119 -148.730176 
L 554.312943 -148.708737 
L 553.943013 -148.687298 
L 553.565212 -148.665859 
L 553.182571 -148.644421 
L 552.798177 -148.622982 
L 552.415093 -148.601543 
L 552.036284 -148.580104 
L 551.664545 -148.558665 
L 551.302451 -148.537226 
L 550.952313 -148.515787 
L 550.616137 -148.494348 
L 550.295613 -148.47291 
L 549.992094 -148.451471 
L 549.706601 -148.430032 
L 549.439828 -148.408593 
L 549.192161 -148.387154 
L 548.963693 -148.365715 
L 548.754259 -148.344276 
L 548.563461 -148.322837 
L 548.390703 -148.301399 
z
" style="stroke: #171717"/>
    </defs>
    <g clip-path="url(#pec5b484204)">
     <use xlink:href="#m01e98b6c87" x="0" y="216" style="fill: #825d50; stroke: #171717"/>
    </g>
   </g>
   <g id="PolyCollection_9">
    <defs>
     <path id="m0466385d0a" d="M 612.104426 -138.742701 
L 607.975274 -138.742701 
L 607.642447 -138.880348 
L 607.269883 -139.017995 
L 606.85538 -139.155642 
L 606.397052 -139.293289 
L 605.893413 -139.430936 
L 605.343452 -139.568583 
L 604.746716 -139.70623 
L 604.103377 -139.843877 
L 603.4143 -139.981524 
L 602.681092 -140.119171 
L 601.906137 -140.256818 
L 601.092617 -140.394465 
L 600.244509 -140.532112 
L 599.366564 -140.669759 
L 598.464257 -140.807406 
L 597.543725 -140.945052 
L 596.611665 -141.082699 
L 595.675231 -141.220346 
L 594.741893 -141.357993 
L 593.819297 -141.49564 
L 592.915098 -141.633287 
L 592.036799 -141.770934 
L 591.19158 -141.908581 
L 590.386133 -142.046228 
L 589.626508 -142.183875 
L 588.917971 -142.321522 
L 588.264883 -142.459169 
L 587.670601 -142.596816 
L 587.137409 -142.734463 
L 586.666478 -142.87211 
L 586.257856 -143.009757 
L 585.910491 -143.147404 
L 585.622285 -143.285051 
L 585.39018 -143.422698 
L 585.210259 -143.560344 
L 585.077886 -143.697991 
L 584.987849 -143.835638 
L 584.934526 -143.973285 
L 584.912051 -144.110932 
L 584.914489 -144.248579 
L 584.936004 -144.386226 
L 584.971021 -144.523873 
L 585.014374 -144.66152 
L 585.061444 -144.799167 
L 585.108271 -144.936814 
L 585.151651 -145.074461 
L 585.189203 -145.212108 
L 585.219423 -145.349755 
L 585.241702 -145.487402 
L 585.25633 -145.625049 
L 585.264469 -145.762696 
L 585.268111 -145.900343 
L 585.270011 -146.037989 
L 585.273604 -146.175636 
L 585.282906 -146.313283 
L 585.302402 -146.45093 
L 585.336921 -146.588577 
L 585.391506 -146.726224 
L 585.471277 -146.863871 
L 585.581291 -147.001518 
L 585.726408 -147.139165 
L 585.911158 -147.276812 
L 586.139614 -147.414459 
L 586.415278 -147.552106 
L 586.740984 -147.689753 
L 587.118808 -147.8274 
L 587.550004 -147.965047 
L 588.034957 -148.102694 
L 588.57316 -148.240341 
L 589.163208 -148.377988 
L 589.802821 -148.515635 
L 590.488881 -148.653281 
L 591.217495 -148.790928 
L 591.984077 -148.928575 
L 592.783439 -149.066222 
L 593.609905 -149.203869 
L 594.457427 -149.341516 
L 595.31971 -149.479163 
L 596.190341 -149.61681 
L 597.062916 -149.754457 
L 597.931161 -149.892104 
L 598.789046 -150.029751 
L 599.630888 -150.167398 
L 600.451444 -150.305045 
L 601.245984 -150.442692 
L 602.01035 -150.580339 
L 602.740998 -150.717986 
L 603.435024 -150.855633 
L 604.090171 -150.99328 
L 604.704823 -151.130927 
L 605.277985 -151.268573 
L 605.809246 -151.40622 
L 606.298737 -151.543867 
L 606.747081 -151.681514 
L 607.15533 -151.819161 
L 607.524909 -151.956808 
L 607.857548 -152.094455 
L 608.155219 -152.232102 
L 608.420078 -152.369749 
L 611.659622 -152.369749 
L 611.659622 -152.369749 
L 611.924481 -152.232102 
L 612.222153 -152.094455 
L 612.554791 -151.956808 
L 612.92437 -151.819161 
L 613.33262 -151.681514 
L 613.780964 -151.543867 
L 614.270455 -151.40622 
L 614.801716 -151.268573 
L 615.374877 -151.130927 
L 615.98953 -150.99328 
L 616.644677 -150.855633 
L 617.338703 -150.717986 
L 618.069351 -150.580339 
L 618.833716 -150.442692 
L 619.628257 -150.305045 
L 620.448813 -150.167398 
L 621.290655 -150.029751 
L 622.14854 -149.892104 
L 623.016784 -149.754457 
L 623.889359 -149.61681 
L 624.759991 -149.479163 
L 625.622274 -149.341516 
L 626.469795 -149.203869 
L 627.296261 -149.066222 
L 628.095624 -148.928575 
L 628.862205 -148.790928 
L 629.59082 -148.653281 
L 630.27688 -148.515635 
L 630.916492 -148.377988 
L 631.506541 -148.240341 
L 632.044744 -148.102694 
L 632.529697 -147.965047 
L 632.960893 -147.8274 
L 633.338716 -147.689753 
L 633.664422 -147.552106 
L 633.940087 -147.414459 
L 634.168543 -147.276812 
L 634.353293 -147.139165 
L 634.49841 -147.001518 
L 634.608424 -146.863871 
L 634.688195 -146.726224 
L 634.74278 -146.588577 
L 634.777299 -146.45093 
L 634.796795 -146.313283 
L 634.806097 -146.175636 
L 634.80969 -146.037989 
L 634.81159 -145.900343 
L 634.815231 -145.762696 
L 634.823371 -145.625049 
L 634.837998 -145.487402 
L 634.860278 -145.349755 
L 634.890498 -145.212108 
L 634.92805 -145.074461 
L 634.97143 -144.936814 
L 635.018257 -144.799167 
L 635.065327 -144.66152 
L 635.10868 -144.523873 
L 635.143697 -144.386226 
L 635.165212 -144.248579 
L 635.16765 -144.110932 
L 635.145175 -143.973285 
L 635.091852 -143.835638 
L 635.001815 -143.697991 
L 634.869442 -143.560344 
L 634.689521 -143.422698 
L 634.457415 -143.285051 
L 634.16921 -143.147404 
L 633.821845 -143.009757 
L 633.413223 -142.87211 
L 632.942292 -142.734463 
L 632.4091 -142.596816 
L 631.814818 -142.459169 
L 631.16173 -142.321522 
L 630.453193 -142.183875 
L 629.693568 -142.046228 
L 628.888121 -141.908581 
L 628.042902 -141.770934 
L 627.164603 -141.633287 
L 626.260404 -141.49564 
L 625.337808 -141.357993 
L 624.40447 -141.220346 
L 623.468036 -141.082699 
L 622.535976 -140.945052 
L 621.615444 -140.807406 
L 620.713137 -140.669759 
L 619.835192 -140.532112 
L 618.987084 -140.394465 
L 618.173564 -140.256818 
L 617.398609 -140.119171 
L 616.6654 -139.981524 
L 615.976324 -139.843877 
L 615.332985 -139.70623 
L 614.736249 -139.568583 
L 614.186288 -139.430936 
L 613.682649 -139.293289 
L 613.224321 -139.155642 
L 612.809818 -139.017995 
L 612.437254 -138.880348 
L 612.104426 -138.742701 
z
" style="stroke: #171717"/>
    </defs>
    <g clip-path="url(#pec5b484204)">
     <use xlink:href="#m0466385d0a" x="0" y="216" style="fill: #d9947b; stroke: #171717"/>
    </g>
   </g>
   <g id="matplotlib.axis_5">
    <g id="xtick_7">
     <g id="line2d_37">
      <g>
       <use xlink:href="#m385d088cd6" x="484.400852" y="174.612" style="stroke: #000000"/>
      </g>
     </g>
     <g id="text_19">
      <!-- NIZ -->
      <g transform="translate(476.797102 189.598625) scale(0.088 -0.088)">
       <use xlink:href="#DejaVuSans-4e"/>
       <use xlink:href="#DejaVuSans-49" x="74.804688"/>
       <use xlink:href="#DejaVuSans-5a" x="104.296875"/>
      </g>
     </g>
    </g>
    <g id="xtick_8">
     <g id="line2d_38">
      <g>
       <use xlink:href="#m385d088cd6" x="547.220351" y="174.612" style="stroke: #000000"/>
      </g>
     </g>
     <g id="text_20">
      <!-- PZ -->
      <g transform="translate(541.553289 189.598625) scale(0.088 -0.088)">
       <use xlink:href="#DejaVuSans-50"/>
       <use xlink:href="#DejaVuSans-5a" x="60.302734"/>
      </g>
     </g>
    </g>
    <g id="xtick_9">
     <g id="line2d_39">
      <g>
       <use xlink:href="#m385d088cd6" x="610.03985" y="174.612" style="stroke: #000000"/>
      </g>
     </g>
     <g id="text_21">
      <!-- SOZ -->
      <g transform="translate(600.768913 189.598625) scale(0.088 -0.088)">
       <use xlink:href="#DejaVuSans-53"/>
       <use xlink:href="#DejaVuSans-4f" x="63.476562"/>
       <use xlink:href="#DejaVuSans-5a" x="142.1875"/>
      </g>
     </g>
    </g>
    <g id="text_22">
     <!-- region -->
     <g transform="translate(532.041851 202.72325) scale(0.096 -0.096)">
      <use xlink:href="#DejaVuSans-72"/>
      <use xlink:href="#DejaVuSans-65" x="38.863281"/>
      <use xlink:href="#DejaVuSans-67" x="100.386719"/>
      <use xlink:href="#DejaVuSans-69" x="163.863281"/>
      <use xlink:href="#DejaVuSans-6f" x="191.646484"/>
      <use xlink:href="#DejaVuSans-6e" x="252.828125"/>
     </g>
    </g>
   </g>
   <g id="matplotlib.axis_6">
    <g id="ytick_13">
     <g id="line2d_40">
      <g>
       <use xlink:href="#m58ad8287e3" x="452.991102" y="165.528729" style="stroke: #000000"/>
      </g>
     </g>
    </g>
    <g id="ytick_14">
     <g id="line2d_41">
      <g>
       <use xlink:href="#m58ad8287e3" x="452.991102" y="140.593832" style="stroke: #000000"/>
      </g>
     </g>
    </g>
    <g id="ytick_15">
     <g id="line2d_42">
      <g>
       <use xlink:href="#m58ad8287e3" x="452.991102" y="115.658935" style="stroke: #000000"/>
      </g>
     </g>
    </g>
    <g id="ytick_16">
     <g id="line2d_43">
      <g>
       <use xlink:href="#m58ad8287e3" x="452.991102" y="90.724038" style="stroke: #000000"/>
      </g>
     </g>
    </g>
    <g id="ytick_17">
     <g id="line2d_44">
      <g>
       <use xlink:href="#m58ad8287e3" x="452.991102" y="65.789141" style="stroke: #000000"/>
      </g>
     </g>
    </g>
    <g id="ytick_18">
     <g id="line2d_45">
      <g>
       <use xlink:href="#m58ad8287e3" x="452.991102" y="40.854243" style="stroke: #000000"/>
      </g>
     </g>
    </g>
   </g>
   <g id="line2d_46">
    <path d="M 484.400852 71.658151 
L 484.400852 68.934797 
" clip-path="url(#pec5b484204)" style="fill: none; stroke: #171717; stroke-width: 1.5; stroke-linecap: square"/>
   </g>
   <g id="line2d_47">
    <path d="M 484.400852 71.069502 
L 484.400852 69.849608 
" clip-path="url(#pec5b484204)" style="fill: none; stroke: #171717; stroke-width: 4.5; stroke-linecap: square"/>
   </g>
   <g id="line2d_48">
    <path d="M 484.400852 70.041618 
" clip-path="url(#pec5b484204)" style="fill: none; stroke: #171717; stroke-width: 1.2; stroke-linecap: square"/>
    <g clip-path="url(#pec5b484204)">
     <use xlink:href="#m06f841fdb9" x="484.400852" y="70.041618" style="fill: #ffffff; stroke: #ffffff; stroke-width: 0.9"/>
    </g>
   </g>
   <g id="line2d_49">
    <path d="M 547.220351 66.580672 
L 547.220351 66.189137 
" clip-path="url(#pec5b484204)" style="fill: none; stroke: #171717; stroke-width: 1.5; stroke-linecap: square"/>
   </g>
   <g id="line2d_50">
    <path d="M 547.220351 66.580672 
L 547.220351 66.265837 
" clip-path="url(#pec5b484204)" style="fill: none; stroke: #171717; stroke-width: 4.5; stroke-linecap: square"/>
   </g>
   <g id="line2d_51">
    <path d="M 547.220351 66.35188 
" clip-path="url(#pec5b484204)" style="fill: none; stroke: #171717; stroke-width: 1.2; stroke-linecap: square"/>
    <g clip-path="url(#pec5b484204)">
     <use xlink:href="#m06f841fdb9" x="547.220351" y="66.35188" style="fill: #ffffff; stroke: #ffffff; stroke-width: 0.9"/>
    </g>
   </g>
   <g id="line2d_52">
    <path d="M 610.03985 73.441721 
L 610.03985 67.445829 
" clip-path="url(#pec5b484204)" style="fill: none; stroke: #171717; stroke-width: 1.5; stroke-linecap: square"/>
   </g>
   <g id="line2d_53">
    <path d="M 610.03985 72.972558 
L 610.03985 68.584666 
" clip-path="url(#pec5b484204)" style="fill: none; stroke: #171717; stroke-width: 4.5; stroke-linecap: square"/>
   </g>
   <g id="line2d_54">
    <path d="M 610.03985 70.590779 
" clip-path="url(#pec5b484204)" style="fill: none; stroke: #171717; stroke-width: 1.2; stroke-linecap: square"/>
    <g clip-path="url(#pec5b484204)">
     <use xlink:href="#m06f841fdb9" x="610.03985" y="70.590779" style="fill: #ffffff; stroke: #ffffff; stroke-width: 0.9"/>
    </g>
   </g>
   <g id="patch_9">
    <path d="M 452.991102 174.612 
L 452.991102 23.568 
" style="fill: none; stroke: #000000; stroke-linejoin: miter; stroke-linecap: square"/>
   </g>
   <g id="patch_10">
    <path d="M 452.991102 174.612 
L 641.4496 174.612 
" style="fill: none; stroke: #000000; stroke-linejoin: miter; stroke-linecap: square"/>
   </g>
   <g id="text_23">
    <!-- period = post -->
    <g transform="translate(514.488851 17.568) scale(0.096 -0.096)">
     <defs>
      <path id="DejaVuSans-73" d="M 2834 3397 
L 2834 2853 
Q 2591 2978 2328 3040 
Q 2066 3103 1784 3103 
Q 1356 3103 1142 2972 
Q 928 2841 928 2578 
Q 928 2378 1081 2264 
Q 1234 2150 1697 2047 
L 1894 2003 
Q 2506 1872 2764 1633 
Q 3022 1394 3022 966 
Q 3022 478 2636 193 
Q 2250 -91 1575 -91 
Q 1294 -91 989 -36 
Q 684 19 347 128 
L 347 722 
Q 666 556 975 473 
Q 1284 391 1588 391 
Q 1994 391 2212 530 
Q 2431 669 2431 922 
Q 2431 1156 2273 1281 
Q 2116 1406 1581 1522 
L 1381 1569 
Q 847 1681 609 1914 
Q 372 2147 372 2553 
Q 372 3047 722 3315 
Q 1072 3584 1716 3584 
Q 2034 3584 2315 3537 
Q 2597 3491 2834 3397 
z
" transform="scale(0.015625)"/>
     </defs>
     <use xlink:href="#DejaVuSans-70"/>
     <use xlink:href="#DejaVuSans-65" x="63.476562"/>
     <use xlink:href="#DejaVuSans-72" x="125"/>
     <use xlink:href="#DejaVuSans-69" x="166.113281"/>
     <use xlink:href="#DejaVuSans-6f" x="193.896484"/>
     <use xlink:href="#DejaVuSans-64" x="255.078125"/>
     <use xlink:href="#DejaVuSans-20" x="318.554688"/>
     <use xlink:href="#DejaVuSans-3d" x="350.341797"/>
     <use xlink:href="#DejaVuSans-20" x="434.130859"/>
     <use xlink:href="#DejaVuSans-70" x="465.917969"/>
     <use xlink:href="#DejaVuSans-6f" x="529.394531"/>
     <use xlink:href="#DejaVuSans-73" x="590.576172"/>
     <use xlink:href="#DejaVuSans-74" x="642.675781"/>
    </g>
   </g>
  </g>
  <g id="text_24">
   <!-- Peri Ictal E/I on a per-contact lvl -->
   <g transform="translate(236.0773 6.5934) scale(0.1152 -0.1152)">
    <defs>
     <path id="DejaVuSans-45" d="M 628 4666 
L 3578 4666 
L 3578 4134 
L 1259 4134 
L 1259 2753 
L 3481 2753 
L 3481 2222 
L 1259 2222 
L 1259 531 
L 3634 531 
L 3634 0 
L 628 0 
L 628 4666 
z
" transform="scale(0.015625)"/>
     <path id="DejaVuSans-2f" d="M 1625 4666 
L 2156 4666 
L 531 -594 
L 0 -594 
L 1625 4666 
z
" transform="scale(0.015625)"/>
     <path id="DejaVuSans-2d" d="M 313 2009 
L 1997 2009 
L 1997 1497 
L 313 1497 
L 313 2009 
z
" transform="scale(0.015625)"/>
     <path id="DejaVuSans-76" d="M 191 3500 
L 800 3500 
L 1894 563 
L 2988 3500 
L 3597 3500 
L 2284 0 
L 1503 0 
L 191 3500 
z
" transform="scale(0.015625)"/>
    </defs>
    <use xlink:href="#DejaVuSans-50"/>
    <use xlink:href="#DejaVuSans-65" x="56.677734"/>
    <use xlink:href="#DejaVuSans-72" x="118.201172"/>
    <use xlink:href="#DejaVuSans-69" x="159.314453"/>
    <use xlink:href="#DejaVuSans-20" x="187.097656"/>
    <use xlink:href="#DejaVuSans-49" x="218.884766"/>
    <use xlink:href="#DejaVuSans-63" x="248.376953"/>
    <use xlink:href="#DejaVuSans-74" x="303.357422"/>
    <use xlink:href="#DejaVuSans-61" x="342.566406"/>
    <use xlink:href="#DejaVuSans-6c" x="403.845703"/>
    <use xlink:href="#DejaVuSans-20" x="431.628906"/>
    <use xlink:href="#DejaVuSans-45" x="463.416016"/>
    <use xlink:href="#DejaVuSans-2f" x="526.599609"/>
    <use xlink:href="#DejaVuSans-49" x="560.291016"/>
    <use xlink:href="#DejaVuSans-20" x="589.783203"/>
    <use xlink:href="#DejaVuSans-6f" x="621.570312"/>
    <use xlink:href="#DejaVuSans-6e" x="682.751953"/>
    <use xlink:href="#DejaVuSans-20" x="746.130859"/>
    <use xlink:href="#DejaVuSans-61" x="777.917969"/>
    <use xlink:href="#DejaVuSans-20" x="839.197266"/>
    <use xlink:href="#DejaVuSans-70" x="870.984375"/>
    <use xlink:href="#DejaVuSans-65" x="934.460938"/>
    <use xlink:href="#DejaVuSans-72" x="995.984375"/>
    <use xlink:href="#DejaVuSans-2d" x="1030.722656"/>
    <use xlink:href="#DejaVuSans-63" x="1066.806641"/>
    <use xlink:href="#DejaVuSans-6f" x="1121.787109"/>
    <use xlink:href="#DejaVuSans-6e" x="1182.96875"/>
    <use xlink:href="#DejaVuSans-74" x="1246.347656"/>
    <use xlink:href="#DejaVuSans-61" x="1285.556641"/>
    <use xlink:href="#DejaVuSans-63" x="1346.835938"/>
    <use xlink:href="#DejaVuSans-74" x="1401.816406"/>
    <use xlink:href="#DejaVuSans-20" x="1441.025391"/>
    <use xlink:href="#DejaVuSans-6c" x="1472.8125"/>
    <use xlink:href="#DejaVuSans-76" x="1500.595703"/>
    <use xlink:href="#DejaVuSans-6c" x="1559.775391"/>
   </g>
  </g>
  <g id="legend_1"/>
 </g>
 <defs>
  <clipPath id="p104b11dead">
   <rect x="45.567736" y="23.568" width="188.458498" height="151.044"/>
  </clipPath>
  <clipPath id="pb4781f7b47">
   <rect x="249.279419" y="23.568" width="188.458498" height="151.044"/>
  </clipPath>
  <clipPath id="pec5b484204">
   <rect x="452.991102" y="23.568" width="188.458498" height="151.044"/>
  </clipPath>
 </defs>
</svg>
